<svg xmlns="http://www.w3.org/2000/svg" width="45.68" height="45.68" viewBox="0 0 45.68 45.68"><defs><style>.cls-1,.cls-2{fill:#fff;}.cls-2{fill-rule:evenodd;}</style></defs><g id="レイヤー_2" data-name="レイヤー 2"><g id="レイヤー_1-2" data-name="レイヤー 1"><path class="cls-1" d="M22.84,4.11c6.1,0,6.82,0,9.23.14A12.78,12.78,0,0,1,36.31,5a7.17,7.17,0,0,1,2.62,1.71,7,7,0,0,1,1.71,2.63,12.59,12.59,0,0,1,.79,4.24c.11,2.41.13,3.13.13,9.23s0,6.82-.13,9.23a12.71,12.71,0,0,1-.79,4.24,7.61,7.61,0,0,1-4.33,4.33,12.71,12.71,0,0,1-4.24.79c-2.41.11-3.13.13-9.23.13s-6.82,0-9.23-.13a12.59,12.59,0,0,1-4.24-.79,7,7,0,0,1-2.63-1.71A7.17,7.17,0,0,1,5,36.31a12.78,12.78,0,0,1-.78-4.24c-.11-2.41-.14-3.13-.14-9.23s0-6.82.14-9.23A12.66,12.66,0,0,1,5,9.37,7.13,7.13,0,0,1,6.74,6.74,7.13,7.13,0,0,1,9.37,5a12.66,12.66,0,0,1,4.24-.78c2.41-.11,3.13-.14,9.23-.14m0-4.11c-6.2,0-7,0-9.42.14A16.57,16.57,0,0,0,7.88,1.2a11.17,11.17,0,0,0-4,2.63A11.17,11.17,0,0,0,1.2,7.88,16.57,16.57,0,0,0,.14,13.42C0,15.86,0,16.64,0,22.84s0,7,.14,9.41A16.64,16.64,0,0,0,1.2,37.8a11.13,11.13,0,0,0,2.63,4,11.33,11.33,0,0,0,4.05,2.64,16.83,16.83,0,0,0,5.54,1.06c2.44.11,3.22.14,9.42.14s7,0,9.41-.14a16.89,16.89,0,0,0,5.55-1.06,11.76,11.76,0,0,0,6.68-6.68,16.89,16.89,0,0,0,1.06-5.55c.11-2.43.14-3.21.14-9.41s0-7-.14-9.42a16.83,16.83,0,0,0-1.06-5.54,11.33,11.33,0,0,0-2.64-4,11.13,11.13,0,0,0-4-2.63A16.64,16.64,0,0,0,32.25.14C29.82,0,29,0,22.84,0Z"/><path class="cls-1" d="M22.84,11.11A11.73,11.73,0,1,0,34.57,22.84,11.73,11.73,0,0,0,22.84,11.11Zm0,19.34a7.61,7.61,0,1,1,7.61-7.61A7.61,7.61,0,0,1,22.84,30.45Z"/><circle class="cls-1" cx="35.03" cy="10.65" r="2.74"/><path class="cls-2" d="M22.84,4.11c6.1,0,6.82,0,9.23.14A12.78,12.78,0,0,1,36.31,5a7.17,7.17,0,0,1,2.62,1.71,7,7,0,0,1,1.71,2.63,12.59,12.59,0,0,1,.79,4.24c.11,2.41.13,3.13.13,9.23s0,6.82-.13,9.23a12.71,12.71,0,0,1-.79,4.24,7.61,7.61,0,0,1-4.33,4.33,12.71,12.71,0,0,1-4.24.79c-2.41.11-3.13.13-9.23.13s-6.82,0-9.23-.13a12.59,12.59,0,0,1-4.24-.79,7,7,0,0,1-2.63-1.71A7.17,7.17,0,0,1,5,36.31a12.78,12.78,0,0,1-.78-4.24c-.11-2.41-.14-3.13-.14-9.23s0-6.82.14-9.23A12.66,12.66,0,0,1,5,9.37,7.13,7.13,0,0,1,6.74,6.74,7.13,7.13,0,0,1,9.37,5a12.66,12.66,0,0,1,4.24-.78c2.41-.11,3.13-.14,9.23-.14m0-4.11c-6.2,0-7,0-9.42.14A16.57,16.57,0,0,0,7.88,1.2a11.17,11.17,0,0,0-4,2.63A11.17,11.17,0,0,0,1.2,7.88,16.57,16.57,0,0,0,.14,13.42C0,15.86,0,16.64,0,22.84s0,7,.14,9.41A16.64,16.64,0,0,0,1.2,37.8a11.13,11.13,0,0,0,2.63,4,11.33,11.33,0,0,0,4.05,2.64,16.83,16.83,0,0,0,5.54,1.06c2.44.11,3.22.14,9.42.14s7,0,9.41-.14a16.89,16.89,0,0,0,5.55-1.06,11.76,11.76,0,0,0,6.68-6.68,16.89,16.89,0,0,0,1.06-5.55c.11-2.43.14-3.21.14-9.41s0-7-.14-9.42a16.83,16.83,0,0,0-1.06-5.54,11.33,11.33,0,0,0-2.64-4,11.13,11.13,0,0,0-4-2.63A16.64,16.64,0,0,0,32.25.14C29.82,0,29,0,22.84,0Z"/><path class="cls-2" d="M22.84,11.11A11.73,11.73,0,1,0,34.57,22.84,11.73,11.73,0,0,0,22.84,11.11Zm0,19.34a7.61,7.61,0,1,1,7.61-7.61A7.61,7.61,0,0,1,22.84,30.45Z"/><circle class="cls-1" cx="35.03" cy="10.65" r="2.74"/></g></g></svg>