<svg xmlns="http://www.w3.org/2000/svg" width="55.23" height="52.62" viewBox="0 0 55.23 52.62"><defs><style>.cls-1{fill:#fff;}</style></defs><g id="レイヤー_2" data-name="レイヤー 2"><g id="レイヤー_1-2" data-name="レイヤー 1"><path class="cls-1" d="M55.23,22.41C55.23,10.05,42.84,0,27.61,0S0,10.05,0,22.41C0,33.48,9.82,42.76,23.09,44.52c.9.19,2.13.59,2.44,1.36a5.66,5.66,0,0,1,.08,2.49l-.39,2.37c-.12.7-.55,2.73,2.39,1.49s15.9-9.37,21.7-16h0C53.31,31.81,55.23,27.35,55.23,22.41ZM17.75,28.17a1,1,0,0,1-1,1H9.28a.55.55,0,0,1-.37-.14h0a.5.5,0,0,1-.15-.37V17.23a1,1,0,0,1,1-1h.93a1,1,0,0,1,1,1V25.7a.49.49,0,0,0,.49.49h5a.54.54,0,0,1,.54.54Zm4,1h-.93a1,1,0,0,1-1-1V17.23a1,1,0,0,1,1-1h1.43a.55.55,0,0,1,.54.54V28.16A1,1,0,0,1,21.71,29.19Zm14-1a1,1,0,0,1-1,1H33.54l0,0h0l0,0h0l0,0h0a.57.57,0,0,1-.14-.13l-4.6-6.2a.49.49,0,0,0-.89.3v5.09a1,1,0,0,1-1,1h-.93a1,1,0,0,1-1-1V17.23a1,1,0,0,1,1-1H27l0,0h0l0,0h0l0,0h0l0,0h0l0,0h0l0,.05,4.6,6.19a.5.5,0,0,0,.9-.3V17.23a1,1,0,0,1,1-1h1.43a.55.55,0,0,1,.54.54Zm11-10a1,1,0,0,1-1,1H41.24a.5.5,0,0,0-.49.5v1a.49.49,0,0,0,.49.49h4.47a1,1,0,0,1,1,1v.93a1,1,0,0,1-1,1H41.24a.5.5,0,0,0-.49.5v1a.49.49,0,0,0,.49.49h4.47a1,1,0,0,1,1,1v.93a1,1,0,0,1-1,1H38.29a.57.57,0,0,1-.38-.14h0a.48.48,0,0,1-.15-.37V16.73a.51.51,0,0,1,.15-.37h0a.55.55,0,0,1,.38-.16h7.42a1,1,0,0,1,1,1Z"/></g></g></svg>