<svg xmlns="http://www.w3.org/2000/svg" width="45.89" height="45.62" viewBox="0 0 45.89 45.62"><defs><style>.cls-1,.cls-2{fill:#fff;}.cls-2{fill-rule:evenodd;}</style></defs><g id="レイヤー_2" data-name="レイヤー 2"><g id="レイヤー_1-2" data-name="レイヤー 1"><path class="cls-1" d="M45.89,23A22.95,22.95,0,1,0,19.36,45.62v-16H13.54V23h5.82V17.89C19.36,12.14,22.79,9,28,9a35.24,35.24,0,0,1,5.14.45v5.65h-2.9c-2.85,0-3.74,1.77-3.74,3.58V23H32.9l-1,6.63H26.53v16A23,23,0,0,0,45.89,23Z"/><path class="cls-2" d="M45.89,23A22.95,22.95,0,1,0,19.36,45.62v-16H13.54V23h5.82V17.89C19.36,12.14,22.79,9,28,9a35.24,35.24,0,0,1,5.14.45v5.65h-2.9c-2.85,0-3.74,1.77-3.74,3.58V23H32.9l-1,6.63H26.53v16A23,23,0,0,0,45.89,23Z"/></g></g></svg>