<svg xmlns="http://www.w3.org/2000/svg" width="104.51" height="104.51" viewBox="0 0 104.51 104.51"><defs><style>.cls-1{fill:#e8380d;}</style></defs><g id="レイヤー_2" data-name="レイヤー 2"><g id="レイヤー_1-2" data-name="レイヤー 1"><path class="cls-1" d="M8.22,51.61c-.16-.85-.31-1.68-.47-2.49a13.32,13.32,0,0,1,1.37-2.18c.14.9.28,1.81.43,2.75A14.76,14.76,0,0,0,8.22,51.61Zm10.65,4.66a48.08,48.08,0,0,0-8.52,5.87c-.09-.4-.18-.8-.26-1.2l.27-.26c-.48-2.28-.89-4.44-1.26-6.49q-.18.23-.33.45c-.15-.78-.3-1.56-.44-2.31a15.16,15.16,0,0,1,1.42-2c.46,3,1,6.1,1.58,9.45a51.21,51.21,0,0,1,7.26-5C18.69,55.32,18.78,55.8,18.87,56.27Zm-4.1.43-1.17.82c-.43-2-.81-4-1.16-5.85l-.45.39q.24,3,.55,6.23c-.33.26-.66.51-1,.76-.52-3.33-.94-6.48-1.32-9.46-.13.13-.25.27-.37.41-.13-.81-.26-1.6-.39-2.38l.44-.52c-.06-.43-.11-.86-.17-1.28.5-.59,1.05-1.17,1.65-1.75,0,.45.07.91.1,1.37l.74-.69c.15.81.31,1.63.47,2.47-.36.3-.7.61-1,.91,0,.6.08,1.2.13,1.81.55-.51,1.14-1,1.78-1.51C13.94,51.06,14.32,53.82,14.77,56.7Zm2.34-13.93c-1.05.68-2,1.38-2.94,2.09h0c-.45.35-.88.7-1.3,1.05-.18-.9-.36-1.78-.53-2.64.47-.42,1-.83,1.48-1.24l.06.54c.94-.74,2-1.46,3-2.17C17,41.18,17,42,17.11,42.77Zm.16,2.54c-.17,1-.34,2.08-.5,3.13l.74-.48c.06.64.12,1.28.19,1.93l-.87.56c.17,1.5.36,3,.56,4.62l-1.13.7c-.33-1.48-.62-2.93-.9-4.33-.3.2-.59.4-.87.61-.09-.62-.18-1.22-.27-1.82l.82-.6c.12-1,.24-2,.37-3.05-.73.52-1.42,1-2.07,1.57L13,46.31a45.8,45.8,0,0,1,4.18-3.08C17.2,43.91,17.23,44.61,17.27,45.31Z"/><path class="cls-1" d="M21.2,41.1c-1,.57-2,1.15-2.95,1.74-.38-1-.74-1.9-1.08-2.81,1-.68,2.17-1.36,3.33-2C20.72,39,21,40,21.2,41.1Zm1.19,4.72c-.85.46-1.68.92-2.48,1.39-.43-1-.85-2-1.24-2.92.93-.57,1.9-1.14,2.9-1.69C21.83,43.64,22.11,44.72,22.39,45.82Zm4.22-8.08.74-1.5c-.81.38-1.62.76-2.41,1.15l-.36.79c-1.14.57-2.25,1.16-3.32,1.75.47-1.3,1-2.56,1.46-3.78,2.44-1.27,5-2.46,7.73-3.56.06.71.12,1.45.2,2.21-.22.46-.45.94-.66,1.42q1.13-.49,2.28-1c.46,2.65,1,5.59,1.63,8.74-3.46,1.44-6.78,3-9.85,4.52q-1.43-4.38-2.53-8.18Q24,39,26.61,37.74Zm-3.7,10.08q.69,2.51,1.48,5.19l-1.57.79c-.77-1.64-1.49-3.23-2.17-4.75C21.38,48.64,22.14,48.23,22.91,47.82Zm1.29-6.34c.12.47.23,1,.36,1.44l2.06-1c-.15-.47-.31-.94-.46-1.39C25.5,40.83,24.84,41.15,24.2,41.48Zm0,7.6,1.93-1q.21,1.86.45,3.78l-1.55.74C24.76,51.43,24.48,50.25,24.22,49.08Zm1.11-3.17c.75-.38,1.52-.74,2.29-1.11l-.54-1.5c-.73.35-1.45.7-2.15,1.06C25.06,44.87,25.19,45.38,25.33,45.91Zm1.45,1.91,1.94-.9q.29,1.81.6,3.72l-1.69.77C27.34,50.19,27.05,49,26.78,47.82Zm3.64-9.27-2.06.92c.09.49.19,1,.28,1.48.72-.32,1.44-.65,2.16-1C30.67,39.5,30.55,39,30.42,38.55ZM31.65,43q-.21-.79-.42-1.56c-.77.33-1.54.67-2.29,1l.33,1.6C30.05,43.68,30.85,43.33,31.65,43Zm-.38,2.79c.35,1.15.72,2.32,1.1,3.52L30.72,50c-.48-1.15-.94-2.28-1.39-3.38ZM34,44.6c.41,1.11.82,2.25,1.26,3.41l-1.72.72L31.88,45.5Z"/><path class="cls-1" d="M43.16,38.22l2.25,6-1.32.48-2.72-5.88c-1.07.38-2.14.78-3.2,1.19.78,1.88,1.62,3.88,2.5,6l-1.38.53c-1.07-2-2.09-3.93-3-5.74l-.51.2c-.37-.67-.72-1.33-1.07-2l.54-.22c-1-1.94-2-3.75-2.87-5.41.72-.29,1.45-.57,2.17-.84q-.31-.62-.63-1.2c1.2-.45,2.41-.87,3.63-1.28L38,31.32c.77-.27,1.55-.53,2.33-.78q1,2.55,2.09,5.6l.47-.16c.26.67.52,1.36.79,2.07Zm-4.3-4.69c-1,.35-2,.71-3,1.08.45,1.07.91,2.2,1.4,3.38,1-.4,2.06-.78,3.1-1.15C39.87,35.68,39.36,34.58,38.86,33.53Zm-1,3.82-1.36-2.58,2.1-.76,1,2.68C39,36.9,38.41,37.12,37.82,37.35Zm2.9,6.24-1.66-3.41,1.7-.64c.47,1.13,1,2.29,1.46,3.49ZM45,34.84l-2.13.71c-.91-2.23-1.74-4.27-2.5-6.07,1.06-.34,2.13-.66,3.19-1C43.94,30.38,44.42,32.5,45,34.84Zm7.65,6.93c-2.15.7-4.32,1.43-6.49,2.2-1.07-2.89-2.09-5.6-3-8.07,2.43-.83,4.88-1.61,7.29-2.32C51.08,36.06,51.82,38.82,52.6,41.77Zm-2.49-8.53-1.93.58c-1.1-2.14-2.12-4.07-3.06-5.76,1-.28,2-.54,3-.79C48.72,29,49.39,31,50.11,33.24Zm-3.87,4c.44,1.49.9,3.07,1.37,4.7.89-.31,1.79-.61,2.68-.9q-.9-2.37-1.75-4.55Z"/><path class="cls-1" d="M66,28.05l-2.14.42c.88,2.66,1.76,5.84,2.63,9.38-.5.12-1,.25-1.49.39-1.38-3.43-2.76-6.53-4.08-9.15-1.53.33-3.09.7-4.68,1.09.59,1.29,1.2,2.68,1.82,4.17l-2,.54c-.89-1.42-1.76-2.76-2.6-4l-2.24.6c-.57-.85-1.13-1.66-1.67-2.42l2.21-.57c-.44-.61-.87-1.2-1.3-1.75,1.24-.29,2.47-.56,3.68-.82.3.56.61,1.15.92,1.78q2.34-.54,4.59-1c-.35-.63-.69-1.22-1-1.77,1.23-.22,2.43-.43,3.62-.62.24.54.49,1.13.74,1.76l1.87-.33C65.27,26.46,65.65,27.23,66,28.05Z"/><path class="cls-1" d="M76.31,31.11c-3.45.49-3.67.46-7.75,1.26q-.89-1.09-1.77-2.1c4.28-.79,4.68-.75,8.32-1.25C75.52,29.68,75.92,30.38,76.31,31.11Z"/><path class="cls-1" d="M87.17,27.94c-1.2.18-2.41.34-3.66.51.79,1.57,1.52,3.25,2.21,5l-1.07.13a51.93,51.93,0,0,0-3-4.9l-4.06.54c-.53-.67-1.08-1.32-1.63-1.94l4.23-.58c-.51-.65-1-1.26-1.57-1.85-1.14.28-2.29.55-3.48.82a27.88,27.88,0,0,0-2-1.93,76.06,76.06,0,0,0,9.61-2.91,27.57,27.57,0,0,1,1.62,2.46c-1.09.35-2.18.66-3.26.95.46.67.9,1.39,1.34,2.15,1.32-.2,2.62-.4,3.91-.63C86.63,26.47,86.91,27.19,87.17,27.94Z"/><path class="cls-1" d="M35.11,64.47c-4,1.58-7.82,3.15-11.2,4.63-.77-1.68-1.5-3.33-2.2-4.93.89-.43,1.8-.87,2.75-1.31-.48-1.09-.94-2.17-1.38-3.23,2-1,4.17-2,6.44-3,.35,1.14.71,2.29,1.08,3.46.93-.4,1.88-.79,2.84-1.19C34,60.75,34.54,62.6,35.11,64.47ZM27.29,74.58c-.71-1.52-1.39-3-2.05-4.51,3.17-1.34,6.67-2.75,10.35-4.19.56,1.62,1.12,3.25,1.7,4.89C33.77,72.09,30.39,73.38,27.29,74.58ZM30,79.72c-.63-1.28-1.25-2.57-1.85-3.86l9.67-3.62,1.5,4.15Zm5.74,11c-1.75-3.11-3.47-6.35-5.12-9.62,3-1,6.11-2.07,9.38-3.21,1.31,3.47,2.65,6.91,4,10.21C41.14,89.05,38.37,89.93,35.73,90.73Zm21.2-22.86-3.76,1.37c-1.33-4.41-2.65-8.81-3.94-13L46.94,57q-.4,3-.79,6.11l3.61.18c.42,1.6.85,3.2,1.27,4.82l-5.5-.22L45,72.58l-4.2,1.53q0-3.19,0-6.41l-3.15-.13L36,62.7l4.86.2c0-1.21,0-2.41,0-3.6-2,.75-3.92,1.51-5.82,2.27-.65-1.92-1.27-3.82-1.86-5.67,6.23-2.61,13-5.14,19.61-7.34C54.16,54.58,55.57,61.21,56.93,67.87ZM38.29,82.61l-2.88,1c.58,1.19,1.16,2.37,1.75,3.54L40,86.21C39.41,85,38.85,83.82,38.29,82.61Zm9.9,3.92-2.83,1C43.9,84.09,42.42,80.55,41,77l3.66-1.31C45.81,79.36,47,83,48.19,86.53Zm9.27-3.47c-2.61,1-5.23,1.9-7.83,2.8C48,82,46.42,78,44.82,74l4-1.44C49.89,75.79,51,79,52.06,82.14l1.44-.52c-.57-1.38-1.14-2.78-1.71-4.19l3.53-1.29C56,78.48,56.76,80.79,57.46,83.06Zm1.39-10.48c-2.55,1-5.13,1.89-7.71,2.83-.43-1.16-.85-2.33-1.28-3.49l8-2.92C58.2,70.19,58.53,71.39,58.85,72.58Zm2.79,9-2.72,1c-.92-2.45-1.87-5-2.83-7.49l3.32-1.23C60.17,76.48,60.92,79.05,61.64,81.57Z"/><path class="cls-1" d="M86.05,50.91l-2.3.65c.29,1,.57,2,.83,3-1.86.61-4,1.3-6.24,2.07.41,1.47.81,3,1.2,4.44l6.63-2.5c.26,1.26.49,2.52.72,3.78-1.83.8-4,1.7-6.34,2.67.37,1.52.73,3,1.07,4.52,2.44-1.1,4.59-2.13,6.38-3l.45,2.81a161.41,161.41,0,0,1-17.32,8.14c-1.73-3.91-3.6-8-5.54-12.08l4.82-1.76c1.13,3.14,2.21,6.29,3.22,9.38q2.22-.91,4.26-1.79c-1.52-4.16-3.2-8.45-5-12.7-2.54.88-5.24,1.82-8,2.81-.47-1-1-2.1-1.42-3.14L59.35,59.6c-1.73-3.43-3.48-6.79-5.19-10,4.27-1.43,8.44-2.72,12.34-3.83-.48-1.05-1-2.08-1.45-3.09,2.73-.74,5.34-1.4,7.79-2,.43,1,.87,2,1.29,3,3.44-.86,6.54-1.53,9.25-2C84.37,44.64,85.26,47.74,86.05,50.91Zm-5.34-3.16C75.8,49,69.76,50.82,63.14,53c.27.67.54,1.36.8,2,6.62-2.2,12.65-4.05,17.5-5.39C81.2,49,81,48.38,80.71,47.75Z"/><path class="cls-1" d="M52.23,98A45.75,45.75,0,0,1,36.61,9.28,45.73,45.73,0,0,1,93.7,71.58,45.85,45.85,0,0,1,52.23,98Zm.05-91.34A45.64,45.64,0,1,0,71.51,11,45.64,45.64,0,0,0,52.28,6.67Z"/><path class="cls-1" d="M52.22,104a51.83,51.83,0,1,1,17.72-3.14A51.54,51.54,0,0,1,52.22,104Zm0-101.25A49.51,49.51,0,1,0,98.77,35.32,49.43,49.43,0,0,0,52.2,2.75Z"/><rect class="cls-1" x="35.1" y="-0.25" width="0.85" height="13.09" transform="translate(-0.01 12.53) rotate(-20)"/><rect class="cls-1" x="-0.25" y="68.56" width="13.09" height="0.85" transform="translate(-23.21 6.31) rotate(-20)"/><rect class="cls-1" x="68.56" y="91.67" width="0.85" height="13.09" transform="translate(-29.43 29.52) rotate(-20)"/><rect class="cls-1" x="91.67" y="35.1" width="13.09" height="0.85" transform="translate(-6.23 35.74) rotate(-20)"/></g></g></svg>