<svg xmlns="http://www.w3.org/2000/svg" width="70" height="60.24" viewBox="0 0 70 60.24"><defs><style>.cls-1{fill:#0074b6;}</style></defs><g id="レイヤー_2" data-name="レイヤー 2"><g id="レイヤー_1-2" data-name="レイヤー 1"><path class="cls-1" d="M70,6.47a16.84,16.84,0,0,1-9.6-2.7A24.92,24.92,0,0,0,46.66,0,24.92,24.92,0,0,0,32.92,3.77a16.82,16.82,0,0,1-9.59,2.7,16.8,16.8,0,0,1-9.59-2.7A24.92,24.92,0,0,0,0,0V8.55a16.72,16.72,0,0,1,9.59,2.7A24.92,24.92,0,0,0,23.33,15a24.94,24.94,0,0,0,13.74-3.77,16.7,16.7,0,0,1,9.59-2.7,16.76,16.76,0,0,1,9.6,2.7A24.92,24.92,0,0,0,70,15Z"/><path class="cls-1" d="M70,29.07a16.84,16.84,0,0,1-9.6-2.69,24.92,24.92,0,0,0-13.74-3.77,24.92,24.92,0,0,0-13.74,3.77,16.83,16.83,0,0,1-9.59,2.69,16.8,16.8,0,0,1-9.59-2.69A24.92,24.92,0,0,0,0,22.61v8.55a16.72,16.72,0,0,1,9.59,2.7,24.92,24.92,0,0,0,13.74,3.77,24.94,24.94,0,0,0,13.74-3.77,16.7,16.7,0,0,1,9.59-2.7,16.76,16.76,0,0,1,9.6,2.7A24.92,24.92,0,0,0,70,37.63Z"/><path class="cls-1" d="M70,51.68A16.84,16.84,0,0,1,60.4,49a24.92,24.92,0,0,0-13.74-3.77A24.92,24.92,0,0,0,32.92,49a16.83,16.83,0,0,1-9.59,2.69A16.8,16.8,0,0,1,13.74,49,24.92,24.92,0,0,0,0,45.22v8.55a16.72,16.72,0,0,1,9.59,2.7,25,25,0,0,0,13.74,3.77,25,25,0,0,0,13.74-3.77,16.7,16.7,0,0,1,9.59-2.7,16.76,16.76,0,0,1,9.6,2.7A25,25,0,0,0,70,60.24Z"/></g></g></svg>