<svg xmlns="http://www.w3.org/2000/svg" width="51.31" height="41.69" viewBox="0 0 51.31 41.69"><defs><style>.cls-1{fill:#fff;}</style></defs><g id="レイヤー_2" data-name="レイヤー 2"><g id="レイヤー_1-2" data-name="レイヤー 1"><path class="cls-1" d="M16.13,41.69c19.36,0,30-16,30-29.95,0-.46,0-.91,0-1.36a21.63,21.63,0,0,0,5.26-5.45,21.24,21.24,0,0,1-6.05,1.66A10.6,10.6,0,0,0,49.89.76,21.18,21.18,0,0,1,43.2,3.32a10.54,10.54,0,0,0-17.94,9.6,29.9,29.9,0,0,1-21.69-11A10.53,10.53,0,0,0,6.83,16a10.42,10.42,0,0,1-4.78-1.32v.14A10.54,10.54,0,0,0,10.5,25.11a10.63,10.63,0,0,1-4.76.18,10.56,10.56,0,0,0,9.84,7.31A21.08,21.08,0,0,1,2.51,37.11,21,21,0,0,1,0,37a29.75,29.75,0,0,0,16.13,4.72"/></g></g></svg>