<svg xmlns="http://www.w3.org/2000/svg" width="293.96" height="83.53" viewBox="0 0 293.96 83.53"><defs><style>.cls-1{fill:#ffffff;}</style></defs><g id="レイヤー_2" data-name="レイヤー 2"><g id="レイヤー_1-2" data-name="レイヤー 1"><path class="cls-1" d="M1.2,12.47,0,1.76H11.6l.22,10.71ZM44.61,53.16H5.8L5.36,48.9H7.17l-2-24H2.46L1.37,15.39H12.42L13,48.9H44.83ZM30.16,47.44H25l-.33-19.71h-2.3L19.87,47.38l-5-.06,1-32.54h-2.3L13.25,5.6h2.84L16.26.79h9.41L25.12,5.6H28.9l.22,9.18H24l-.76,6h8.64ZM48.55,11h-12v.06H30.65L30.27,1h6.84l-.11,2H49.42ZM47.4,19.28l-3.89,8.39h2.85l-.77,6H42.25L40.72,47.56H36.29l.05-13.93H32.68l.27-6h3.56L40,19.28H31l-.17-6.69H48.44Z"/><path class="cls-1" d="M62.77,13.56H52.32L50.57,2.25H62.66Zm.28,16.18H54.62L52.7,18.85H62.88Zm.05,6.45.33,16.06h-5L55.55,36.19ZM80.72,11.74,83.84,8H76.29L74.7,10H63.76L70.65,0H95L93.86,8,91,11.74H97.8l-2.74,28H65.84l-1.59-28ZM65.89,41.54h6L70.27,52.12H65.51Zm5.42-21.83v4.86h6.46l-.27-4.86Zm0,14.59h7l-.33-5H71.31Zm2.52,7.24h5.8L78.37,52.12h-5Zm13.24,0,.06,10.58H82.42l-1-10.58Zm3.12-7.24.11-5H83.57l-.33,5Zm.22-14.59H84.23l-.33,4.86h6.4Zm4.44,21.83.38,10.4H90.47l-1.64-10.4Z"/><path class="cls-1" d="M122.54,33.51l-.05,18.8H119l-1.37-18.8h-8.81l1,18.8h-3.73l-2.68-18.8H102l-1.1-7h1.54l-3-21h6.4L105.19.36h10.68l0,5.17h6.73l-.11,21h1.32v7ZM116.2,14.29h-8.43l.65,12.23h8.65Zm-6,10.89L109,15.51h6l.22,9.67ZM112,46l-1.09-11.13h4.65L116,46Zm18.12-20.8h-5.91l-.39-23.6h9.31Zm11.6,27H124.41l.11-25.66h20.25ZM130.92,33.7l-1.15,14.47h7.17l.27-14.47Zm13.57-8.52h-5.42l-1.26-23.6h8.82Z"/><path class="cls-1" d="M198.77,20.5h-7.54l-7.36,32.05h-4.81l2.13-32H165.68l-.85,15.2h-6.26l-1.83-15.2h-7.11l-1.4-10.28h7.17l-1-8.33h12.35l-.43,8.33h15.57l.61-8.76h13l-2,8.76h6.75Z"/><path class="cls-1" d="M243,23.75H203.75l-1.2-8.94H244Z"/><path class="cls-1" d="M292.56,33.7H274.8L273.16,52h-5.35l-1.7-18.3H248l-1.21-8.28h18.61l-.79-8.51-16.24,1.4L247.13,8.15l46.16-5.29L292.14,14.6l-15.75,1.34-.79,9.48H294Z"/><path class="cls-1" d="M56.61,64.24,50.68,79.4c-1.12,2.86-2.6,4.13-5,4.13L45.21,82l.17-.22c1.86,0,3.06-.79,4-3.06L43.6,64.24h3.67l3.89,9.84L55,64.24Z"/><path class="cls-1" d="M71.32,64.24V78.38H67.94V76.32a7.56,7.56,0,0,1-5,2.4c-2.5,0-3.9-1.38-3.9-4V64.24h3.39V74.59c0,1.42.56,2.12,1.7,2.12a6.33,6.33,0,0,0,3.85-2.06V64.24Z"/><path class="cls-1" d="M88.58,79c0,3.31-3.06,4.55-7.33,4.55-4.81,0-6.72-1.24-6.72-3.59a3.4,3.4,0,0,1,1-2.29,2.68,2.68,0,0,1-.69-1.93,4.15,4.15,0,0,1,1.86-3.19,4.34,4.34,0,0,1-1.86-3.79c0-3.28,2.44-4.84,5.68-4.84a6.29,6.29,0,0,1,4,1.22l3.81-1.22h.23v2.46h-3a5.2,5.2,0,0,1,.53,2.38c0,3.25-2.41,4.78-5.59,4.78a7.85,7.85,0,0,1-2.7-.43,1.62,1.62,0,0,0-.74,1.28c0,.7.36,1.24,1.68,1.24h5.65C86.82,75.61,88.58,76.71,88.58,79Zm-2.65,1c0-.88-.58-1.27-2.24-1.27H78.86a6.66,6.66,0,0,1-2.29-.34,2.38,2.38,0,0,0-.39,1.33c0,1.5,1.45,2.29,5.07,2.29S85.93,81.13,85.93,79.94ZM78,69.47A2.18,2.18,0,0,0,80.49,72c1.75,0,2.39-.9,2.39-2.49V68.06c0-1.59-.64-2.6-2.39-2.6s-2.5,1-2.5,2.6Z"/><path class="cls-1" d="M102.48,64.24,96.55,79.4c-1.12,2.86-2.6,4.13-5,4.13L91.08,82l.17-.22c1.86,0,3.06-.79,4-3.06L89.47,64.24h3.67L97,74.08l3.87-9.84Z"/><path class="cls-1" d="M103.22,71.31c0-4.72,2.85-7.41,6.89-7.41s6.9,2.69,6.9,7.41-2.85,7.41-6.9,7.41S103.22,76,103.22,71.31Zm10.28,1.78V69.5c0-2.83-1.4-4-3.39-4s-3.38,1.19-3.38,4v3.62c0,2.83,1.4,4,3.38,4S113.5,75.92,113.5,73.09Z"/><path class="cls-1" d="M119,76.71l.69-1.35h.28a6.83,6.83,0,0,0,4.68,1.78c1.81,0,2.75-.76,2.75-2,0-3.34-7.82-1.75-7.82-7.1,0-2.49,2.17-4.13,5.48-4.13a7.34,7.34,0,0,1,4.65,1.53l-.58,1.38h-.28A5.7,5.7,0,0,0,125,65.48c-1.71,0-2.68.65-2.68,1.67,0,3,8.2,1.67,8.2,7,0,3.17-2.7,4.61-5.91,4.61A8.45,8.45,0,0,1,119,76.71Z"/><path class="cls-1" d="M136.23,71.74v1.33c0,2.74,1.43,4.07,4.07,4.07a5.92,5.92,0,0,0,4.43-1.9H145l.84,1.14a7.62,7.62,0,0,1-5.77,2.34c-4.51,0-7.36-2.71-7.36-7.41s2.88-7.41,6.9-7.41,6.64,2.69,6.64,7.33v.51Zm0-2.1v.54H143v-.54c0-2.88-1.35-4.16-3.33-4.16S136.23,66.76,136.23,69.64Z"/><path class="cls-1" d="M161.79,67.92V78.38H158.4V68c0-1.39-.53-2.12-1.68-2.12A6.32,6.32,0,0,0,152.85,68V78.38h-3.38V64.24h3.38V66.3a7.62,7.62,0,0,1,5.07-2.4C160.39,63.9,161.79,65.29,161.79,67.92Z"/><path class="cls-1" d="M172.3,76.71l.69-1.35h.28A6.85,6.85,0,0,0,178,77.14c1.81,0,2.75-.76,2.75-2,0-3.34-7.81-1.75-7.81-7.1,0-2.49,2.16-4.13,5.47-4.13A7.37,7.37,0,0,1,183,65.43l-.59,1.38h-.28a5.68,5.68,0,0,0-3.79-1.33c-1.7,0-2.67.65-2.67,1.67,0,3,8.19,1.67,8.19,7,0,3.17-2.69,4.61-5.9,4.61A8.46,8.46,0,0,1,172.3,76.71Z"/><path class="cls-1" d="M189.59,71.74v1.33c0,2.74,1.42,4.07,4.07,4.07a5.94,5.94,0,0,0,4.43-1.9h.28l.84,1.14a7.66,7.66,0,0,1-5.78,2.34c-4.51,0-7.36-2.71-7.36-7.41S189,63.9,193,63.9s6.64,2.69,6.64,7.33v.51Zm0-2.1v.54h6.72v-.54c0-2.88-1.35-4.16-3.34-4.16S189.59,66.76,189.59,69.64Z"/><path class="cls-1" d="M214.46,69v9.42h-3.39V76.91a5.24,5.24,0,0,1-4.17,1.81c-3,0-5.09-1.81-5.09-5s2.21-4.86,5.29-4.86a6.43,6.43,0,0,1,4,1.21V68.23c0-2-1-2.72-2.77-2.72a7.49,7.49,0,0,0-4.51,1.64h-.23L203,65.68a10.56,10.56,0,0,1,6-1.78C212.34,63.9,214.46,65.26,214.46,69Zm-3.39,6.28v-3.7a4.57,4.57,0,0,0-3-1.11,2.67,2.67,0,0,0-2.9,3v.71c0,1.9,1.07,2.94,2.55,2.94A4.09,4.09,0,0,0,211.07,75.24Z"/><path class="cls-1" d="M227.56,64v2.66l-.22.06a3.32,3.32,0,0,0-1.68-.37,4.37,4.37,0,0,0-3.59,2.18v9.84h-3.39V64.24h3.39v2.52a5.83,5.83,0,0,1,4.6-2.86A3.1,3.1,0,0,1,227.56,64Z"/><path class="cls-1" d="M235.79,77.14a5,5,0,0,0,3.92-1.78H240l.76,1.16a6.38,6.38,0,0,1-5.06,2.2c-4.13,0-7-2.71-7-7.41s2.85-7.41,7-7.41a6.2,6.2,0,0,1,5.06,2.21l-.92,1.38h-.28a4.56,4.56,0,0,0-3.76-2c-2.22,0-3.57,1.45-3.57,4.16V73C232.22,75.7,233.57,77.14,235.79,77.14Z"/><path class="cls-1" d="M255.79,67.92V78.38h-3.38V68c0-1.39-.54-2.12-1.68-2.12A6.27,6.27,0,0,0,246.86,68V78.38h-3.38V58.58h3.38V66.3a7.62,7.62,0,0,1,5.07-2.4C254.39,63.9,255.79,65.29,255.79,67.92Z"/></g></g></svg>