<svg xmlns="http://www.w3.org/2000/svg" width="237.1" height="194.38" viewBox="0 0 237.1 194.38"><defs><style>.cls-1{fill:#fff;}</style></defs><g id="レイヤー_2" data-name="レイヤー 2"><g id="レイヤー_1-2" data-name="レイヤー 1"><path class="cls-1" d="M2,20.16,0,2.85H18.77l.35,17.31ZM72.14,86H9.38l-.71-6.88H11.6L8.32,40.22H4L2.21,24.88H20.09L21,79.07H72.49ZM48.77,76.71H40.36l-.53-31.87H36.11l-4,31.77L24,76.51,25.58,23.9H21.86L21.42,9.05H26l.27-7.77H41.51l-.88,7.77h6.11l.35,14.85H38.77l-1.24,9.73h14ZM78.51,17.8H59.13v.1H49.57L49,1.57H60l-.17,3.15H79.93ZM76.66,31.17,70.37,44.75H75l-1.24,9.63h-5.4L65.86,76.9H58.69l.08-22.52H52.84l.45-9.63H59l5.67-13.58H50.1l-.27-10.81H78.34Z"/><path class="cls-1" d="M101.5,21.93H84.6L81.76,3.64h19.57ZM102,48.09H88.31l-3.09-17.6h16.46ZM102,58.51l.54,26H94.42l-4.6-26ZM130.54,19l5-6.1H123.37l-2.57,3.25H103.1L114.25,0h39.39l-1.86,12.88-4.6,6.1h11l-4.42,45.34H106.46L103.89,19Zm-24,48.19h9.74l-2.66,17.11h-7.7Zm8.76-35.31v7.87h10.45l-.45-7.87Zm0,23.6h11.33l-.53-8.06h-10.8Zm4.07,11.71h9.39l-2,17.11h-8Zm21.42,0,.09,17.11h-7.61l-1.59-17.11Zm5-11.71L146,47.4H135.14l-.53,8.06Zm.35-23.6h-10l-.53,7.87H146Zm7.17,35.31L154,84h-7.7l-2.65-16.81Z"/><path class="cls-1" d="M198.16,54.19l-.09,30.38H192.4l-2.21-30.38H175.94l1.68,30.38h-6l-4.34-30.38H165l-1.77-11.31h2.48L160.8,9h10.36L170.1.59h17.26L187.45,9h10.88l-.17,33.93h2.12V54.19ZM187.89,23.11H174.26l1.06,19.77h14Zm-9.65,17.6-2-15.63h9.65l.36,15.63Zm2.83,33.64-1.77-18h7.53l.79,18Zm29.3-33.64h-9.56l-.62-38.15h15.05Zm18.77,43.67h-28l.17-41.5h32.75ZM211.7,54.48l-1.86,23.41h11.6l.44-23.41Zm22-13.77h-8.76l-2-38.15H237.1Z"/><path class="cls-1" d="M82.26,126H70.06l-11.9,51.83H50.39L53.83,126H28.76l-1.38,24.59H17.25L14.3,126H2.79L.53,109.4H12.14L10.47,95.93h20l-.69,13.47H54.92l1-14.16H77L73.8,109.4H84.71Z"/><path class="cls-1" d="M153.78,131.28H90.31l-2-14.46h67.1Z"/><path class="cls-1" d="M233.92,147.36H205.2L202.55,177h-8.66l-2.75-29.6H161.83l-2-13.37H190l-1.28-13.77-26.26,2.26-2-16.42L235.1,97.5l-1.87,19-25.47,2.17L206.48,134h29.7Z"/><path class="cls-1" d="M82.39,161.33,77.81,173c-.86,2.21-2,3.19-3.83,3.19l-.4-1.18.14-.17c1.44,0,2.36-.61,3.07-2.36l-4.45-11.19h2.84l3,7.61,3-7.61Z"/><path class="cls-1" d="M93.76,161.33v10.93H91.15v-1.6a5.87,5.87,0,0,1-3.9,1.86,2.75,2.75,0,0,1-3-3.1v-8.09h2.62v8c0,1.09.43,1.64,1.32,1.64a4.87,4.87,0,0,0,3-1.6v-8Z"/><path class="cls-1" d="M107.1,172.72c0,2.55-2.36,3.51-5.67,3.51-3.71,0-5.19-1-5.19-2.77a2.65,2.65,0,0,1,.75-1.77,2,2,0,0,1-.53-1.49,3.23,3.23,0,0,1,1.43-2.47,3.36,3.36,0,0,1-1.43-2.92c0-2.54,1.89-3.74,4.38-3.74A4.88,4.88,0,0,1,104,162l3-.94h.18V163h-2.32a4.1,4.1,0,0,1,.41,1.84c0,2.51-1.87,3.69-4.33,3.69a6.18,6.18,0,0,1-2.08-.33,1.25,1.25,0,0,0-.57,1c0,.54.27,1,1.3,1h4.36C105.74,170.12,107.1,171,107.1,172.72Zm-2,.74c0-.68-.45-1-1.73-1H99.58a5,5,0,0,1-1.77-.27,2,2,0,0,0-.29,1c0,1.16,1.12,1.77,3.91,1.77S105.05,174.38,105.05,173.46Zm-6.13-8.08a1.68,1.68,0,0,0,1.92,1.92c1.36,0,1.85-.7,1.85-1.92v-1.1c0-1.22-.49-2-1.85-2s-1.92.79-1.92,2Z"/><path class="cls-1" d="M117.84,161.33,113.25,173c-.86,2.21-2,3.19-3.83,3.19l-.39-1.18.13-.17c1.44,0,2.36-.61,3.07-2.36l-4.44-11.19h2.83l3,7.61,3-7.61Z"/><path class="cls-1" d="M118.41,166.79c0-3.64,2.2-5.72,5.33-5.72s5.33,2.08,5.33,5.72-2.21,5.73-5.33,5.73S118.41,170.44,118.41,166.79Zm7.94,1.38V165.4c0-2.19-1.08-3.11-2.61-3.11s-2.62.92-2.62,3.11v2.79c0,2.19,1.08,3.11,2.62,3.11S126.35,170.36,126.35,168.17Z"/><path class="cls-1" d="M130.56,171l.53-1.05h.22a5.28,5.28,0,0,0,3.62,1.38c1.4,0,2.12-.59,2.12-1.55,0-2.58-6-1.36-6-5.49,0-1.92,1.67-3.19,4.22-3.19a5.68,5.68,0,0,1,3.6,1.18l-.45,1.07h-.22a4.38,4.38,0,0,0-2.93-1c-1.31,0-2.06.51-2.06,1.29,0,2.3,6.33,1.29,6.33,5.38,0,2.45-2.08,3.56-4.56,3.56A6.55,6.55,0,0,1,130.56,171Z"/><path class="cls-1" d="M143.92,167.12v1c0,2.12,1.1,3.15,3.14,3.15a4.6,4.6,0,0,0,3.43-1.47h.21l.65.88a5.88,5.88,0,0,1-4.46,1.81c-3.48,0-5.69-2.1-5.69-5.73s2.23-5.72,5.33-5.72,5.14,2.08,5.14,5.66v.39Zm0-1.61v.41h5.19v-.41c0-2.23-1-3.22-2.58-3.22S143.92,163.28,143.92,165.51Z"/><path class="cls-1" d="M163.66,164.17v8.09h-2.61v-8c0-1.07-.41-1.64-1.3-1.64a4.86,4.86,0,0,0-3,1.6v8h-2.61V161.33h2.61v1.6a5.86,5.86,0,0,1,3.92-1.86C162.58,161.07,163.66,162.14,163.66,164.17Z"/><path class="cls-1" d="M86,192.82l.54-1h.21a5.3,5.3,0,0,0,3.62,1.38c1.4,0,2.13-.59,2.13-1.55,0-2.58-6-1.35-6-5.48,0-1.93,1.67-3.2,4.23-3.2a5.72,5.72,0,0,1,3.6,1.18l-.46,1.08h-.21a4.35,4.35,0,0,0-2.93-1c-1.32,0-2.07.5-2.07,1.29,0,2.29,6.33,1.29,6.33,5.37,0,2.45-2.08,3.57-4.56,3.57A6.57,6.57,0,0,1,86,192.82Z"/><path class="cls-1" d="M99.33,189v1a2.8,2.8,0,0,0,3.15,3.15,4.62,4.62,0,0,0,3.42-1.46h.22l.64.87a5.89,5.89,0,0,1-4.46,1.82c-3.48,0-5.68-2.1-5.68-5.73s2.22-5.73,5.33-5.73,5.13,2.08,5.13,5.66v.4Zm0-1.62v.42h5.19v-.42c0-2.23-1-3.21-2.57-3.21S99.33,185.13,99.33,187.36Z"/><path class="cls-1" d="M118.55,186.84v7.27h-2.62V193a4.08,4.08,0,0,1-3.23,1.4,3.61,3.61,0,0,1-3.93-3.85c0-2.43,1.71-3.76,4.09-3.76a5,5,0,0,1,3.07.94v-1.44c0-1.53-.81-2.1-2.14-2.1a5.78,5.78,0,0,0-3.49,1.27h-.17l-.45-1.14a8.15,8.15,0,0,1,4.62-1.38C116.91,182.92,118.55,184,118.55,186.84Zm-2.62,4.85v-2.87a3.6,3.6,0,0,0-2.3-.85,2.06,2.06,0,0,0-2.24,2.32v.54c0,1.47.82,2.28,2,2.28A3.17,3.17,0,0,0,115.93,191.69Z"/><path class="cls-1" d="M128.67,183v2.06l-.17,0a2.58,2.58,0,0,0-1.3-.28,3.38,3.38,0,0,0-2.77,1.68v7.6h-2.62V183.19h2.62v1.94a4.51,4.51,0,0,1,3.56-2.21A2.43,2.43,0,0,1,128.67,183Z"/><path class="cls-1" d="M135,193.15a3.86,3.86,0,0,0,3-1.38h.21l.59.9a4.93,4.93,0,0,1-3.91,1.71c-3.19,0-5.39-2.1-5.39-5.73s2.2-5.73,5.39-5.73a4.81,4.81,0,0,1,3.91,1.71l-.71,1.07h-.21a3.52,3.52,0,0,0-2.91-1.55c-1.71,0-2.76,1.11-2.76,3.21v2.58C132.27,192,133.32,193.15,135,193.15Z"/><path class="cls-1" d="M150.49,186v8.08h-2.62v-8c0-1.08-.41-1.64-1.3-1.64a4.9,4.9,0,0,0-3,1.59v8H141V178.82h2.61v6a5.88,5.88,0,0,1,3.92-1.86C149.41,182.92,150.49,184,150.49,186Z"/></g></g></svg>