<svg xmlns="http://www.w3.org/2000/svg" width="186" height="186" viewBox="0 0 186 186"><defs><style>.cls-1{fill:#f1f1f1;}.cls-2{fill:#03b3d9;}</style></defs><g id="レイヤー_2" data-name="レイヤー 2"><g id="レイヤー_1-2" data-name="レイヤー 1"><circle class="cls-1" cx="93" cy="93" r="93"/><path class="cls-2" d="M140.75,23.66a13.11,13.11,0,0,0-9.84,4.73l-9.43,11.34L112,28.32a13.07,13.07,0,0,0-9.78-4.66c-6.72,0-13.95,5.78-13.95,18.48V81.5a4.42,4.42,0,0,0,1.41,3.22l28.84,26.63a4.38,4.38,0,0,0,5.94,0l28.84-26.63a4.37,4.37,0,0,0,1.4-3.22V42.14C154.69,29.44,147.46,23.66,140.75,23.66ZM118.24,99.2,97,79.59V42.14c0-6.69,2.71-9.74,5.21-9.74A4.22,4.22,0,0,1,105.32,34l12.8,15.38.12.11Zm6.48,0v-9l4.68,4.68ZM132.49,92l-7.77-7.78V75l12.6,12.6Zm7.93-7.32L124.72,69V59.71l20.53,20.53ZM146,75,124.72,53.75V49.47a1.31,1.31,0,0,0,.12-.11L127,46.75,146,65.7Zm0-15.25L129.71,43.5l4.22-5.07,12,12Zm0-15.24-9.32-9.32,1-1.13c3-3.44,8.37-1.6,8.37,8.09Z"/><path d="M61.45,82.64a11.71,11.71,0,1,0-11.71-11.7A11.7,11.7,0,0,0,61.45,82.64Z"/><path d="M42.48,124.38c1.88-.09,3.76-.17,5.64-.32s3.76-.25,5.64-.42c1.12-.09,2.24-.2,3.37-.31l-3.6,16.83a6.25,6.25,0,1,0,12.22,2.6l5.4-25.27a7,7,0,0,0,.13-1.3A6.24,6.24,0,0,0,65,109.94h0c-3.45-.49-6.9-.81-10.36-1.12l1.58-3.25,2.2-4.57,5.59,2.5.87.39a3.83,3.83,0,0,0,3.19,0l15.73-7.58a3,3,0,0,0,1.65-3.38s0-.08,0-.12l47.64-42v80a2.63,2.63,0,0,0-.8.52,2.74,2.74,0,0,0,0,3.85,2.82,2.82,0,0,0,1,.64,5.29,5.29,0,0,1-1.77,3.54,4.25,4.25,0,0,0-1.52,3.12,4.94,4.94,0,0,0,1.43,3.73,4.82,4.82,0,0,0,6.81,0,4.63,4.63,0,0,0,1.11-1.72l0,0a6.9,6.9,0,0,0-.3-4.5,31,31,0,0,1-1.88,3.56l.66.28a3.09,3.09,0,0,1-.77,1.21,3.2,3.2,0,0,1-4.52,0,3.43,3.43,0,0,1-1-2.52,2.65,2.65,0,0,1,.94-1.95,7,7,0,0,0,2.37-4.74,2.81,2.81,0,0,0,1.18-.68,2.73,2.73,0,0,0,0-3.84,2.83,2.83,0,0,0-1-.62h0V48.79a2.06,2.06,0,0,0-.13-2.53,2.09,2.09,0,0,0-2.94-.18L81.57,90.63l-14.11,3.1-8.28-5.41a9.22,9.22,0,0,0-9.71-3.15l-.11,0a7.54,7.54,0,0,0-2.24,1.08,7.93,7.93,0,0,0-1.56,1.42,14.7,14.7,0,0,0-1.9,3.42l-3.25,7.12c-1.09,2.38-2.06,4.83-3.07,7.32-.5,1.24-1,2.52-1.48,3.85l-.72,2.19L34.75,113l-.12.46c-.06.3-.12.61-.17.91a14.15,14.15,0,0,0-.17,1.83v.15c0,.21,0,.43,0,.65A7.79,7.79,0,0,0,42.48,124.38Zm91,8a1.11,1.11,0,0,1,.77-.31,1.06,1.06,0,0,1,.78.32,1.1,1.1,0,0,1,0,1.55,1.13,1.13,0,0,1-1.55,0,1.06,1.06,0,0,1-.32-.78A1.14,1.14,0,0,1,133.43,132.42Z"/></g></g></svg>