<svg xmlns="http://www.w3.org/2000/svg" width="186" height="186" viewBox="0 0 186 186"><defs><style>.cls-1{fill:#f1f1f1;}.cls-2{fill:#03b3d9;}</style></defs><g id="レイヤー_2" data-name="レイヤー 2"><g id="レイヤー_1-2" data-name="レイヤー 1"><circle class="cls-1" cx="93" cy="93" r="93"/><g id="_01" data-name="01"><path class="cls-2" d="M94.24,72.19l-1.82,3.22a3.18,3.18,0,0,0,4.46,4.26l11.91-7.47h31.53a8,8,0,0,0,8-8V33.42a8,8,0,0,0-8-8H94.65a8,8,0,0,0-8,8V64.25A8,8,0,0,0,94.24,72.19ZM89.88,33.42a4.76,4.76,0,0,1,4.77-4.76h45.67a4.77,4.77,0,0,1,4.77,4.76V64.25A4.77,4.77,0,0,1,140.32,69H107.87L95.19,77l4.5-8h-5a4.76,4.76,0,0,1-4.77-4.76Z"/><circle class="cls-2" cx="103.94" cy="48.7" r="3.58"/><path class="cls-2" d="M117.48,52.29a3.59,3.59,0,1,0-3.58-3.59A3.59,3.59,0,0,0,117.48,52.29Z"/><circle class="cls-2" cx="131.03" cy="48.7" r="3.58"/></g><g id="_01-2" data-name="01"><path class="cls-2" d="M79.34,80.14V54.54a6.61,6.61,0,0,0-6.6-6.6H34.81a6.61,6.61,0,0,0-6.6,6.6v25.6a6.61,6.61,0,0,0,6.6,6.6H61L70.88,93a2.65,2.65,0,0,0,3.71-3.54l-1.51-2.68A6.61,6.61,0,0,0,79.34,80.14Zm-2.65,0a4,4,0,0,1-4,4H68.55l3.74,6.62L61.76,84.09H34.81a4,4,0,0,1-4-4V54.54a4,4,0,0,1,4-3.95H72.74a4,4,0,0,1,4,3.95Z"/><circle class="cls-2" cx="65.02" cy="67.23" r="2.98"/><path class="cls-2" d="M53.77,70.21a3,3,0,1,1,3-3A3,3,0,0,1,53.77,70.21Z"/><circle class="cls-2" cx="42.53" cy="67.23" r="2.98"/></g><g id="_01-3" data-name="01"><path class="cls-2" d="M111.53,104.56l2.26-4a3.95,3.95,0,0,0-5.54-5.28L93.5,104.55H54.41a9.87,9.87,0,0,0-9.86,9.86v38.2a9.87,9.87,0,0,0,9.86,9.86H111a9.87,9.87,0,0,0,9.86-9.86v-38.2A9.88,9.88,0,0,0,111.53,104.56Zm5.4,48.05a5.9,5.9,0,0,1-5.91,5.91H54.41a5.91,5.91,0,0,1-5.91-5.91v-38.2a5.92,5.92,0,0,1,5.91-5.91H94.63l15.72-9.87-5.58,9.87H111a5.91,5.91,0,0,1,5.91,5.91Z"/><circle class="cls-2" cx="99.51" cy="133.68" r="4.44"/><path class="cls-2" d="M82.72,129.23a4.45,4.45,0,1,0,4.44,4.45A4.45,4.45,0,0,0,82.72,129.23Z"/><circle class="cls-2" cx="65.93" cy="133.68" r="4.44"/></g><g id="_22" data-name="22"><path d="M82.3,120a36.53,36.53,0,0,1,4.21,1.25,14.7,14.7,0,0,0,4.61.86,11.34,11.34,0,0,0,3.09-.44,40.42,40.42,0,0,0,4-1.44l.19-.07.4-.16a12.11,12.11,0,0,1,4.18-.91,7,7,0,0,1,1.19.1,32.3,32.3,0,0,1,4.07,1,15.6,15.6,0,0,0,4.37.74,11.8,11.8,0,0,0,2.9-.38,21.71,21.71,0,0,0,3-1.11,11.5,11.5,0,0,1,2.52-.82,5.24,5.24,0,0,1,.86-.07,7.92,7.92,0,0,1,2.19.37c.78.22,1.63.52,2.64.76a16.24,16.24,0,0,0,3.9.49,18.82,18.82,0,0,0,4.69-.67c1.48-.37,3-.82,4.7-1.18a4.87,4.87,0,0,1,1-.11,3.8,3.8,0,0,1,1.48.32c.55.21,1.24.53,2.18.81a6.82,6.82,0,0,0,1.88.31,4.29,4.29,0,0,0,2.26-.67,18.39,18.39,0,0,1,1.73-1,4.69,4.69,0,0,1,2-.46,12.67,12.67,0,0,1,4.13,1,15.89,15.89,0,0,0,5.11,1.16h.06a7.5,7.5,0,0,0,2.23-.42,5.05,5.05,0,0,1,1.5-.31h.29a4.06,4.06,0,0,1,1.32.57,8.79,8.79,0,0,0,.88.47,3,3,0,0,0,1.24.28,2.74,2.74,0,0,0,1.58-.52,5.39,5.39,0,0,0,1.31-1.37,1.26,1.26,0,1,0-2.06-1.46,3.2,3.2,0,0,1-.69.76l-.14.07-.23-.07c-.23-.1-.59-.33-1-.58a5.26,5.26,0,0,0-1.8-.64,4.87,4.87,0,0,0-.65-.05,7.5,7.5,0,0,0-2.23.42q-.48.15-.87.24l.44-.8a7.77,7.77,0,0,0,.88-2.15,5.33,5.33,0,0,0,.08-1,14.59,14.59,0,0,0-1.21-4.5,11.18,11.18,0,0,0-1.26-2.84,6.62,6.62,0,0,0-2.92-2.48,25.8,25.8,0,0,0-4-1.25l-.2-.06a1.28,1.28,0,0,0,0-.7,13.2,13.2,0,0,1-.56-4A8.19,8.19,0,0,1,154,95a1.25,1.25,0,0,0-.4-1.37c-2.35-1.9-4.77-3.66-7.18-5.39,0-.09.08-.19.1-.25l0-.33c0-.17,0-.22,0-.26a1.24,1.24,0,0,0-.39-1.05c-1.27-6.23-3-12.45-3.41-18.78a1.27,1.27,0,0,0-.68-1,3.58,3.58,0,0,0-1.68-.42h-.21A1.27,1.27,0,0,0,139,67.36c0,3.73-.37,7.58-.37,11.49,0,1.09,0,2.18.11,3.27l-.35-.31A15,15,0,0,0,133,78.53c-4.77-1.45-10-2.15-14.6-3.32a7.66,7.66,0,0,0-1.8-.23,6.9,6.9,0,0,0-3.92,1.28,23,23,0,0,0-4.1,4.16,12.39,12.39,0,0,1-3.69,3.29,1.19,1.19,0,0,0-.44.36c-1.79-.64-3.59-1.27-5.37-1.95-1.07-.4-2.24-1-3.5-1.52a10.7,10.7,0,0,0-4.12-1,6.63,6.63,0,0,0-2,.29,5.15,5.15,0,0,0-3.31,2.84,9.38,9.38,0,0,0-.69,3.88c0,1,.08,2,.13,2.86a16.27,16.27,0,0,0,.48,2.65c.94,3.9,3.1,10.71,5.27,16.61,1.09,2.95,2.17,5.67,3.11,7.68a23.25,23.25,0,0,0,1.12,2.12c-.69.27-1.37.51-2,.7a9.19,9.19,0,0,1-2.42.34,12.2,12.2,0,0,1-3.84-.74,40.25,40.25,0,0,0-4.48-1.32,1.26,1.26,0,1,0-.5,2.48Zm58.82-41.17c0-1.24,0-2.49.09-3.75.69,3.78,1.58,7.47,2.33,11.07l-.74-.52c-.46-.33-.91-.71-1.37-1.1,0,0,0-.09,0-.14A42.68,42.68,0,0,1,141.12,78.85Zm-29.38,1.77a13.45,13.45,0,0,1,2.38-2.27,4.24,4.24,0,0,1,2.49-.84,4.71,4.71,0,0,1,1.18.15c4.82,1.21,10,1.91,14.49,3.28a12.67,12.67,0,0,1,4.41,2.78c1.47,1.27,2.95,2.75,4.64,4,3.39,2.45,6.82,4.85,10.08,7.45a13.83,13.83,0,0,0-.2,2.2,18.23,18.23,0,0,0,.44,4,204.86,204.86,0,0,1-20.94-7.64c-7.68-3.23-15.56-5.82-23.35-8.54A28.48,28.48,0,0,0,111.74,80.62ZM88.45,83.81a2.57,2.57,0,0,1,1.76-1.47,4.19,4.19,0,0,1,1.26-.19,8.5,8.5,0,0,1,3.16.78C95.76,83.4,97,84,98.2,84.48c10.52,4,21.29,7.19,31.53,11.49a189.5,189.5,0,0,0,24.13,8.6A16.6,16.6,0,0,1,158,106c-.19,0-.36,0-.56,0-3.84,0-9.32-1.26-13.21-2.16-10.16-2.34-20.28-5.46-30.45-8.19a87.71,87.71,0,0,1-15.28-6.06c-.63-.29-1.64-.9-2.72-1.44a8.36,8.36,0,0,0-3.46-1.06l-.47,0a4.08,4.08,0,0,0-2,.93,7,7,0,0,0-1.62,2.06,6.4,6.4,0,0,1-.12-.79c-.05-.91-.12-1.84-.12-2.72A7.17,7.17,0,0,1,88.45,83.81Zm2.1,14.79c-.47-1.5-.89-2.91-1.26-4.19a1.24,1.24,0,0,0,.45-.91A5.38,5.38,0,0,1,90.61,91a4.33,4.33,0,0,1,.85-1,1.62,1.62,0,0,1,.76-.38h.11a6.43,6.43,0,0,1,2.33.8c1,.49,2,1.07,2.76,1.46a90.24,90.24,0,0,0,15.72,6.22c10.11,2.71,20.26,5.84,30.53,8.21,3.92.9,9.44,2.22,13.78,2.23a16.37,16.37,0,0,0,2-.12,1.39,1.39,0,0,0,.36-.12c.14.33.28.69.42,1.13a14.28,14.28,0,0,1,1.1,3.75l0,.5a6.38,6.38,0,0,1-.7,1.58l-.51.92a4.82,4.82,0,0,0-.31.69c-.73-.19-1.49-.45-2.27-.73a15.46,15.46,0,0,0-5-1.14,7.26,7.26,0,0,0-3.14.71,21.53,21.53,0,0,0-1.92,1.12,1.67,1.67,0,0,1-1,.32,4.28,4.28,0,0,1-1.17-.21c-.74-.21-1.31-.48-2-.73a6.4,6.4,0,0,0-2.39-.5,7.4,7.4,0,0,0-1.49.17c-1.87.38-3.41.85-4.81,1.2a16.27,16.27,0,0,1-4.07.59,14.06,14.06,0,0,1-3.31-.41c-.85-.2-1.66-.48-2.53-.74a10.29,10.29,0,0,0-2.89-.46,8.12,8.12,0,0,0-1.27.1,13.17,13.17,0,0,0-3.09,1,20.59,20.59,0,0,1-2.62,1,8.71,8.71,0,0,1-2.27.3,13.06,13.06,0,0,1-3.67-.64,35.71,35.71,0,0,0-4.36-1.11,9.86,9.86,0,0,0-1.6-.13,14.34,14.34,0,0,0-5,1.06l0,0A37.42,37.42,0,0,1,95.28,112C93.71,108.06,91.94,103,90.55,98.6Z"/><path d="M100.22,129.9a69.82,69.82,0,0,1,12.48,1.37,10.12,10.12,0,0,0,1.74.17A9.2,9.2,0,0,0,117,131c.78-.23,1.5-.49,2.39-.73a12.17,12.17,0,0,1,2.42-.18,5.69,5.69,0,0,0,3.18-.89,1.26,1.26,0,1,0-1.47-2,3.32,3.32,0,0,1-1.81.42,13.61,13.61,0,0,0-3,.26c-1,.27-1.78.55-2.45.74a6.13,6.13,0,0,1-1.89.31,7.21,7.21,0,0,1-1.3-.12,71.65,71.65,0,0,0-12.92-1.42c-1,0-2.11,0-3.21.11a1.26,1.26,0,0,0,.17,2.52C98.22,129.93,99.23,129.9,100.22,129.9Z"/><path d="M144.6,131.62a14.76,14.76,0,0,0-4.53-1,6.54,6.54,0,0,0-1.31.13,3.8,3.8,0,0,0-1,.41c-.47.25-1,.57-1.41.86a7,7,0,0,0-.57.42l-.25.23-.18.22a1.28,1.28,0,0,0-.22.73,1.36,1.36,0,0,0,.15.61,1.33,1.33,0,0,0,.69.59,1.36,1.36,0,0,0,.45.08,2,2,0,0,0,.45-.07l.27-.1a1.22,1.22,0,0,0,.67-.65c.27-.18.6-.39.89-.56l.45-.24.13-.06a3.8,3.8,0,0,1,.77-.07,12.63,12.63,0,0,1,3.73.83,19,19,0,0,0,4.36,1.11,6.52,6.52,0,0,0,.76,0c2.19,0,4.17-.63,5.76-.61l.5,0h0a5.5,5.5,0,0,1,1.19.29,5.65,5.65,0,0,0,1.67.34,2.94,2.94,0,0,0,.81-.12,1.26,1.26,0,0,0-.7-2.42H158a3.46,3.46,0,0,1-.91-.22,7.38,7.38,0,0,0-1.75-.39h0l-.7,0c-2.13,0-4.09.63-5.76.61l-.55,0A18,18,0,0,1,144.6,131.62Z"/><path d="M149.42,126.69a7.79,7.79,0,0,0,2.71.36c.65,0,1.31,0,2,0a9.27,9.27,0,0,1,2.46.25,13.09,13.09,0,0,0,3.64.76,5.65,5.65,0,0,0,3-.91,1.26,1.26,0,0,0-1.34-2.14,2.94,2.94,0,0,1-1.69.52,11.25,11.25,0,0,1-2.93-.65,11.18,11.18,0,0,0-3.17-.35l-2,0a5.87,5.87,0,0,1-1.79-.18,1.25,1.25,0,0,0-1.63.71A1.26,1.26,0,0,0,149.42,126.69Z"/><path d="M126.6,81.77a37.42,37.42,0,0,0-5.08-1.12c-.55-.11-1.74-.32-2.78-.55-.5-.11-1-.23-1.25-.32l0,0a1.25,1.25,0,0,0-1.77-.2,1.3,1.3,0,0,0-.52,1.06,1.36,1.36,0,0,0,.62,1.15,2.58,2.58,0,0,0,.61.32,19,19,0,0,0,2.48.63c.89.19,1.75.34,2.13.42a34.86,34.86,0,0,1,4.74,1,1.26,1.26,0,1,0,.84-2.38Z"/><path d="M125.14,86.41a27.28,27.28,0,0,0-5.81-1.84,38.32,38.32,0,0,1-5.86-1.7,1.26,1.26,0,0,0-1,2.33A41.22,41.22,0,0,0,118.74,87,25.79,25.79,0,0,1,124,88.66a1.26,1.26,0,0,0,1.15-2.25Z"/><path d="M147,97.75a1.26,1.26,0,1,0,1.39-2.11c-4.41-2.92-11.2-6.82-15.28-9.92a1.27,1.27,0,0,0-1.53,2C135.92,91,142.73,94.89,147,97.75Z"/></g></g></g></svg>