<svg xmlns="http://www.w3.org/2000/svg" width="186" height="186" viewBox="0 0 186 186"><defs><style>.cls-1{fill:#f1f1f1;}.cls-2{fill:#03b3d9;}.cls-3{fill:#231815;}</style></defs><g id="レイヤー_2" data-name="レイヤー 2"><g id="レイヤー_1-2" data-name="レイヤー 1"><circle class="cls-1" cx="93" cy="93" r="93"/><path class="cls-2" d="M45.82,113.41h9.47a2,2,0,0,0,1.46-.67,2.36,2.36,0,0,0,.22-.38L51.55,93.69Zm5.92-71A8.42,8.42,0,1,0,43.32,34,8.42,8.42,0,0,0,51.74,42.44ZM61,58.23,78.16,27.31a3.16,3.16,0,1,0-5.68-2.78l-14.22,22h0l-9.06,0a9.57,9.57,0,0,0-7.09,2.88L35,56l-2.66-4.05s-1.69-4.09-4.27-2.79-.52,5-.52,5L30.79,63a4.33,4.33,0,0,0,3,2.23c.83.13,1.77.1,3.22-1.31l6-4.17-.89,13.14-7.55,42.07a3.17,3.17,0,0,0,6.33,0L51.55,78.24l10.66,36.68a3.17,3.17,0,0,0,6.33,0l-7.68-43.1Zm19.26,41.85h-10l2.37,13.33h7.63a1.94,1.94,0,0,0,1.45-.67,2.43,2.43,0,0,0,.6-1.61v-8.76a2.45,2.45,0,0,0-.6-1.62A1.94,1.94,0,0,0,80.28,100.08ZM116.9,61.6H91.57a2,2,0,0,0-1.45.67,2.45,2.45,0,0,0-.6,1.62V80.65H66.82l2.64,14.86h17v15.62a2.43,2.43,0,0,0,.6,1.61,2,2,0,0,0,1.46.67h28.4a1.94,1.94,0,0,0,1.45-.67,2.43,2.43,0,0,0,.6-1.61V63.89a2.45,2.45,0,0,0-.6-1.62A1.94,1.94,0,0,0,116.9,61.6ZM118.35,31a1.94,1.94,0,0,0-1.45-.67H91.57a2,2,0,0,0-1.45.67,2.47,2.47,0,0,0-.6,1.62V54a2.47,2.47,0,0,0,.6,1.62,2,2,0,0,0,1.45.67H116.9a1.94,1.94,0,0,0,1.45-.67A2.47,2.47,0,0,0,119,54V32.65A2.47,2.47,0,0,0,118.35,31Z"/><path class="cls-3" d="M51.74,42.44A8.42,8.42,0,1,0,43.32,34,8.42,8.42,0,0,0,51.74,42.44Z"/><path class="cls-3" d="M61,58.23,78.16,27.31a3.16,3.16,0,1,0-5.68-2.78l-14.22,22h0l-9.06,0a9.57,9.57,0,0,0-7.09,2.88L35,56l-2.66-4.05s-1.69-4.09-4.27-2.79-.52,5-.52,5L30.79,63a4.33,4.33,0,0,0,3,2.23c.83.13,1.77.1,3.22-1.31l6-4.17-.89,13.14-7.55,42.07a3.17,3.17,0,0,0,6.33,0L51.55,78.24l10.66,36.68a3.17,3.17,0,0,0,6.33,0l-7.68-43.1Z"/><g id="_22" data-name="22"><path d="M69,137.83a37,37,0,0,1,4.2,1.25,14.71,14.71,0,0,0,4.62.86,11.34,11.34,0,0,0,3.09-.44c1.44-.4,2.74-.95,4-1.43l.18-.08.41-.16a12,12,0,0,1,4.17-.91,7.11,7.11,0,0,1,1.2.1,32.3,32.3,0,0,1,4.07,1,15.6,15.6,0,0,0,4.37.74,11.86,11.86,0,0,0,2.9-.38,23,23,0,0,0,3-1.1,11,11,0,0,1,2.52-.83,5.36,5.36,0,0,1,.87-.07,8,8,0,0,1,2.19.37c.77.22,1.63.52,2.64.77a16.71,16.71,0,0,0,3.9.48,18.81,18.81,0,0,0,4.68-.67c1.49-.37,3-.82,4.71-1.18a4.78,4.78,0,0,1,1-.11,3.85,3.85,0,0,1,1.49.32,22.31,22.31,0,0,0,2.18.81,6.81,6.81,0,0,0,1.87.31,4.3,4.3,0,0,0,2.27-.67,18.39,18.39,0,0,1,1.73-1,4.62,4.62,0,0,1,2-.46,12.78,12.78,0,0,1,4.14,1,15.89,15.89,0,0,0,5.11,1.16h.05a7.57,7.57,0,0,0,2.24-.42,5.05,5.05,0,0,1,1.5-.31l.28,0a3.53,3.53,0,0,1,1.32.57c.26.14.54.31.88.46a3.06,3.06,0,0,0,1.24.28,2.77,2.77,0,0,0,1.59-.52,5.2,5.2,0,0,0,1.3-1.37,1.26,1.26,0,1,0-2.06-1.46,3,3,0,0,1-.68.76l-.15.07-.23-.07c-.22-.1-.58-.33-1.05-.58a5.2,5.2,0,0,0-1.79-.64,4.87,4.87,0,0,0-.65,0,7.5,7.5,0,0,0-2.23.42c-.33.1-.61.18-.87.24.13-.24.28-.52.44-.8a8.07,8.07,0,0,0,.87-2.15,5.36,5.36,0,0,0,.09-1c0-1.87-.87-3.31-1.21-4.5a11.92,11.92,0,0,0-1.26-2.84,6.65,6.65,0,0,0-2.93-2.48,25.8,25.8,0,0,0-4-1.25l-.19-.06a1.2,1.2,0,0,0,0-.7,13.84,13.84,0,0,1-.56-4,8.5,8.5,0,0,1,.27-2.34,1.26,1.26,0,0,0-.41-1.37c-2.35-1.9-4.77-3.66-7.18-5.39a.92.92,0,0,0,.1-.25l0-.33a1,1,0,0,0,0-.26,1.24,1.24,0,0,0-.39-1c-1.26-6.23-3-12.45-3.4-18.78a1.26,1.26,0,0,0-.69-1,3.55,3.55,0,0,0-1.68-.42h-.2a1.26,1.26,0,0,0-1.21,1.25c0,3.73-.37,7.58-.37,11.49,0,1.09,0,2.18.1,3.27l-.35-.31a15,15,0,0,0-5.33-3.28c-4.77-1.45-10-2.15-14.6-3.32a7.66,7.66,0,0,0-1.8-.23,6.87,6.87,0,0,0-3.92,1.28,23.1,23.1,0,0,0-4.11,4.16,12.36,12.36,0,0,1-3.68,3.29,1,1,0,0,0-.44.36c-1.8-.64-3.6-1.27-5.37-1.95-1.07-.4-2.24-1-3.5-1.52a10.79,10.79,0,0,0-4.13-1,7.06,7.06,0,0,0-2,.29,5.17,5.17,0,0,0-3.31,2.84,9.36,9.36,0,0,0-.68,3.88c0,1,.08,2,.13,2.86A16.27,16.27,0,0,0,72.8,110a173.82,173.82,0,0,0,5.27,16.61c1.08,3,2.17,5.67,3.11,7.68a21,21,0,0,0,1.12,2.12c-.69.27-1.37.51-2,.7a9.25,9.25,0,0,1-2.42.34,12.2,12.2,0,0,1-3.84-.74,40.25,40.25,0,0,0-4.48-1.32,1.26,1.26,0,1,0-.5,2.48Zm58.81-41.17c0-1.24,0-2.49.09-3.75.69,3.79,1.58,7.47,2.33,11.07l-.73-.52c-.46-.33-.92-.71-1.38-1.1a.66.66,0,0,0,0-.14A42.68,42.68,0,0,1,127.83,96.66ZM98.45,98.43a13.15,13.15,0,0,1,2.39-2.27,4.2,4.2,0,0,1,2.49-.84,4.71,4.71,0,0,1,1.18.15c4.81,1.21,10,1.91,14.48,3.28a12.8,12.8,0,0,1,4.42,2.78c1.47,1.27,2.94,2.75,4.63,4,3.39,2.45,6.83,4.86,10.09,7.45a12.76,12.76,0,0,0-.2,2.2,17.07,17.07,0,0,0,.44,3.95,205,205,0,0,1-21-7.64c-7.68-3.23-15.56-5.82-23.35-8.54A28,28,0,0,0,98.45,98.43Zm-23.28,3.19a2.57,2.57,0,0,1,1.75-1.47,4.23,4.23,0,0,1,1.26-.19,8.59,8.59,0,0,1,3.17.78c1.13.47,2.31,1.08,3.56,1.55,10.53,4,21.29,7.19,31.54,11.49a189,189,0,0,0,24.13,8.6,16.75,16.75,0,0,1,4.15,1.44c-.2,0-.36,0-.57,0-3.84,0-9.31-1.25-13.2-2.16-10.16-2.34-20.28-5.46-30.45-8.19a87.81,87.81,0,0,1-15.29-6.06c-.62-.29-1.64-.9-2.72-1.44a8.27,8.27,0,0,0-3.45-1.06l-.48,0a4,4,0,0,0-2,.93A7,7,0,0,0,75,108a6,6,0,0,1-.11-.79c0-.91-.13-1.84-.13-2.72A7,7,0,0,1,75.17,101.62Zm2.1,14.8c-.47-1.51-.9-2.92-1.26-4.2a1.23,1.23,0,0,0,.44-.91,5.5,5.5,0,0,1,.87-2.46,4.35,4.35,0,0,1,.86-1,1.6,1.6,0,0,1,.75-.38h.12a6.43,6.43,0,0,1,2.33.8c1,.49,2,1.07,2.75,1.46a90.87,90.87,0,0,0,15.72,6.22c10.11,2.71,20.26,5.84,30.54,8.21,3.91.9,9.44,2.22,13.77,2.23a16.25,16.25,0,0,0,2-.12,1.46,1.46,0,0,0,.37-.12c.14.33.28.69.42,1.13.49,1.52,1.12,2.76,1.09,3.75l0,.5a6.51,6.51,0,0,1-.71,1.58c-.17.32-.35.63-.5.92a5.37,5.37,0,0,0-.31.69c-.74-.19-1.49-.45-2.27-.73a15.25,15.25,0,0,0-5-1.13,7.1,7.1,0,0,0-3.13.7c-.9.44-1.51.88-1.93,1.12a1.65,1.65,0,0,1-1,.32,4.34,4.34,0,0,1-1.17-.21c-.74-.21-1.31-.48-2-.73a6.36,6.36,0,0,0-2.39-.5,7.31,7.31,0,0,0-1.48.17c-1.88.39-3.41.85-4.81,1.2a16.27,16.27,0,0,1-4.07.59,14.08,14.08,0,0,1-3.32-.41c-.85-.2-1.65-.48-2.52-.74a10.29,10.29,0,0,0-2.89-.46,8,8,0,0,0-1.27.1,13.41,13.41,0,0,0-3.1,1,19.94,19.94,0,0,1-2.61,1,8.71,8.71,0,0,1-2.27.3,12.94,12.94,0,0,1-3.67-.64,36.39,36.39,0,0,0-4.37-1.11,9.77,9.77,0,0,0-1.6-.13,14.51,14.51,0,0,0-5,1.06l0,0A37.42,37.42,0,0,1,82,129.77C80.42,125.87,78.66,120.81,77.27,116.42Z"/><path d="M86.94,147.71a69.62,69.62,0,0,1,12.47,1.37,8.7,8.7,0,0,0,4.35-.24c.78-.23,1.5-.49,2.38-.73a12.28,12.28,0,0,1,2.43-.18,5.72,5.72,0,0,0,3.18-.89,1.27,1.27,0,0,0,.29-1.76,1.26,1.26,0,0,0-1.76-.29,3.39,3.39,0,0,1-1.82.42,13.48,13.48,0,0,0-3,.26c-1,.27-1.79.55-2.45.74a6.2,6.2,0,0,1-1.9.31,7.36,7.36,0,0,1-1.3-.12,71.54,71.54,0,0,0-12.91-1.42c-1,0-2.12,0-3.22.11a1.27,1.27,0,0,0-1.17,1.35,1.26,1.26,0,0,0,1.35,1.17C84.94,147.74,86,147.71,86.94,147.71Z"/><path d="M131.31,149.43a14.76,14.76,0,0,0-4.52-1,6.4,6.4,0,0,0-1.31.13,4.27,4.27,0,0,0-1,.41,14.94,14.94,0,0,0-1.4.86,4.69,4.69,0,0,0-.57.42l-.26.23-.17.22a1.34,1.34,0,0,0-.23.73,1.26,1.26,0,0,0,.16.61,1.32,1.32,0,0,0,.68.59,1.37,1.37,0,0,0,.46.08,2.1,2.1,0,0,0,.45-.07l.26-.1a1.19,1.19,0,0,0,.67-.65c.27-.18.6-.39.9-.56l.45-.24.13-.06a3.74,3.74,0,0,1,.77-.07,12.69,12.69,0,0,1,3.73.83,19.26,19.26,0,0,0,4.36,1.12c.25,0,.51,0,.76,0,2.19,0,4.17-.63,5.75-.61l.5,0h0a5.57,5.57,0,0,1,1.2.29,5.51,5.51,0,0,0,1.67.34,2.88,2.88,0,0,0,.8-.12,1.26,1.26,0,1,0-.7-2.42h-.1a3.37,3.37,0,0,1-.91-.22,7.47,7.47,0,0,0-1.76-.39h0l-.71,0c-2.12,0-4.08.63-5.75.61l-.56,0A18,18,0,0,1,131.31,149.43Z"/><path d="M136.14,144.5a7.75,7.75,0,0,0,2.71.36l2,0a9.27,9.27,0,0,1,2.46.25,13,13,0,0,0,3.63.76,5.65,5.65,0,0,0,3-.91,1.27,1.27,0,0,0-1.35-2.14,2.94,2.94,0,0,1-1.69.52,11.19,11.19,0,0,1-2.92-.65,11.22,11.22,0,0,0-3.17-.35l-2,0a5.78,5.78,0,0,1-1.79-.18,1.26,1.26,0,0,0-1.64.71A1.27,1.27,0,0,0,136.14,144.5Z"/><path d="M113.31,99.58a37.62,37.62,0,0,0-5.07-1.12c-.55-.11-1.74-.32-2.78-.55-.5-.11-1-.23-1.26-.32a0,0,0,0,0,0,0,1.25,1.25,0,0,0-1.77-.2,1.3,1.3,0,0,0-.34.38,1.35,1.35,0,0,0-.19.68,1.39,1.39,0,0,0,.16.63,1.53,1.53,0,0,0,.46.52,2.63,2.63,0,0,0,.62.32,18.79,18.79,0,0,0,2.47.63c.89.19,1.75.34,2.14.42a35.19,35.19,0,0,1,4.74,1,1.26,1.26,0,1,0,.83-2.38Z"/><path d="M111.85,104.22a27.28,27.28,0,0,0-5.81-1.84,38.18,38.18,0,0,1-5.85-1.7,1.26,1.26,0,0,0-1,2.33,42.09,42.09,0,0,0,6.25,1.83,25.22,25.22,0,0,1,5.25,1.63,1.26,1.26,0,1,0,1.14-2.25Z"/><path d="M133.74,115.56a1.27,1.27,0,0,0,1.4-2.11c-4.41-2.92-11.2-6.82-15.29-9.91a1.26,1.26,0,1,0-1.52,2C122.64,108.8,129.44,112.7,133.74,115.56Z"/></g></g></g></svg>