<svg xmlns="http://www.w3.org/2000/svg" width="425.58" height="425.57" viewBox="0 0 425.58 425.57"><defs><style>.cls-1{fill:#0074b6;}</style></defs><g id="レイヤー_2" data-name="レイヤー 2"><g id="レイヤー_1-2" data-name="レイヤー 1"><path class="cls-1" d="M40.78,188.4c-1-6.57-1.87-12.83-2.71-18.84a45.82,45.82,0,0,1,9.4-12.51c1,6.79,2,13.84,3.27,21.17A59.12,59.12,0,0,0,40.78,188.4Zm101.9,58.38c-32,11.32-59.21,20.63-78,26.78-1.34-3.14-2.63-6.3-3.85-9.45l2.56-.95a364.87,364.87,0,0,1-15.76-52.71c-.92.71-1.79,1.4-2.59,2.08-1.39-6.41-2.54-12.6-3.53-18.55a67.75,67.75,0,0,1,10.93-10.23,472.43,472.43,0,0,0,19.91,76.11C89.74,253.47,112.78,245,139,235.45Q140.82,241.14,142.68,246.78Zm-39-2.58-10.76,4c-6-16.17-11.21-32.5-15.49-48.1q-2.11,1.06-4.14,2.12c2.49,16.26,5.76,33,9.8,49.51L74.19,255a517.41,517.41,0,0,1-17.47-75.85c-1.07.76-2.09,1.52-3.08,2.27-1.22-6.41-2.29-12.62-3.26-18.62,1.15-1,2.35-2,3.62-3.05q-.6-4.93-1.14-9.69a142.82,142.82,0,0,1,14.21-10.4c.19,3.37.4,6.82.65,10.33,2.13-1.36,4.35-2.72,6.64-4.08q1.9,9.44,4.32,19.66-4.86,2.67-9.27,5.32.69,7.06,1.57,14.36c5-2.83,10.44-5.71,16.26-8.63A655.18,655.18,0,0,0,103.71,244.2Zm14.58-107.26c-9.35,4-18.31,8.18-26.63,12.39l0,.13q-6.15,3.1-11.82,6.24Q77.25,144.86,75.26,135c4.21-2.46,8.66-4.9,13.31-7.28.16,1.32.32,2.67.49,4,8.48-4.35,17.6-8.58,27.12-12.6Q117,127.58,118.29,136.94Zm2.4,20.13c-1.21,8-2.3,16.2-3.26,24.51l6.79-2.86c.91,5.26,1.88,10.6,2.91,16q-4.06,1.65-8,3.28c2.57,12.42,5.47,25.09,8.66,37.63l-10.38,3.84c-4.3-11.95-8.28-24-11.86-35.78-2.72,1.17-5.39,2.31-8,3.45q-2-7.6-3.72-15.06,3.73-1.74,7.64-3.49c.59-8.09,1.32-16.09,2.18-23.91-6.69,3.09-13.07,6.19-19,9.26q-2-7.71-3.74-15c11.32-6.17,24.26-12.36,38.07-18.31C119.44,145.89,120,151.41,120.69,157.07Z"/><path class="cls-1" d="M154.64,128.74c-8.77,3.25-17.44,6.63-25.86,10.1-3.78-7.91-7.21-15.31-10.28-22.14,9.31-3.86,18.95-7.51,28.7-10.92C149.38,112.76,151.88,120.45,154.64,128.74Zm13.65,38.54c-7.39,2.77-14.71,5.58-21.88,8.39-4.66-8.65-9.08-17-13.18-25,8.34-3.41,16.92-6.76,25.61-10C161.78,149.12,165,158,168.29,167.28Zm30.23-57.64q2.28-5,4.47-9.48c-6.11,1.72-12.31,3.54-18.54,5.46-.8,1.68-1.6,3.41-2.41,5.17-9.13,2.92-18.31,6-27.41,9.32,3.5-9,7.05-17.34,10.58-24.61,19.55-5.94,38.86-10.69,56.77-14.36,1.57,3.7,3.19,8,4.86,12.73-1,2.69-2,5.54-3.11,8.53q8.15-2.19,16-4.16c7.5,17.48,15.34,40.44,22.62,65.19-24.48,8.32-51.19,17.78-77.38,27.41-10.37-24.49-20.05-47.88-27.9-67.43C170.86,118.41,184.84,113.79,198.52,109.64ZM174.27,184c5.26,14,10.8,28.52,16.4,42.84l-13.46,4.86c-7.83-13.44-15.54-27-22.81-40.2C160.93,189,167.57,186.5,174.27,184Zm7-49.2q2.06,5.64,4.21,11.58,8.49-3,16.95-5.88c-1.75-3.81-3.47-7.54-5.15-11.16C192,131.12,186.62,132.94,181.28,134.81Zm5.53,60.71c5.4-2,10.83-4,16.25-5.94,2,10,4,20.15,6,30.24l-12.88,4.67C193,214.84,189.87,205.12,186.81,195.52ZM194.46,171q9.38-3.39,18.74-6.67c-1.92-4.19-3.83-8.33-5.71-12.38q-8.82,3-17.7,6.22Zm13.78,16.71c5.22-1.88,10.44-3.76,15.62-5.61,2.38,9.8,4.76,19.77,7.08,29.73l-13.45,4.91C214.41,207,211.31,197.3,208.24,187.71ZM230.06,119q-7.67,2.28-15.53,4.75c1.26,3.69,2.54,7.51,3.83,11.43q8.26-2.68,16.32-5.19Q232.36,124.36,230.06,119Zm14.29,34.63q-2.41-6.33-4.83-12.42Q231,144,222.16,147c1.36,4.19,2.72,8.48,4.1,12.84Q235.41,156.65,244.35,153.67Zm-.74,21.44c3.6,9.27,7.17,18.72,10.63,28.16l-12.44,4.58c-4.32-9.19-8.71-18.4-13.11-27.47Zm20-7c3.85,8.85,7.63,17.89,11.26,27l-12.11,4.48c-4.76-8.74-9.64-17.48-14.57-26.08Q256,170.78,263.6,168.16Z"/><path class="cls-1" d="M317.49,129.08a419.35,419.35,0,0,1,17.9,44.33q-3.22,1.25-6.64,2.54a460.35,460.35,0,0,0-21.11-44.12q-9.08,2.58-19,5.57c7.52,14.51,14.68,30.1,21.14,45.75l-8.35,3.15c-7.84-15.36-16.38-30.73-25.17-45.12l-3.37,1c-3.35-5.35-6.73-10.57-10.11-15.6l3.63-1c-9.95-15.07-20-28.4-29.26-38.61q7.11-1.55,13.92-2.9-3.51-3.61-6.91-6.6c7.36-1.29,14.43-2.42,21.23-3.46a79.53,79.53,0,0,1,6.29,6.21q6.63-1.17,12.91-2.2c8.76,8.92,17.32,21.48,25.2,36l2.55-.62q4,7.22,7.7,15ZM282.7,93.55q-8.58,1.8-17.79,3.92c5.07,7.24,10.18,15.42,15.19,24.24q9.7-2.67,18.66-5A241.28,241.28,0,0,0,282.7,93.55Zm-.07,24.17c-4.51-6.68-9.06-13-13.6-18.67q6.48-1.5,12.64-2.84c3.95,5.7,7.87,12,11.69,18.71Q288.11,116.26,282.63,117.72Zm25.85,47.78c-4.39-9-9-17.83-13.78-26.35q5.15-1.54,10-3c4.31,8.5,8.43,17.36,12.32,26.36ZM322.39,108q-5.29,1.17-11,2.49C302.14,94.67,292,81.37,281.66,73.06c5.64-.85,11.09-1.67,16.42-2.54C307,78.76,315.23,92.06,322.39,108Zm42.24,53.65c-6.9,2.77-15.58,6.16-25.87,10.11-7-20.62-15.52-41.08-25.18-58.69,12.91-3.08,24.27-5.47,34.42-7.48C355.13,122.64,360.6,142.08,364.63,161.67Zm-18.41-58.58c-2.76.54-5.59,1.1-8.52,1.7-9.26-15.07-20-27.84-31.61-35.62,5-.88,9.85-1.83,14.78-2.94C330.63,74.65,339.14,87.77,346.22,103.09Zm-13.13,22.3c4.3,10.62,8.16,21.92,11.55,33.45l11-3.89a308.58,308.58,0,0,0-12.11-32.17Q338.55,124,333.09,125.39Z"/><path class="cls-1" d="M183.78,302.23q-9.33,2.77-18.28,5.26c5.58,24.25,11.66,42.34,17.52,48.22q-4.49.42-8.8.8c-10.07-4.72-21.17-20.95-31.69-42.93-11.39,2.87-22,5.33-31.87,7.45,5.48,9.67,11.29,18.06,17.29,24.51l-11.21,1.83a129.26,129.26,0,0,1-22.36-23c-4.13.81-8.1,1.58-12,2.31a182,182,0,0,1-13-19.51c3.59-.78,7.35-1.63,11.31-2.56-3.44-5.67-6.7-11.56-9.74-17.55q9.59-2.68,21.26-6.21c2.5,6.51,5.14,12.87,7.9,19,9.9-2.57,20.78-5.56,32.48-9-2.72-6.86-5.37-14-7.92-21.37,9.86-3.22,20.34-6.71,31.26-10.42,1.36,8,2.78,15.89,4.26,23.42,5.54-1.75,11.2-3.56,16.94-5.43C179.34,285.89,181.57,294.35,183.78,302.23Z"/><path class="cls-1" d="M298.4,269.79a946.34,946.34,0,0,1-99,35.77c-3.85-6.07-7.81-12.53-11.83-19.28C222.81,275,261.31,261,294.62,247,296,254.83,297.29,262.45,298.4,269.79Z"/><path class="cls-1" d="M380,240.41c-2.54,5.67-8.08,11.78-15.93,18,1.17,13,1.92,25.3,2.6,36.9q-3.6,3.08-7.78,6.05c-2.25-10.31-4.73-21.46-7.92-33.67A314.24,314.24,0,0,1,315.38,287q-3.3-8.18-7.17-17.12a420.72,420.72,0,0,0,38-19.28q-2.69-9.12-5.9-18.83c-9.76,6.32-21,12.93-33.07,19.57-3.24-7.83-6.74-15.95-10.45-24.25,35.45-19.71,62.91-37.61,75.89-49.31,1.28,8.68,2.3,17.26,3.13,25.65-3.75,4.52-9.37,9.65-16.62,15.23,1.17,7.38,2.17,14.63,3,21.69,8.32-6,14.22-11.63,17.06-16.65C379.54,229.32,379.75,234.9,380,240.41Z"/><path class="cls-1" d="M212.68,399.11a186.71,186.71,0,1,1,63.8-11.33A185.66,185.66,0,0,1,212.68,399.11Zm.22-371.95a185.89,185.89,0,1,0,78.29,17.48A185.58,185.58,0,0,0,212.9,27.16Z"/><path class="cls-1" d="M212.66,423.51A210.68,210.68,0,0,1,140.75,14.87,210.62,210.62,0,0,1,403.67,301.8a211.16,211.16,0,0,1-191,121.71Zm.25-412.43a202,202,0,1,0,85.08,19A201.66,201.66,0,0,0,212.91,11.08Z"/><rect class="cls-1" x="142.94" y="-1.01" width="3.47" height="53.3" transform="matrix(0.94, -0.34, 0.34, 0.94, -0.04, 51.03)"/><rect class="cls-1" x="-1.01" y="279.17" width="53.3" height="3.47" transform="translate(-94.54 25.71) rotate(-20)"/><rect class="cls-1" x="279.17" y="373.29" width="3.47" height="53.3" transform="translate(-119.85 120.19) rotate(-20)"/><rect class="cls-1" x="373.29" y="142.94" width="53.3" height="3.47" transform="translate(-25.36 145.53) rotate(-20)"/><path class="cls-1" d="M205.23,322.9l-.38,16c-.08,3-1,4.68-3.19,5.47l-1-1.24.08-.26c1.72-.63,2.55-1.76,2.64-4.15l-10.17-11.43,3.38-1.23,6.9,7.77.26-10.37Z"/><path class="cls-1" d="M218.8,318l4.74,13-3.12,1.14-.69-1.91a7.46,7.46,0,0,1-3.84,3.91c-2.3.84-4.06,0-4.94-2.4l-3.52-9.65,3.13-1.13L214,330.5c.48,1.31,1.23,1.77,2.29,1.39a6.23,6.23,0,0,0,2.85-3.2l-3.5-9.59Z"/><path class="cls-1" d="M239.65,325.76c1.12,3.05-1.28,5.22-5.23,6.66-4.43,1.61-6.61,1.1-7.4-1.06a3.41,3.41,0,0,1,.12-2.44,2.66,2.66,0,0,1-1.28-1.54,4.08,4.08,0,0,1,.65-3.57,4.28,4.28,0,0,1-3-2.87c-1.1-3,.63-5.28,3.61-6.37a6.18,6.18,0,0,1,4.12-.23l3.11-2.4.21-.08.83,2.27-2.77,1a5.21,5.21,0,0,1,1.29,2c1.09,3-.63,5.22-3.56,6.29a7.89,7.89,0,0,1-2.63.51,1.6,1.6,0,0,0-.26,1.42c.24.66.75,1,2,.59l5.21-1.9C236.91,323.24,238.9,323.67,239.65,325.76Zm-13-5.21a2.13,2.13,0,0,0,3.14,1.45c1.62-.58,1.9-1.63,1.37-3.09l-.48-1.31c-.53-1.46-1.46-2.18-3.08-1.59s-2,1.77-1.42,3.23Zm10.84,7c-.3-.81-1-1-2.5-.42l-4.46,1.62a6.37,6.37,0,0,1-2.22.46,2.39,2.39,0,0,0,.09,1.35c.5,1.38,2.11,1.63,5.44.42S237.94,328.63,237.54,327.53Z"/><path class="cls-1" d="M247.52,307.5l-.38,16c-.07,3-1,4.68-3.19,5.48l-1-1.24.09-.27c1.71-.62,2.55-1.75,2.64-4.15l-10.17-11.42,3.38-1.23,6.89,7.77.27-10.38Z"/><path class="cls-1" d="M250.58,313.78c-1.59-4.36.14-7.79,3.87-9.15s7.26.16,8.85,4.52-.14,7.79-3.87,9.14S252.16,318.13,250.58,313.78ZM260.66,312l-1.21-3.31c-.95-2.61-2.64-3.24-4.47-2.57s-2.72,2.23-1.77,4.84l1.21,3.34c1,2.6,2.64,3.23,4.47,2.56S261.61,314.58,260.66,312Z"/><path class="cls-1" d="M266.9,313.48l.17-1.48.26-.1a6.73,6.73,0,0,0,4.92.07c1.67-.6,2.28-1.62,1.86-2.77-1.12-3.08-7.79,1-9.59-3.93-.83-2.29.61-4.53,3.66-5.64a7.27,7.27,0,0,1,4.81-.16l-.07,1.48-.26.09a5.6,5.6,0,0,0-4,0c-1.57.57-2.24,1.5-1.9,2.44,1,2.73,8.12-1.22,9.89,3.66,1.07,2.92-.94,5.16-3.9,6.23A8.27,8.27,0,0,1,266.9,313.48Z"/><path class="cls-1" d="M281.16,303.09l.45,1.22c.92,2.53,2.68,3.28,5.12,2.39a5.81,5.81,0,0,0,3.45-3.23l.26-.1,1.15.76a7.46,7.46,0,0,1-4.54,4.11c-4.15,1.51-7.69,0-9.27-4.37s.17-7.79,3.88-9.14,7,.24,8.58,4.52l.17.47Zm-.7-1.93.18.49,6.2-2.25-.18-.5c-1-2.66-2.64-3.38-4.47-2.71S279.49,298.5,280.46,301.16Z"/><path class="cls-1" d="M303.45,291l3.51,9.65-3.12,1.14-3.48-9.55c-.46-1.28-1.2-1.78-2.26-1.39a6.17,6.17,0,0,0-2.87,3.2l3.49,9.6-3.12,1.13-4.75-13L294,290.6l.7,1.9a7.44,7.44,0,0,1,3.86-3.92C300.81,287.76,302.56,288.56,303.45,291Z"/><path class="cls-1" d="M223.18,358.92l.18-1.48.26-.09a6.7,6.7,0,0,0,4.91.07c1.67-.61,2.28-1.63,1.86-2.78-1.12-3.07-7.79,1-9.59-3.92-.83-2.29.61-4.53,3.67-5.64a7.18,7.18,0,0,1,4.8-.16l-.07,1.48-.26.09a5.57,5.57,0,0,0-3.94.05c-1.58.57-2.25,1.49-1.91,2.43,1,2.74,8.12-1.21,9.9,3.67,1.06,2.92-.94,5.15-3.9,6.23A8.24,8.24,0,0,1,223.18,358.92Z"/><path class="cls-1" d="M237.45,348.53l.44,1.23c.92,2.53,2.68,3.28,5.12,2.39a5.82,5.82,0,0,0,3.45-3.24l.26-.09,1.16.76a7.48,7.48,0,0,1-4.55,4.11c-4.15,1.51-7.69,0-9.27-4.37s.17-7.8,3.88-9.15,7,.25,8.58,4.53l.17.47Zm-.71-1.93.18.5,6.2-2.26-.18-.49c-1-2.66-2.64-3.38-4.47-2.72S235.77,343.94,236.74,346.6Z"/><path class="cls-1" d="M259.45,337.63l3.16,8.69-3.12,1.13-.5-1.35a5.14,5.14,0,0,1-3.24,3.07c-2.79,1-5.3,0-6.36-2.89s.41-5.22,3.25-6.26a6.28,6.28,0,0,1,4.07-.21l-.63-1.72c-.67-1.83-1.88-2.15-3.47-1.57a7.31,7.31,0,0,0-3.61,3l-.21.08-1-1.16a10.32,10.32,0,0,1,4.92-3.65C255.8,333.67,258.2,334.21,259.45,337.63Zm-1,6.93-1.24-3.42a4.55,4.55,0,0,0-3.12,0,2.62,2.62,0,0,0-1.67,3.74l.24.65c.64,1.75,2,2.36,3.34,1.86A4,4,0,0,0,258.43,344.56Z"/><path class="cls-1" d="M269.87,328.67l.9,2.45-.2.13a3.29,3.29,0,0,0-1.67.22,4.32,4.32,0,0,0-2.58,3.22l3.31,9.07-3.13,1.14-4.74-13,3.12-1.14.84,2.32a5.75,5.75,0,0,1,3.29-4.18A2.85,2.85,0,0,1,269.87,328.67Z"/><path class="cls-1" d="M281.86,338a5,5,0,0,0,3-3l.25-.09,1.1.81a6.27,6.27,0,0,1-3.93,3.73c-3.81,1.39-7.35-.16-8.92-4.49s.14-7.79,3.94-9.17a6.1,6.1,0,0,1,5.41.33l-.38,1.59-.25.09a4.51,4.51,0,0,0-4.15-.59c-2,.75-2.8,2.53-1.89,5l1.12,3.08C278.09,337.88,279.82,338.75,281.86,338Z"/><path class="cls-1" d="M297.21,322.79l3.52,9.65-3.13,1.14L294.13,324c-.47-1.28-1.21-1.77-2.26-1.39a6.15,6.15,0,0,0-2.88,3.2l3.5,9.6-3.12,1.14-6.65-18.26,3.12-1.14,2.59,7.12a7.45,7.45,0,0,1,3.87-3.91C294.57,319.56,296.33,320.37,297.21,322.79Z"/></g></g></svg>