<svg xmlns="http://www.w3.org/2000/svg" width="529.55" height="426.73" viewBox="0 0 529.55 426.73"><defs><style>.cls-1{isolation:isolate;}.cls-2,.cls-3{fill:none;stroke:#2a2b2b;stroke-miterlimit:10;}.cls-3{stroke-width:2px;}.cls-4,.cls-6{fill:#03b3d9;}.cls-4,.cls-5{mix-blend-mode:multiply;}</style></defs><g class="cls-1"><g id="レイヤー_2" data-name="レイヤー 2"><g id="レイヤー_1-2" data-name="レイヤー 1"><path d="M472.08,335c-.17,2-.17,4.43-.19,6.31a41,41,0,0,0,.08,4.83,2.56,2.56,0,0,1-1.33,2.95c-3.18,1.82-6.19,3.95-9.32,5.86-1.87,1.14-3.9,2-5.74,3.16-1.54,1-2.81,2.41-4.37,3.36-2.95,1.79-6,3.39-9.06,5a38.16,38.16,0,0,1-4,2,3.9,3.9,0,0,1-1.83,0c-.53-.08-1-.37-1.56-.47-3.68-.71-6.67-3-10.11-4.29a24,24,0,0,0-2.92-.66c0,2.6-.06,4.87,0,7.14.06,1.94.36,3.88.38,5.82a2.33,2.33,0,0,1-.93,1.58c-2.51,1.79-5,3.57-7.63,5.21-2,1.27-4.15,2.38-6.28,3.47A71.06,71.06,0,0,0,397,392.54a70.35,70.35,0,0,1-7.82,4.65,19.23,19.23,0,0,1-4.1,1.95,10.06,10.06,0,0,1-6.55-.72c-3.27-1.33-6.58-2.54-9.85-3.89-1.23-.5-1.82.07-1.83,1.09,0,2.87.22,5.74.23,8.62a2.53,2.53,0,0,1-.74,1.88c-1.81,1.31-3.78,2.39-5.63,3.64-1.59,1.08-3.07,2.33-4.66,3.4s-3.31,2-5,3c-4.15,2.58-8.3,5.15-12.42,7.77-1.26.8-2.42,1.75-3.66,2.57a1.35,1.35,0,0,1-1,.15c-3.67-1.2-7.36-2.27-10.67-4.41-1.64-1.06-3.69-1.47-5.5-2.29-1.24-.55-2.39-1.31-3.6-2-1.76-.94-3.6-1.74-5.28-2.8-3.52-2.23-7.58-3-11.37-4.44a32.55,32.55,0,0,1-4.8-2.57c-.32-.19-.46-.86-.48-1.31-.15-5.38-.43-10.77-.35-16.15.1-6.19.61-12.36.8-18.55.08-2.75-.27-5.51-.25-8.26,0-3.45.26-6.9.36-10.35.19-6.05.37-12.1.5-18.15.09-4.39-.05-8.79.23-13.17a5.41,5.41,0,0,1,1.94-3.59c4.65-3.44,10.05-5.63,15.08-8.46,4-2.29,8.19-4.42,12.29-6.63a33.6,33.6,0,0,1,5-2.63,6.88,6.88,0,0,1,3.92,0c2.64.77,5,2.25,7.83,2.65a44.22,44.22,0,0,1,5.46,1.47c.15-4.52.25-8.72.45-12.93.13-2.63.47-5.25.64-7.89.18-3,.28-5.92.41-8.88,0-.88.28-1.48,1.32-1.67a8.71,8.71,0,0,0,1.92-1.06c3.1-1.61,6.23-3.17,9.32-4.81a15.48,15.48,0,0,0,3.78-2.4c2.68-2.68,6.14-3.9,9.37-5.57,2.62-1.34,5.14-2.88,7.72-4.29a2.45,2.45,0,0,1,1.39-.42c2.56.4,5.13.78,7.65,1.4a50.21,50.21,0,0,1,5.45,2c.05-.84.1-1.45.11-2.07q0-2.31,0-4.62v-2.82c0-4.89-.12-9.78-.07-14.66,0-2.7.3-5.39.43-8.08a8.82,8.82,0,0,0-.07-1.78,2.66,2.66,0,0,1,1.61-3c3.09-1.29,5.82-3.21,8.74-4.76,5.75-3.06,10.24-6.54,16.61-9.11,2-1.22,3.8-1.82,5.18-2.93,1.8-1.45,3.67-1.25,5.66-.78,2.76.66,3,.43,2.61-2.32a20.3,20.3,0,0,1-.19-3.57,160.84,160.84,0,0,0,.18-18.76c-.23-3.4.3-7.89.34-11.31,0-4-.27-8-.15-12a51.31,51.31,0,0,1,.37-7.12,1.26,1.26,0,0,1,.68-.74c5.83-2.77,12.31-5.87,18.18-8.55,3.5-1.59,7.1-3,10.65-4.42a56,56,0,0,1,7.19-2.9,15.26,15.26,0,0,1,5.72-.08c2.73.35,5.41,1.07,8.12,1.58,3.08.59,6.19,1.06,9.27,1.68,4.44.9,8.86,1.88,13.29,2.82,3.74.79,7.49,1.56,11.22,2.41a19,19,0,0,1,3.25,1.15c.21.09.36.58.37.89,0,3.29,0,6.58.1,9.86,0,2.25.24,4.5.3,6.74.08,3.21.06,6.43.15,9.64.05,2.13.26,4.25.3,6.38.07,4.12.08,8.24.09,12.37,0,2.48,0,5,0,7.46,0,3.82.06,7.65,0,11.47,0,4.53-.22,9.05-.25,13.58,0,7.52,0,15,0,22.56,0,2.28-.26,4.57-.23,6.85.09,5.44.32,10.89.39,16.33.05,3.1-.2,6.2-.11,9.29.16,5.9.59,11.78.7,17.67.09,5.71-.12,11.42-.13,17.13,0,3.34.21,6.68.15,10A2.81,2.81,0,0,1,524,322c-2.47,1.55-5.1,2.87-7.56,4.44-2.73,1.74-5.35,3.66-8,5.49-1.11.76-2.22,1.54-3.38,2.2-2,1.13-4,2.13-6,3.27a34.2,34.2,0,0,0-4.23,2.77,3.19,3.19,0,0,1-3.08.59c-4.5-1.27-9-2.62-13.47-3.9-.86-.24-1.78-.24-2.62-.51C474.5,336,473.4,335.48,472.08,335Zm21.27,3.69a8.37,8.37,0,0,0,1.79-.48c2.11-1.21,4.2-2.46,6.29-3.71,2.77-1.66,5.55-3.32,8.31-5,1.35-.83,2.63-1.77,4-2.63,2.58-1.66,4.59-3,7.74-5a2.13,2.13,0,0,0,1.64-2.32c-.07-3.58.11-7.16.21-10.75,0-.78.18-1.56.16-2.34-.06-1.74-.26-3.48-.27-5.22,0-3.33.16-6.67.09-10-.14-6.66-.42-13.31-.56-20-.05-2.18.28-4.38.24-6.56-.09-5-.37-10.09-.44-15.13,0-3.76.15-7.53.16-11.3,0-6.55,0-13.1,0-19.65,0-3.4.27-6.8.26-10.19,0-5.15-.21-10.29-.19-15.43,0-2.54.44-5.07.45-7.61,0-3-.27-6.08-.32-9.13-.06-3.84-.08-7.68,0-11.53.09-4.43,0-8.78-.29-13.29-.19-2.92-.08-5-.17-7.87a52.47,52.47,0,0,0-5.26,3.21,21.46,21.46,0,0,1-4.28,2.74c-2,1-4.14,1.92-6.11,3.05-4.22,2.41-7.77,4.89-12.55,7.24-.66.32-1.43.59-1.76,1.25a3.31,3.31,0,0,0-.23,1.36c0,1.64-.16,3.29-.16,4.93,0,3.25,0,6.5.1,9.74.1,2.8.45,6.25.45,9.05,0,4.89-.24,9.09.17,14,.5,6,.52,12,.58,17.94.05,5.7-.15,11.39-.19,17.09,0,5.26-.06,10.52,0,15.78.07,6.2.26,12.4.35,18.6q.13,9,.18,18c0,2.3-.09,4.6-.1,6.9,0,4.34,0,8.67,0,13s-.07,8.8,0,13.2c0,1.8,0,3.12-.11,4.9-.13,3.24,0,7-.26,10.2A24,24,0,0,0,493.35,338.65ZM470.26,216.14,437.47,234.7c.06.72.19,1.76.22,2.8.14,3.72.29,7.45.34,11.17.07,5,.07,10.08.08,15.12,0,4.18,0,8.36,0,12.54-.05,5.94-.18,11.88-.2,17.83,0,2.78.2,5.57.18,8.35,0,4.85-.22,9.7-.26,14.55,0,1.93.25,3.87.24,5.8,0,3.14-.21,6.28-.28,9.43,0,2,0,4,0,6,0,3.49,0,7,0,10.47,0,2.94.18,5.88.21,8.82s0,5.76,0,9c.89-.41,1.51-.63,2.07-1,.77-.45,1.48-1,2.26-1.45,2-1.16,4.14-2.17,6.11-3.42,2.39-1.53,4.59-3.37,7-4.83,4.31-2.59,8.73-5,13.11-7.45,2.07-1.18,2-1.17,1.72-3.6a21.52,21.52,0,0,1-.11-3.5c.15-5.2.37-7.58.15-11.74-.38-7.44-.3-14.89-.32-22.34,0-2.59.36-5.19.38-7.78s-.25-5.19-.28-7.78c0-1.79.43-3.63.16-5.37a34.31,34.31,0,0,1-.27-9.05,13.06,13.06,0,0,0-.27-2.54c-.14-1.53.1-4.45.14-6,.14-4.94-.07-8.49.1-13.42.08-2.28,0-4.56,0-6.83,0-.8.14-1.59.14-2.38,0-2.2-.08-4.4-.07-6.6,0-5.14.12-10.27.17-15.4C470.28,221.64,470.26,219.06,470.26,216.14ZM385,397.86c1.27-.93,2.27-1.77,3.37-2.45,3.17-2,6.39-3.83,9.58-5.76,1.75-1.06,3.44-2.23,5.22-3.23,3.17-1.8,6.41-3.45,9.56-5.27a52.75,52.75,0,0,0,4.68-3.18c1.51-1.11,2.83-2.14,2.71-4.53-.25-5.08-.06-10.18-.05-15.27,0-1.28,0-2.57,0-3.85,0-2.34,0-4.68-.09-7s-.45-4.86-.54-7.3c-.12-3.38-.1-6.77-.13-10.16,0-3.95-.13-7.91-.07-11.87.11-7.91.33-15.82.47-23.73,0-1.7-.17-3.39-.15-5.09.05-2.93.25-5.86.28-8.79s0-5.79-.14-8.68a29.44,29.44,0,0,0-.66-3.65c-2.7,1.43-5.24,2.61-7.61,4.07-5.56,3.41-11,7-16.56,10.4-2.84,1.72-5.91,3.05-8.86,4.59-1.91,1-2.31,2-2.05,4.15a25.15,25.15,0,0,1,.18,3.88c-.09,2.79-.38,5.57-.39,8.35,0,5,.12,10,.14,15s.39,10.16-.11,15.17.41,9.61.26,14.42c-.08,2.47.08,5,.11,7.43,0,2.75.05,5.5.07,8.25,0,4,.08,8,.05,12,0,2-.53,4-.2,6,.6,3.55.29,7,.16,10.57A11.88,11.88,0,0,0,385,397.86Zm-49.86,26a23.67,23.67,0,0,0,2.26-1.26c1.42-1,2.74-2.17,4.21-3.09,3.4-2.1,6.94-4,10.28-6.14s6.71-4.88,10.2-7.12c1.56-1,2.47-1.8,2.46-3.94,0-5,.53-10.06.69-15.09.13-4.38.05-8.77.08-13.16,0-3.5.09-7,.14-10.49s.07-6.88.15-10.32c0-1.95.15-3.91.29-5.85s.69-4,.48-5.92c-.46-4.4-.12-8.77,0-13.16q.06-3.21.09-6.42c0-1.45,0-2.9,0-4.58a18.44,18.44,0,0,1-2.08,1.77c-2.7,1.65-5.45,3.24-8.18,4.85s-5.19,3.17-7.87,4.61c-1.66.9-3.49,1.47-5.22,2.25-1.18.53-2.27,1.26-3.47,1.73-2.25.88-4,2.06-4,4.82,0,.85-.19,1.71-.13,2.55.22,3.3-.88,6.67.52,9.93a4.27,4.27,0,0,1,.08,1.79c-.06,1-.28,2-.27,3,.05,4,.24,8.08.2,12.11,0,3.49-.31,7-.45,10.45-.1,2.84-.18,5.69-.22,8.53-.07,4.79-.13,9.58-.11,14.38,0,3.65.17,7.3.26,11,0,1.3.11,2.6.06,3.89C335.48,417.74,335.32,420.6,335.16,423.82ZM439.52,149.15a.48.48,0,0,0,.08.18,1.63,1.63,0,0,0,1,.59c7.07,1.92,14.19,3.7,21.38,5.05,4.26.79,8.48,1.76,12.74,2.53s8.79,1.42,13.23,2a8.17,8.17,0,0,0,2.7.06c1.76-.35,3.48-1.7,5-2.54,1.9-1,3.82-2.06,5.66-3.17,2.35-1.42,4.49-3.3,7-4.29a47.1,47.1,0,0,0,11.7-7c-.91-.25-1.86-.55-2.82-.79-3.24-.8-6.47-1.61-9.72-2.36q-6-1.38-11.93-2.65c-.92-.19-1.9-.13-2.84-.28-6-1-11.47-2.45-17.46-3.42a6.14,6.14,0,0,0-2.4.36c-2,.84-3.93,2-6,2.74a105.77,105.77,0,0,0-16.19,7.35,19.5,19.5,0,0,1-2,1c-2.23,1-4.49,1.88-6.72,2.87C441.5,147.71,439.39,148.36,439.52,149.15ZM366.4,315.36c-.24-.12-.37-.2-.5-.25-2.82-.92-5.84-1.18-8.46-2.83a19.46,19.46,0,0,0-4.83-2.18,17.13,17.13,0,0,1-5.25-2.05,12.75,12.75,0,0,0-3.61-1.47c-2.52-.74-5.07-1.36-7.6-2.06-.53-.14-1-.46-1.56-.62a18.28,18.28,0,0,1-2.37-.61c-1.39-.62-2.68-1.34-4.21-.38s-3.34,2-5,3c-1.45.85-2.86,1.82-4.37,2.55-3.22,1.56-6.53,2.93-9.74,4.51-3.52,1.73-7,3.58-10.45,5.44-.41.22-.92.81-.88,1.16a1.85,1.85,0,0,0,1,1.28c2.18.84,4.44,1.48,6.61,2.33,2.49,1,4.88,2.2,7.38,3.12,4.08,1.49,8.27,2.69,12.3,4.28a32.48,32.48,0,0,0,10.75,2.29,3.62,3.62,0,0,0,1.65-.43c2.31-1.19,4.49-2.73,6.91-3.59,5-1.79,9.26-4.92,13.89-7.36a31.13,31.13,0,0,0,4-2.72C363.44,317.67,364.86,316.54,366.4,315.36ZM469.61,214.28c-1.4-.29-2.63-.49-3.83-.81-2.39-.62-4.77-1.26-7.14-2-3.24-1-6.65-.77-9.94-1.9-5.27-1.8-10.83-2.72-16.19-4.31a5.68,5.68,0,0,0-5.15.92c-1.89,1.19-3.88,2.23-5.85,3.29-.74.4-1.59.61-2.31,1-2.42,1.4-4.79,2.88-7.19,4.3-2.61,1.55-5.25,3-7.83,4.62-1.72,1.06-2.95,1.54-5.34,2.77a7.94,7.94,0,0,0-.93.74c1.1.24,2,.37,2.81.63,3.25,1.05,6.45,2.3,9.75,3.19,4.38,1.17,8.82,2.07,13.24,3.1,2.47.57,4.91,1.34,7.41,1.67,4.05.53,6.4,1.95,11.79-1.72a3.92,3.92,0,0,1,.77-.46c5.39-3,10.8-6,16.16-9.12C463,218.43,466.1,216.44,469.61,214.28ZM417.09,267c-3.27-1-6.13-2-9-2.8-3.44-1-7-1.75-10.33-3a102.13,102.13,0,0,0-15.19-4.39,3.28,3.28,0,0,0-1.88.42c-2.21,1.14-4.37,2.37-6.56,3.53a78.63,78.63,0,0,0-8.17,4.35,55.86,55.86,0,0,1-8.23,5.14,80.37,80.37,0,0,0-7.58,4.55c2.85,1.08,5.28,2.49,7.86,2.87,4.2.61,7.87,2.5,11.68,4,3,1.19,5.71,3,8.93,3.64,1.15.23,2.22.85,3.36,1.17a2.22,2.22,0,0,0,1.48-.14c2.72-1.35,5.41-2.76,8.12-4.15,1.15-.59,2.35-1.1,3.45-1.78,4.88-3,9.73-6,14.61-9C412,270,414.39,268.59,417.09,267Z"/><path d="M311.11,131.61c-1.06,5.53-2,10.87-3.13,16.18-1.27,5.93-2.6,11.84-5,17.45-1.17,2.71-1.78,5.65-2.87,8.39s-2.46,5.4-3.72,8.09c-1.64,3.5-3.16,7.07-5,10.49-2.22,4.21-4.75,8.24-7,12.42-1.84,3.39-3.41,6.93-5.24,10.32-2,3.79-4.19,7.51-6.37,11.22a86.73,86.73,0,0,1-5.41,8.67c-2.71,3.59-5.8,6.9-8.7,10.36-2,2.35-3.83,4.77-5.8,7.1-2.56,3-5.11,6.07-7.77,9s-5.62,6.06-8.48,9c-2,2.11-4.32,5-6.31,7.19-2.45,2.65-4.58,4.54-7.07,7.15a36.39,36.39,0,0,1-5.37,4.71c-3.09,2.15-5.88,4.66-9.63,5.38a4.21,4.21,0,0,1-2.91-.77c-.72-.71-.43-1.92,0-2.83,1.62-3.25,4.48-6.2,6.66-9.1,2.48-3.3,5-6.61,7.24-10,3.09-4.61,5.68-9.58,8.32-14.48s4.93-9.64,7.36-14.48,5-9.62,7.22-14.54,4.06-9.7,6.08-14.56c1-2.47,2.17-4.91,3.05-7.43,1.17-3.35,2.24-6.75,3.17-10.18,1.44-5.39,2.85-10.79,4-16.24.68-3.14.87-6.39,1.36-9.57.3-1.87.85-3.7,1.14-5.57,1.12-7.26,2.36-14.49,3.19-21.78.41-4.77.38-9.51.74-14.29a1.86,1.86,0,0,0-.05-.78c-.54-1.48-7.68-1.66-9.1-1.91-2.91-.5-5.8-1-8.7-1.54a18.72,18.72,0,0,1-2.63-.3,5,5,0,0,1-2.34-1.36c-.23-.28.31-1.48.8-2a22.25,22.25,0,0,1,2.85-2.23A7,7,0,0,0,247,118c4.75-3.52,6.55-4.84,11-8.3a29,29,0,0,0,3.94-3.51c3.24-3.07,5.64-5.15,8.88-8.22,2.4-2.27,5-4.31,7.36-6.63,5.58-5.54,11.06-11.19,16.58-16.79.36-.36.74-.7,1.11-1a1.81,1.81,0,0,1,3,.27c2.15,2.86,4.31,5.7,6.39,8.6a33.18,33.18,0,0,0,5,5.77c2.12,1.88,3.6,4.47,5.34,6.76,3.08,4.07,6.19,8.11,9.2,12.22,1.71,2.32,3.23,4.77,4.85,7.16.49.73,1,1.46,1.52,2.15,3.22,4.09,6.66,7.65,8.32,12.62a2,2,0,0,1,.13,1.23c-.21.66-1,.92-1.66,1.07a32.76,32.76,0,0,1-8.88.82c-2.68-.19-5.32.21-8,.15C317.67,132.24,314.36,131.85,311.11,131.61ZM296.58,76.42a3,3,0,0,0-1.21.83C291.57,81,287.78,84.7,284,88.43c-1.72,1.69-3.3,3.52-5.06,5.15-4.61,4.27-9.27,8.47-13.92,12.69-1.63,1.47-3.27,3-4.95,4.3a150.44,150.44,0,0,1-14.28,10.49,2.26,2.26,0,0,0-.72.52.62.62,0,0,0,0,.82.85.85,0,0,0,.43.17c6.06,1.22,12.29,2.23,18.43,2.92,3,.41,3.09.35,3.3,3.54.12,1.76.36,3.51.32,5.26a79.33,79.33,0,0,1-.59,9.64c-1,6.54-2.17,13.06-3.44,19.55-1.68,8.54-3.36,17.09-5.35,25.56a155,155,0,0,1-5.07,17.46c-2.71,7.45-5.85,14.74-9,22-1.93,4.38-4.36,8.55-6.47,12.86-3.15,6.42-6.2,12.9-9.32,19.34-1.07,2.21-2.12,4.43-3.37,6.54s-2.76,4.35-4.27,6.44c-3.16,4.38-6.41,8.7-9.62,13.06-.91,1.24-2.49,2.82-2.76,4.39a.38.38,0,0,0,0,.3.4.4,0,0,0,.35.13c1.48,0,2.89-1.31,4.16-2a26.36,26.36,0,0,0,4.57-2.94,193.75,193.75,0,0,0,14.57-14.1c3.53-3.63,7-7.32,10.46-11,2.83-3,5.72-6,8.37-9.15,1.81-2.15,2.83-3.65,4.56-5.88,1.29-1.66,3.3-4,4.6-5.69a106.67,106.67,0,0,0,6.48-9c2-3.26,5.35-8,7.18-11.42.13-.25.33-.46.48-.69,2.5-4,3.36-6.71,5.82-10.73,1.13-1.87,2.16-3.8,3.2-5.72,2.39-4.43,4.84-8.84,7.13-13.32,1.14-2.23,1.79-4.73,3-6.91a76.08,76.08,0,0,0,6.64-14.95c1.5-4.89,3.72-9.56,4.68-14.65.7-3.72,1.65-7.39,2.31-11.12s1.09-7.44,1.6-11.17c.21-1.49,1-1.94,2.46-1.74,2.8.38,5.63,1.07,8.41.92,4.17-.24,8.21-.2,12.39-.34a18.76,18.76,0,0,0,4.67-.55.56.56,0,0,0,.38-.23.55.55,0,0,0,0-.38c-1-4.68-5.26-8.09-8-11.79-3.15-4.27-6.1-8.7-9.2-13s-6-8.42-9.2-12.45c-2.28-2.1-4.18-4.91-6.28-7.22a84,84,0,0,1-5.79-7,2.13,2.13,0,0,0-1.21-1A1.18,1.18,0,0,0,296.58,76.42Z"/><path d="M335.06,62.78c-4.53-.4-9.07-.74-13.59-1.24a17.8,17.8,0,0,1-4.83-1.19c-3-1.23-3.58-4.14-4.1-6.87-.62-3.27-1-6.6-1.44-10.07-1.54.73-3.34,1.56-5.1,2.44-3.08,1.55-6.18,3.06-9.19,4.73a22.24,22.24,0,0,1-7.44,2.31c-4.65.76-7.62-2.7-8.92-6-.16-.4-.31-.8-.63-1.65-1.37,1.94-2.57,3.59-3.73,5.26-.82,1.19-1.49,2.51-2.41,3.6-3.51,4.15-7.95,6.2-13.43,5.43a7.36,7.36,0,0,1-3.82-2.23,1.59,1.59,0,0,1-.38-1.36,1,1,0,0,1,1.1-.72c.4.1.64.49.9.81,2,2.51,5.61,2.16,8.39,1.2a14,14,0,0,0,6.69-5.31c2.16-3,4.17-6.17,6.32-9.21a2,2,0,0,1,1.59-.59c.39.06.81.7,1,1.17s.11,1.34.28,2c1.41,5.49,5.15,7,9.76,5.23,5-1.91,9.68-4.5,14.5-6.78,2-1,4-2,6.07-2.8a2.06,2.06,0,0,1,1.68.28c.26.17.32,1,.14,1.39-2,4.53-.43,8.89.66,13.21.59,2.33,2.62,3.46,4.9,3.74,5.36.66,10.75,1.17,16.13,1.74.27,0,.56,0,.83.09l1.8.38a10.25,10.25,0,0,1-.92,2.29,19.07,19.07,0,0,1-2,2c-3.76,3.89-4.28,8.56-2.92,13.49a75.53,75.53,0,0,0,3.06,8.1A3.69,3.69,0,0,0,339.6,90l1,0a1.09,1.09,0,0,1,.57.13.75.75,0,0,1,.1,1,1.63,1.63,0,0,1-1,.52c-1.64.27-4.28-.33-5.09-2A45.87,45.87,0,0,1,330.64,77c-.78-4.77.73-8.78,3.69-12.4.31-.37.59-.77.88-1.16Z"/><path d="M52.48,218.88l-.72-.89a15,15,0,0,0,.28-2.74c-.09-.73-4.22-.49-4.22-.49L52.6,208l.8-1.7.46-1c1.07-2.17.26-2.55-1.37-2l-3,2.22c-.66.64-1.4,1.39-2.28,2.18-2.3,2.08-2.74,1.23-2.74,1.23s-6.79-3.14-10.81-1.12-8.3,7.83-9.76,11.82,2.87,12.27,4,13.26a4.14,4.14,0,0,1-1.21,3.7c-1.74,2-2,2.82-.84,3.28s6.56-.06,9.11-3.85a23.35,23.35,0,0,0,5.34,1.63c1.09.19,3.58.8,3.77,2.48a15.21,15.21,0,0,1-.7,5.1c-.29.8-9.89,1.78-9.12,11.22a41.4,41.4,0,0,0,6.48,18.64c1.14,1.58,7.68,11.46,8.91,13.78s6.09,9.17,13.24,2.2c2.06,2.79,6.07,9.17,6.32,11.23a51.68,51.68,0,0,0,.67,5.45c.3.91.92,6,.49,7.18s.75,3,1.87,2.82a4,4,0,0,1,3.09,1.91c.07.56,4.74,12.19,6.56,14.64S87,354.49,86.2,355.74s-1.44,6.51-.84,7.1-5.63,12.05-6.86,14.28-1.13,4.8.39,6.27a5.34,5.34,0,0,0,.66,1.95A9.09,9.09,0,0,1,78,388.72c-1.27,1-1.82,4-1.82,4L74,395.79s-2,.07-2.25,1.4-3,8-.59,10.56,9.7,3.91,10.7,4.2,10.53-.07,13.51.15a28.51,28.51,0,0,0,7.56-.29c1.63-.39,1.44-5.32-3.22-6.79a25.37,25.37,0,0,1-10.12-6.2c-1.38-1.6-2.77-3.52-2.77-3.52l2.86-6.51a2.5,2.5,0,0,0,.54,0c1.73-.2,3.5-2.62,4.1-2.62a13.39,13.39,0,0,0,1.64-2.47c2.63,0,6.49-.09,8,0a22.06,22.06,0,0,0,6-.22c1.28-.31,1.13-4.18-2.53-5.34a20.88,20.88,0,0,1-6.34-3.4c2.68-4.72,5.26-9.26,5.88-9.94,1.34-1.5,2.71-5.86,2.72-7.39s6.93-4.08,8.11-6.9,4.25-10.43,2.93-15-7.86-26.86-12-31.5a3.36,3.36,0,0,0,.46-4.06c-1.41-2.11-8.32-21.28-10.47-23.31l-.57-.51c.56-1.13,2-4.26,1.78-5.16,2.91-1.12,2.32.29,3.07.2s4.17-4.9,4.33-6.63-1.08-5.78-3.89-7-7.19,2-7.19,2L88,254.51s-.82-2-2-2c1.86-3.47,0-5.15-1.51-4.59l-.87.33-1.49-2.29A3.51,3.51,0,0,0,79.86,244l-1.85.4a1.59,1.59,0,0,0-.73,1.79l2.49,3.63h0c-.47-.71-.79-1.82-1.67-1.14s-3.11-2.09-4.72-4.37-3.42-3-5.82-2.34-3.68.12-4.27-.63c0,0-6.32-6.59-8.76-8s.24-8.67.67-9.86-.86-2.59-2.09-3.39Z"/><path class="cls-2" d="M148.74,67.2s110.12,53.91,39,108.39,43.8,88.92,43.8,88.92"/><path d="M55.22,213c9.62,15.3,18.46,28.15,24.55,36.78l5.35,1.76c-6.18-8.71-15.19-21.76-25-37.3l-2.77-4.43c-19.3-31-40.88-70.79-50-105.88C3.25,86.61,2.6,70.62,9.12,59.11,15.35,47.53,29.8,40.84,51.75,41.78c21.6.63,48.26,8.27,66.81,14.57,18.84,6.42,30.23,11.2,30.11,11,.05,0-11.4-5-30.57-11.68C99.26,49.06,72,41.06,49.6,40.19,26.93,39,12,45.66,5.35,57.23c-6.88,11.49-6.46,27.48-2.5,44.85,8.69,35,29.9,74.53,49,105.52Z"/><path d="M71.88,240.06s5-1.93,5.8-.76,8.79,13.47,8.79,13.47l-5.82,2.13Z"/><path d="M401.28,142.49c-4.5,0-8.27.26-12-.07-4.17-.37-7.3-3-10.29-5.74s-6.51-5.38-9.35-8.46c-3.57-3.87-6.75-8.12-10-12.29a51.35,51.35,0,0,1-4.06-6.14c-.73-1.27-1.2-2.6.4-4a92.21,92.21,0,0,0,6.69-6.72c2.26-2.39,4.64-2.23,6.52.52,1.66,2.45,3.18,5,5.06,7.31s4.24,4.22,6.29,6.41c3.45,3.69,6.75,7.48,11.1,10.23,4.59,2.89,14,1.92,16.14-5.26,2.08-6.9,1.54-12.91-2.76-18.67-3.08-4.13-6-8.35-9-12.58a44.87,44.87,0,0,1-3.56-5.7c-1.19-2.41-.37-4.55,2.51-6.86,2.17-1.75,4.45-3.37,6.75-5s2.71-1.28,4.5.78c1,1.13,2.34,1.94,3.3,3.09,2.79,3.3,5.52,6.65,8.15,10.08a63.86,63.86,0,0,1,6.29,9c1.55,3,2.3,6.36,3.3,9.59.42,1.36.54,2.82.85,4.22,1.07,4.91,1.7,9.83.69,14.85-1.16,5.76-5,9.56-9.42,12.88-3,2.27-6.29,4.17-9.32,6.41S403.89,142.6,401.28,142.49Zm-35.44-41.33a34.68,34.68,0,0,1-3.46,2.45c-4.32,2.35-5.13,3.72-2.72,7.59a120.11,120.11,0,0,0,10.56,14.57c3,3.49,6.82,6.27,10.23,9.42,2.94,2.73,6.17,5.06,10.29,5.12,4.92.08,9.85-.28,14.77-.54a4.49,4.49,0,0,0,2-.87c3.66-2.36,7.48-4.52,10.88-7.21,3.88-3.07,7.77-6.46,8.27-11.84a32.52,32.52,0,0,0-1.4-13.94,17,17,0,0,1-1.32-3.88c-.45-4.87-2.75-8.8-5.7-12.52-2.26-2.85-4.35-5.84-6.51-8.76-1.17-1.58-2.24-3.24-3.54-4.7-3.6-4-8.19-3.8-11.43.59a5.06,5.06,0,0,0-.76,2.22c-.44,3.21,1,5.65,3.27,7.74a9.62,9.62,0,0,1,1.57,1.74c2.83,4.23,5.73,8.41,8.35,12.76a14.52,14.52,0,0,1,1.92,5.67c.59,5,.28,10.08-2.1,14.65a10.92,10.92,0,0,1-8.38,6.22c-6.38.85-11.56-1.6-16-6-3.22-3.21-6.71-6.15-9.77-9.49S368.86,104.88,365.84,101.16Z"/><path d="M472,49.37A19.45,19.45,0,0,1,467.34,61c-2.77,3.31-5.27,6.85-8,10.21-1.31,1.63-1.12,3,.19,4.41,3.14,3.47,6.31,6.93,9.34,10.5,2.59,3.06,5,6.23,7.49,9.41.94,1.23.13,3-1.15,4-2.4,1.84-4.53,4-6.93,5.83a18.87,18.87,0,0,1-4,1.87c-.38.17-.95.09-1.2.34-1.84,1.9-2.71.65-3.81-.92q-5.58-8-11.38-15.8c-6.75-9-13.59-18-20.38-27-1.57-2.08-3-4.24-4.6-6.33-2.19-2.94-2.18-5.23.31-7.88s4.73-5.43,7.58-7.5c3.86-2.81,8.19-5,12.32-7.45.81-.48,1.54-1.29,2.4-1.46,4.39-.88,9.12-2.5,13.19-.25C463.12,35.4,467.87,38,470,43A61.1,61.1,0,0,1,472,49.37Zm-3-.11c-.22-4.2-2.31-7.26-5.63-9.88a17.56,17.56,0,0,0-13.64-3.84,28.71,28.71,0,0,0-13.34,6,35.34,35.34,0,0,1-4.8,3.65,14.43,14.43,0,0,0-6.22,6.7,6.86,6.86,0,0,0,.23,5.08c.74,1.76,2.42,3.11,3.57,4.72,4.68,6.51,9.22,13.13,14,19.56,3.32,4.46,7,8.65,10.43,13,2.14,2.72,4.07,5.6,6.22,8.31.67.86,1.81,2.06,2.61,2a12.41,12.41,0,0,0,4.9-1.79,25.09,25.09,0,0,0,4.94-3.88c.57-.57,1-2.21.59-2.7-3.18-4.12-6.53-8.11-9.88-12.08-2.79-3.31-5.7-6.51-8.45-9.85-1.06-1.28-.47-2.93,1.06-3.69a2.88,2.88,0,0,0,.9-.57c2.43-2.63,5-5.18,7.22-8C466.62,58.33,469.37,54.45,469,49.26Z"/><path d="M468.49,10.33c2.33-2.09,5-4.4,7.53-6.77.84-.78,1.48-1.76,2.3-2.57,1.48-1.46,3-1.29,4.13.39,3.47,5.3,6.88,10.64,10.42,15.89,3.23,4.79,6.75,9.38,9.86,14.24s5.83,10,8.79,15c1,1.7,2.72,3.12,1.87,5.45-.1.26,0,.71-.15.83-2.84,2.07-5.68,4.14-8.57,6.14-1.48,1-2.69.55-3.69-.86-5.48-7.78-11.08-15.47-16.44-23.33S474.14,18.92,468.49,10.33Zm42,40c-.47-1-.72-1.57-1-2.13-1.27-2.26-2.5-4.54-3.85-6.74-2.76-4.5-5.53-9-8.4-13.41-2.48-3.82-5.4-7.39-7.61-11.35a68.13,68.13,0,0,0-8-11.77c-1-1.14-1.93-1.25-3-.36-2.15,1.85-4.28,3.72-6.29,5.7a2,2,0,0,0,0,1.9c1.12,1.77,2.5,3.37,3.66,5.12,3.91,5.92,7.67,11.94,11.66,17.79S495.9,46.72,500,52.58c2.71,3.85,4.14,4.14,7.72,1.07A24.15,24.15,0,0,0,510.49,50.31Z"/><path d="M508.38,68.64a7.27,7.27,0,0,1,1-1.37c1.76-1.46,3.61-2.82,5.34-4.32,3.78-3.28,6-2.9,8.54,1.52a30.92,30.92,0,0,1,2.52,4.47,3.23,3.23,0,0,1-.68,2.76,45.53,45.53,0,0,1-4.47,3.68c-1.25,1-2.47,1.69-4.13.73a10.32,10.32,0,0,0-2.49-.62c-.79-.2-2-.19-2.29-.71C510.49,72.88,509.52,70.79,508.38,68.64Zm5.27,4.47c1.39,0,2.76.34,3.83-.07a11.75,11.75,0,0,0,4.74-2.92c.46-.54-.8-2.57-1.31-3.9a4.11,4.11,0,0,0-.64-.88c-.72-1-1.57-1.59-2.73-.65a52.65,52.65,0,0,1-4.11,3.38c-1.57,1-1.65,2-.58,3.36A9.09,9.09,0,0,1,513.65,73.11Z"/><path d="M457.61,51.08c-.16,5.92-4.37,11.5-9.46,13.76-.67.3-2.27-.43-2.84-1.15A74.38,74.38,0,0,1,440,55.85a3.66,3.66,0,0,1-.11-4.22c2.65-4.11,6.72-5.91,11-7.44a2.83,2.83,0,0,1,1.7.07A7.61,7.61,0,0,1,457.61,51.08Zm-7.67-3.64c-2.59,1.06-5.5,2.34-7.36,5.07a2.76,2.76,0,0,0,.23,2.35c1.19,2,2.55,4,3.91,6,.61.88,1.18,1.38,2.45.48a13.24,13.24,0,0,0,5.42-8.24A4.66,4.66,0,0,0,449.94,47.44Z"/><path class="cls-3" d="M267.64,264.51s-1.59,19.25-22.83,21.24"/><path class="cls-3" d="M274.67,272.48s-1.59,19.24-22.82,21.23"/><path class="cls-3" d="M225.32,130.25s-1.23-19.27,19.49-24.34"/><path class="cls-3" d="M217.2,123.39S216,104.12,236.69,99.06"/><path class="cls-4" d="M303.81,77a3.17,3.17,0,0,0-1.21.83Q296.9,83.38,291.21,89c-1.72,1.68-3.3,3.51-5.06,5.14-4.61,4.27-9.27,8.47-13.92,12.69-1.63,1.47-3.27,3-5,4.3A149.53,149.53,0,0,1,253,121.61a2.14,2.14,0,0,0-.72.53.62.62,0,0,0,0,.82.94.94,0,0,0,.43.16c6.06,1.22,12.29,2.23,18.43,2.92,3,.41,3.09.36,3.3,3.55.12,1.75.36,3.51.32,5.26a79.28,79.28,0,0,1-.59,9.63c-1,6.54-2.17,13.06-3.44,19.55-1.68,8.54-3.36,17.09-5.35,25.56a153.13,153.13,0,0,1-5.08,17.47c-2.71,7.44-5.84,14.74-9,22-1.93,4.39-4.36,8.55-6.47,12.86-3.15,6.43-6.2,12.9-9.32,19.34-1.07,2.21-2.12,4.43-3.37,6.54s-2.76,4.36-4.27,6.44c-3.16,4.39-6.42,8.71-9.62,13.06-.91,1.24-2.49,2.82-2.76,4.4a.39.39,0,0,0,0,.3.42.42,0,0,0,.35.12c1.48,0,2.89-1.31,4.16-2a26.75,26.75,0,0,0,4.57-2.94,191.8,191.8,0,0,0,14.57-14.1c3.53-3.63,7-7.32,10.46-11,2.83-3,5.72-6,8.37-9.15,1.81-2.15,2.83-3.65,4.56-5.88,1.29-1.66,3.3-4,4.6-5.69a109,109,0,0,0,6.48-9c2-3.26,5.35-8,7.18-11.42.13-.24.33-.45.47-.69,2.51-4,3.37-6.71,5.83-10.73,1.13-1.86,2.16-3.8,3.2-5.72,2.39-4.43,4.84-8.84,7.13-13.32,1.14-2.23,1.79-4.73,3-6.9a76.17,76.17,0,0,0,6.64-15c1.5-4.89,3.72-9.56,4.68-14.64.7-3.72,1.65-7.4,2.31-11.13s1.09-7.44,1.6-11.17c.21-1.48,1-1.94,2.46-1.74,2.8.38,5.63,1.08,8.41.92,4.17-.23,8.21-.19,12.39-.34a19.24,19.24,0,0,0,4.67-.54.55.55,0,0,0,.37-.23.52.52,0,0,0,0-.39c-1-4.68-5.26-8.09-8-11.79-3.15-4.27-6.1-8.69-9.2-13s-6-8.43-9.21-12.45c-2.27-2.11-4.17-4.92-6.27-7.23a83.89,83.89,0,0,1-5.79-7,2.15,2.15,0,0,0-1.21-1A1.18,1.18,0,0,0,303.81,77Z"/><path class="cls-4" d="M373.07,101.72a36.23,36.23,0,0,1-3.46,2.44c-4.32,2.35-5.13,3.72-2.72,7.6a120.79,120.79,0,0,0,10.56,14.56c3,3.5,6.82,6.27,10.23,9.42,2.94,2.73,6.17,5.06,10.29,5.13,4.92.08,9.85-.29,14.77-.55a4.37,4.37,0,0,0,2-.87c3.66-2.36,7.48-4.52,10.88-7.21,3.88-3.07,7.77-6.45,8.27-11.84a32.52,32.52,0,0,0-1.4-13.94,17,17,0,0,1-1.32-3.88c-.45-4.87-2.75-8.8-5.7-12.52-2.26-2.84-4.35-5.83-6.51-8.76-1.17-1.57-2.24-3.23-3.54-4.69-3.6-4.06-8.19-3.81-11.43.58a5.11,5.11,0,0,0-.76,2.23c-.44,3.2,1,5.65,3.27,7.73a10.34,10.34,0,0,1,1.57,1.74c2.83,4.23,5.73,8.41,8.35,12.77a14.46,14.46,0,0,1,1.92,5.67c.59,5,.28,10.07-2.1,14.64a10.92,10.92,0,0,1-8.38,6.22c-6.38.85-11.56-1.59-16-6-3.22-3.2-6.71-6.15-9.77-9.48S376.09,105.43,373.07,101.72Z"/><path class="cls-4" d="M517.72,50.86c-.47-1-.72-1.57-1-2.13-1.27-2.25-2.5-4.53-3.85-6.74-2.76-4.5-5.53-9-8.4-13.41-2.48-3.82-5.4-7.39-7.61-11.35a67.63,67.63,0,0,0-8-11.77c-1-1.14-1.92-1.25-3-.35-2.15,1.84-4.28,3.71-6.3,5.69a2,2,0,0,0,0,1.9c1.12,1.77,2.5,3.37,3.66,5.12,3.91,5.92,7.67,11.94,11.66,17.79s8.32,11.66,12.44,17.52C510,57,511.39,57.27,515,54.2A23.58,23.58,0,0,0,517.72,50.86Z"/><path class="cls-4" d="M520.88,73.67c1.39,0,2.76.33,3.83-.08a11.75,11.75,0,0,0,4.74-2.92c.46-.54-.8-2.56-1.31-3.9a4.38,4.38,0,0,0-.64-.88c-.72-1-1.57-1.59-2.73-.65a50.48,50.48,0,0,1-4.11,3.38c-1.57,1-1.65,2-.58,3.36A9.2,9.2,0,0,1,520.88,73.67Z"/><g class="cls-5"><path class="cls-6" d="M480,96.73c-3.18-4.12-6.53-8.1-9.89-12.08-2.78-3.31-5.69-6.51-8.44-9.84-1.06-1.29-.47-2.93,1.06-3.7a3,3,0,0,0,.9-.56c2.43-2.64,5-5.18,7.22-8,3-3.69,5.71-7.56,5.29-12.75-.23-4.21-2.31-7.26-5.63-9.89a17.56,17.56,0,0,0-13.64-3.83,28.59,28.59,0,0,0-13.34,6,34.62,34.62,0,0,1-4.8,3.66,14.31,14.31,0,0,0-6.22,6.69,6.88,6.88,0,0,0,.23,5.09c.74,1.76,2.42,3.11,3.57,4.72,4.68,6.51,9.22,13.12,14,19.55,3.32,4.46,7,8.65,10.43,13,2.14,2.72,4.07,5.6,6.22,8.32.67.85,1.81,2,2.61,2a12.55,12.55,0,0,0,4.9-1.78,25.44,25.44,0,0,0,4.94-3.89C480,98.86,480.42,97.22,480,96.73ZM455.38,65.39c-.68.3-2.27-.43-2.84-1.15a74.38,74.38,0,0,1-5.31-7.84,3.64,3.64,0,0,1-.11-4.21c2.65-4.12,6.72-5.92,11-7.45a2.83,2.83,0,0,1,1.7.07,7.61,7.61,0,0,1,5,6.82C464.68,57.56,460.47,63.13,455.38,65.39Z"/></g></g></g></g></svg>