<svg xmlns="http://www.w3.org/2000/svg" width="415.48" height="227.42" viewBox="0 0 415.48 227.42"><defs><style>.cls-1{fill:#e8380d;}.cls-2{stroke:#000;stroke-miterlimit:10;}.cls-3{fill:#fff;}</style></defs><g id="レイヤー_2" data-name="レイヤー 2"><g id="レイヤー_1-2" data-name="レイヤー 1"><path class="cls-1" d="M65.86,131.72c-.28-1.52-.56-3-.85-4.49a26.19,26.19,0,0,1,2.47-4c.27,1.63.52,3.28.79,5A27.56,27.56,0,0,0,65.86,131.72Zm19.27,8.45a85.46,85.46,0,0,0-15.41,10.62c-.16-.74-.32-1.46-.48-2.18l.5-.48c-.87-4.12-1.62-8-2.29-11.74-.21.28-.41.55-.59.82-.27-1.42-.54-2.81-.79-4.18a27.32,27.32,0,0,1,2.56-3.57c.83,5.36,1.74,11,2.86,17.1a91.92,91.92,0,0,1,13.14-9C84.8,138.44,85,139.3,85.13,140.17Zm-7.42.77c-.72.5-1.43,1-2.11,1.48q-1.16-5.49-2.1-10.59l-.82.71c.28,3.65.62,7.42,1,11.28-.6.46-1.19.91-1.74,1.37-.93-6-1.7-11.72-2.39-17.12l-.66.75c-.24-1.46-.48-2.89-.71-4.3.25-.32.52-.64.79-1-.1-.77-.2-1.54-.29-2.31a43.15,43.15,0,0,1,3-3.16l.18,2.48c.44-.42.88-.83,1.35-1.24.27,1.46.55,2.94.83,4.45-.64.55-1.26,1.1-1.85,1.66.07,1.07.15,2.16.23,3.26,1-.9,2.07-1.81,3.21-2.72C76.2,130.73,76.9,135.73,77.71,140.94Zm4.23-25.21c-1.89,1.24-3.67,2.5-5.32,3.78,0,0,0,0,0,0-.82.63-1.6,1.26-2.35,1.9-.33-1.63-.65-3.22-1-4.78.85-.75,1.74-1.5,2.67-2.23l.12,1c1.69-1.34,3.53-2.65,5.47-3.94C81.69,112.86,81.81,114.29,81.94,115.73Zm.3,4.61c-.31,1.86-.62,3.75-.91,5.65l1.34-.86c.11,1.15.22,2.32.34,3.5-.53.33-1.06.66-1.58,1q.46,4.08,1,8.35c-.7.43-1.39.85-2.06,1.28q-.87-4-1.63-7.85l-1.56,1.11c-.17-1.11-.34-2.2-.5-3.28l1.49-1.1q.31-2.77.67-5.51-2,1.41-3.75,2.84c-.22-1.12-.44-2.23-.65-3.33A82.58,82.58,0,0,1,82,116.57C82.1,117.81,82.17,119.06,82.24,120.34Z"/><path class="cls-1" d="M89.34,112.72c-1.85,1-3.64,2.09-5.34,3.15q-1-2.62-2-5.08,2.86-1.87,6-3.66Q88.67,109.85,89.34,112.72Zm2.16,8.54c-1.53.83-3,1.66-4.48,2.51-.79-1.82-1.54-3.57-2.26-5.28,1.68-1,3.44-2.06,5.26-3.06Q90.73,118.26,91.5,121.26Zm7.63-14.61c.44-.92.89-1.82,1.34-2.72-1.47.68-2.93,1.37-4.35,2.07l-.66,1.44c-2.06,1-4.07,2.09-6,3.17q1.28-3.52,2.64-6.86c4.41-2.29,9.12-4.44,14-6.42q.17,1.94.36,4c-.4.84-.8,1.7-1.19,2.57,1.36-.59,2.74-1.17,4.13-1.74.82,4.81,1.81,10.11,2.95,15.81-6.26,2.61-12.28,5.36-17.81,8.18q-2.6-7.92-4.59-14.79C92.85,109.73,95.93,108.16,99.13,106.65Zm-6.69,18.22q1.25,4.55,2.68,9.4c-1,.47-1.91.95-2.85,1.43q-2.08-4.47-3.92-8.6C89.67,126.35,91,125.61,92.44,124.87Zm2.33-11.46c.21.85.42,1.72.65,2.6,1.22-.62,2.47-1.24,3.74-1.85-.29-.85-.58-1.69-.85-2.52Q96.51,112.51,94.77,113.41Zm0,13.75c1.14-.58,2.31-1.16,3.49-1.73q.38,3.34.81,6.82L96.3,133.6Q95.52,130.32,94.81,127.16Zm2-5.75c1.35-.67,2.74-1.34,4.14-2-.33-.92-.66-1.82-1-2.71-1.32.63-2.63,1.27-3.91,1.91C96.32,119.53,96.57,120.47,96.82,121.41Zm2.62,3.47c1.15-.55,2.32-1.1,3.5-1.64.34,2.19.71,4.44,1.1,6.73l-3.06,1.4Q100.17,128.06,99.44,124.88ZM106,108.1c-1.26.55-2.51,1.11-3.74,1.67.17.88.34,1.77.52,2.68,1.29-.59,2.59-1.17,3.91-1.75C106.48,109.82,106.25,109,106,108.1Zm2.22,8c-.26-1-.52-1.9-.77-2.83-1.39.61-2.78,1.23-4.14,1.85.2,1,.4,1.92.6,2.89Q106.07,117.07,108.25,116.12Zm-.69,5q1,3.12,2,6.38l-3,1.3q-1.3-3.12-2.52-6.11C105.2,122.2,106.37,121.68,107.56,121.16Zm5-2.11c.72,2,1.48,4.07,2.26,6.17l-3.1,1.29q-1.56-3-3-5.83C109.93,120.13,111.21,119.59,112.51,119.05Z"/><path class="cls-1" d="M129.07,107.5c1.29,3.45,2.65,7.11,4.06,10.94l-2.38.86c-1.72-3.72-3.37-7.29-4.93-10.64q-2.89,1.05-5.78,2.15c1.42,3.41,2.94,7,4.52,10.79l-2.5,1c-1.92-3.64-3.77-7.11-5.51-10.4l-.92.37q-1-1.83-1.95-3.57l1-.39-5.18-9.79c1.3-.52,2.61-1,3.93-1.52l-1.14-2.17c2.17-.81,4.36-1.58,6.55-2.32.28.73.56,1.47.84,2.24,1.4-.48,2.81-1,4.21-1.41,1.16,3.07,2.42,6.46,3.78,10.14l.86-.3c.47,1.22,1,2.47,1.43,3.75ZM121.29,99c-1.78.63-3.56,1.27-5.33,1.94q1.2,2.93,2.53,6.11,2.78-1.06,5.6-2.07Q122.64,101.88,121.29,99Zm-1.88,6.9q-1.27-2.42-2.45-4.66,1.88-.7,3.78-1.38c.61,1.55,1.23,3.17,1.89,4.85C121.55,105.13,120.48,105.52,119.41,105.93Zm5.24,11.29q-1.55-3.18-3-6.18l3.06-1.14c.85,2,1.73,4.15,2.64,6.31Zm7.66-15.82-3.85,1.28c-1.64-4-3.16-7.72-4.53-11,1.92-.6,3.85-1.18,5.77-1.74C130.47,93.32,131.35,97.16,132.31,101.4Zm13.84,12.53c-3.89,1.26-7.82,2.59-11.74,4-1.94-5.22-3.78-10.12-5.47-14.6,4.41-1.5,8.82-2.9,13.18-4.19C143.39,103.6,144.74,108.58,146.15,113.93Zm-4.5-15.43-3.51,1c-2-3.87-3.83-7.36-5.53-10.42q2.73-.75,5.41-1.43C139.13,90.83,140.34,94.46,141.65,98.5Zm-7,7.21c.79,2.71,1.62,5.56,2.47,8.51,1.62-.55,3.23-1.1,4.85-1.63-1.09-2.86-2.15-5.61-3.17-8.23Z"/><path class="cls-1" d="M170.45,89.11c-1.28.24-2.58.5-3.89.76,1.6,4.8,3.2,10.56,4.76,17l-2.7.71c-2.49-6.2-5-11.81-7.36-16.55-2.78.6-5.6,1.26-8.48,2,1.07,2.33,2.17,4.86,3.3,7.54l-3.61,1q-2.41-3.85-4.7-7.25c-1.34.36-2.69.72-4,1.1q-1.56-2.31-3-4.39c1.34-.36,2.67-.7,4-1-.8-1.11-1.58-2.16-2.35-3.15q3.36-.8,6.65-1.5c.54,1,1.1,2.08,1.67,3.22,2.82-.65,5.59-1.24,8.31-1.79-.63-1.13-1.25-2.2-1.87-3.19,2.22-.41,4.4-.78,6.54-1.13.45,1,.9,2,1.34,3.18l3.39-.6C169.07,86.24,169.76,87.63,170.45,89.11Z"/><path class="cls-1" d="M189,94.65c-6.24.88-6.63.83-14,2.28q-1.6-2-3.19-3.8c7.74-1.44,8.46-1.35,15-2.26C187.6,92.07,188.33,93.33,189,94.65Z"/><path class="cls-1" d="M208.69,88.91c-2.17.32-4.37.62-6.63.92,1.42,2.84,2.76,5.88,4,9.07l-1.93.23a93.27,93.27,0,0,0-5.43-8.86c-2.37.31-4.81.63-7.35,1-1-1.22-1.95-2.39-2.95-3.51,2.64-.37,5.18-.7,7.66-1-.93-1.18-1.88-2.29-2.84-3.35-2.06.51-4.15,1-6.3,1.48-1.2-1.26-2.43-2.42-3.66-3.49a137.86,137.86,0,0,0,17.38-5.27,48.49,48.49,0,0,1,2.94,4.46c-2,.63-3.94,1.18-5.91,1.71q1.26,1.84,2.43,3.89c2.4-.35,4.74-.72,7.09-1.14Q208,86.89,208.69,88.91Z"/><path class="cls-1" d="M114.51,155c-7.28,2.87-14.15,5.71-20.27,8.38-1.39-3-2.71-6-4-8.93q2.4-1.16,5-2.36c-.86-2-1.69-3.92-2.49-5.84,3.64-1.77,7.54-3.57,11.64-5.36q.94,3.09,2,6.27,2.53-1.08,5.15-2.16Q112.95,149.91,114.51,155Zm-14.15,18.29q-1.92-4.12-3.71-8.16c5.74-2.42,12.07-5,18.73-7.58,1,2.93,2,5.89,3.07,8.85C112.07,168.78,106,171.11,100.36,173.28Zm4.88,9.31c-1.13-2.33-2.25-4.66-3.34-7,5.45-2.06,11.35-4.27,17.5-6.55q1.34,3.76,2.71,7.51C116.22,178.68,110.55,180.71,105.24,182.59Zm10.38,19.91c-3.17-5.64-6.28-11.5-9.25-17.4,5.35-1.8,11.06-3.76,17-5.81,2.37,6.28,4.79,12.5,7.21,18.47C125.41,199.46,120.41,201.05,115.62,202.5ZM154,161.15l-6.81,2.47c-2.4-8-4.79-15.93-7.12-23.57-1.38.49-2.77,1-4.15,1.5-.48,3.63-1,7.33-1.42,11l6.53.32c.76,2.9,1.53,5.81,2.29,8.72l-10-.38c-.34,2.8-.69,5.61-1,8.41l-7.6,2.77c0-3.86,0-7.74.07-11.61l-5.68-.24c-1-3-2-5.89-3-8.79,2.87.11,5.8.22,8.78.36,0-2.19,0-4.36.07-6.52-3.56,1.36-7.09,2.74-10.53,4.12-1.16-3.49-2.29-6.92-3.36-10.27,11.28-4.72,23.57-9.29,35.47-13.27C149,137.11,151.52,149.1,154,161.15Zm-33.71,26.66-5.21,1.76q1.56,3.24,3.15,6.41,2.52-.81,5.1-1.66C122.29,192.17,121.27,190,120.27,187.81Zm17.89,7.09L133,196.63c-2.64-6.15-5.3-12.55-7.91-19l6.61-2.36C133.87,181.93,136,188.54,138.16,194.9Zm16.78-6.29c-4.72,1.75-9.46,3.45-14.17,5.08-2.87-6.93-5.81-14.17-8.7-21.44l7.21-2.61c2,5.83,3.94,11.65,5.88,17.31l2.61-.93c-1-2.5-2.05-5-3.1-7.58l6.39-2.33C152.38,180.34,153.68,184.52,154.94,188.61Zm2.52-18.94c-4.61,1.71-9.29,3.42-14,5.11l-2.31-6.32c4.84-1.75,9.7-3.53,14.49-5.28C156.27,165.35,156.87,167.51,157.46,169.67Zm5,16.26-4.94,1.86c-1.66-4.43-3.37-9-5.1-13.56l6-2.21C159.84,176.72,161.2,181.38,162.51,185.93Z"/><path class="cls-1" d="M206.65,130.46c-1.31.36-2.7.75-4.15,1.18.52,1.81,1,3.64,1.5,5.46-3.36,1.1-7.15,2.36-11.29,3.75.75,2.66,1.47,5.35,2.16,8,4.49-1.68,8.53-3.2,12-4.52q.68,3.42,1.29,6.84c-3.3,1.45-7.16,3.07-11.47,4.83.68,2.74,1.33,5.47,2,8.17,4.4-2,8.29-3.85,11.53-5.53.28,1.71.55,3.4.81,5.09-7.39,4.26-18.52,9.43-31.33,14.74-3.12-7.09-6.5-14.46-10-21.86l8.73-3.19c2,5.69,4,11.38,5.83,17,2.66-1.1,5.23-2.19,7.69-3.24-2.74-7.52-5.78-15.28-9-23-4.6,1.58-9.47,3.29-14.53,5.07-.85-1.9-1.72-3.79-2.58-5.67-2.43.83-4.89,1.69-7.39,2.56-3.14-6.2-6.3-12.29-9.39-18.07,7.73-2.58,15.26-4.91,22.31-6.93-.87-1.9-1.75-3.76-2.62-5.58,4.94-1.35,9.66-2.54,14.09-3.57q1.2,2.66,2.35,5.43c6.22-1.55,11.82-2.77,16.72-3.67C203.61,119.11,205.22,124.73,206.65,130.46Zm-9.66-5.7c-8.88,2.3-19.81,5.53-31.78,9.44.48,1.22,1,2.46,1.45,3.7,12-4,22.88-7.33,31.65-9.75C197.88,127,197.44,125.88,197,124.76Z"/><path class="cls-1" d="M145.47,215.66a82.93,82.93,0,1,1,28.34-5A82.52,82.52,0,0,1,145.47,215.66Zm.1-165.22a82.55,82.55,0,1,0,34.78,7.76A82.41,82.41,0,0,0,145.57,50.44Z"/><path class="cls-1" d="M145.46,226.51a93.84,93.84,0,1,1,32.06-5.7A93.2,93.2,0,0,1,145.46,226.51Zm0-183.17a89.56,89.56,0,1,0,84.24,58.93A89.08,89.08,0,0,0,145.43,43.34Z"/><rect class="cls-1" x="114.49" y="37.92" width="1.54" height="23.68" transform="translate(-10.07 42.42) rotate(-20)"/><rect class="cls-1" x="50.54" y="162.38" width="23.68" height="1.54" transform="translate(-52.04 31.18) rotate(-20)"/><rect class="cls-1" x="175.01" y="204.19" width="1.54" height="23.68" transform="translate(-63.29 73.15) rotate(-20)"/><rect class="cls-1" x="216.82" y="101.87" width="23.68" height="1.54" transform="translate(-21.31 84.4) rotate(-20)"/><path class="cls-2" d="M271.38,29.73S261,36.34,259.9,44.34,247.73,81.9,277.64,121.9s84.17,35.82,94.95,19.13,11.13-32,11.13-32"/><path class="cls-3" d="M324.25,18s-21-6-35.7-.57c-11.08,4.05-29.18,6.52-23.05,48,1.67,11.29,16.62,68.8,52.23,80,58.36,18.42,65.63-18.76,69.41-28,9.66-23.71,3.85-40.58-6.8-54.4C373.48,54.17,353.7,23.48,324.25,18Z"/><path d="M325.12,17.19a80.51,80.51,0,0,0-17.59-2.77,55.62,55.62,0,0,0-15,1,33,33,0,0,0-3.5,1l-1.25.44-.43.15c-.89.32-1.79.61-2.68.92-4.06,1.38-8.1,3-11.52,5.6a25.13,25.13,0,0,0-8.6,13c-2.51,8.54-2,17.89-.86,26.6a97.11,97.11,0,0,0,2.7,13.09A158.89,158.89,0,0,0,282,114.44c7.51,12.93,17.93,25.51,32.27,31a96.36,96.36,0,0,0,14.64,4.1,87.15,87.15,0,0,0,13.64,1.83,51.71,51.71,0,0,0,20.83-2.88c9.26-3.5,16.29-10.6,20.59-19.41a87.44,87.44,0,0,0,3.79-9.45c.9-2.57,2-5.08,2.81-7.68a57.73,57.73,0,0,0,2.94-16.21,48.91,48.91,0,0,0-7.11-26.36c-3.2-5.42-7.27-10.47-11.09-15.47-10-13.11-22-25.7-37.28-32.61a56.62,56.62,0,0,0-12.89-4.11,2.38,2.38,0,0,0-2.05.54c-.4.43-.35,1,.3,1.14C340.66,22.13,354.79,34,366,46.93c4.05,4.68,7.74,9.64,11.41,14.61,2,2.69,4,5.31,5.78,8.16a51.77,51.77,0,0,1,5.44,11.92c3,9.78,2.29,20.1-.71,29.79-1.28,4.13-2.91,8.24-4.44,12.3-2.88,7.61-7.2,14.85-14,19.6-11.46,8-26.56,7.22-39.61,4.39-8.33-1.81-16.43-4.23-23.47-9.17a68.58,68.58,0,0,1-15.62-15.82c-8.48-11.59-14.46-25-18.92-38.56-3.78-11.49-6.39-23.23-6.15-35.41.13-6.53,1.09-13.44,4.63-19.06a22.09,22.09,0,0,1,9.5-8.11c1.75-.81,3.78-1.55,5.29-2.07,2.46-.84,4.91-1.78,7.44-2.37,8.5-2,17.69-1.06,26.16.66,1.55.31,3.1.65,4.62,1.08a2.29,2.29,0,0,0,2.05-.55C325.86,17.86,325.74,17.36,325.12,17.19Z"/><path class="cls-3" d="M321.92,52s12,2.19,22.91-2.72S363.32,5.75,373.68,8.47s33.81,18,28.9,31.09-43.57,26-46.3,31-3.82,27.81-3.82,27.81"/><path d="M321,52.69a41,41,0,0,0,8.71.47C335.2,53,341.07,52,346,49.46A16.34,16.34,0,0,0,351.6,44a67,67,0,0,0,5.06-9.07c3.21-6.6,5.84-13.55,9.65-19.84,1.24-2.05,2.77-4.39,4.74-5.65a1.71,1.71,0,0,1,.47-.24c.18-.08.14-.07.23-.08a2,2,0,0,1,.83,0,25.93,25.93,0,0,1,4.35,1.56c7.57,3.28,15,8.33,20.23,14.75,2.35,2.87,4.38,6.32,4.62,10.1a11.34,11.34,0,0,1-3.15,8.16c-4.83,5.55-11.9,9.26-18.29,12.66s-13.26,6.47-19.72,10a19.28,19.28,0,0,0-5.3,3.61c-1.52,1.74-1.82,4.76-2.2,6.93a176.9,176.9,0,0,0-2,20.16c0,.47-.06,1-.08,1.42,0,1.06,2.85.46,2.89-.41.26-5.54.7-11.1,1.38-16.61a50.18,50.18,0,0,1,1.82-9.72c.61-1.83,1.58-2.49,3.22-3.49,5.95-3.63,12.45-6.38,18.64-9.57,6.93-3.56,14.16-7.33,20-12.62a18.16,18.16,0,0,0,5.14-6.86,12.77,12.77,0,0,0-1-10.07c-3.78-7.51-11.34-13.06-18.49-17.11a40.71,40.71,0,0,0-9.71-4.24,7.72,7.72,0,0,0-6.78,1.77A23.08,23.08,0,0,0,363,16.28c-1.76,3.09-3.28,6.32-4.76,9.55-3,6.54-5.71,13.62-10.14,19.38A15.34,15.34,0,0,1,345.42,48a14.94,14.94,0,0,1-5.4,2.3,41.25,41.25,0,0,1-14.84,1.25c-.78-.07-1.57-.15-2.35-.29a2.65,2.65,0,0,0-2.05.55c-.42.39-.38.79.24.9Z"/><path d="M339.13,40.66A91.08,91.08,0,0,0,323.49,38a44.21,44.21,0,0,0-11.94.41c-2.72.52-6.19,1.62-7.8,4.06a9.42,9.42,0,0,0-1.19,4.86,36.18,36.18,0,0,0,.72,7.55,96.69,96.69,0,0,0,6.25,19.91,114,114,0,0,0,11.3,20.87c4,5.7,8.71,11.25,14.66,15,5.16,3.21,11.73,4.86,17.6,2.64,5.34-2,8.33-7,9.89-12.26a56.5,56.5,0,0,0,1.83-17.52,95.66,95.66,0,0,0-1-11.71l-.09-.59c-.22-1.28-3.12-.56-2.9.77a76.77,76.77,0,0,1,.41,23.87c-.74,4.87-2.18,10.4-6,13.8s-9.67,3-14.32,1c-5.82-2.5-10.52-7.34-14.4-12.21a99.31,99.31,0,0,1-11.72-19.18,114.74,114.74,0,0,1-7.42-19.9c-1.19-4.49-2.48-9.61-1.7-14.29a3.93,3.93,0,0,1,2.19-3.35c2.81-1.66,6.45-1.86,9.63-1.9a78.68,78.68,0,0,1,18.82,2.4l1.13.28a2.07,2.07,0,0,0,2.05-.55.78.78,0,0,0-.36-1.34Z"/><path d="M265.37,168.64s.91,30.51-20.9,29.75c0,0,22.43,3.82,24,23.65,0,0,6.11-22.12,19.84-25.17C288.26,196.87,266.49,193.57,265.37,168.64Z"/><path d="M262.47,169.42a44.39,44.39,0,0,1-.87,9.55c-1.08,5.64-3.16,11.54-7.54,15.46a14.63,14.63,0,0,1-1.88,1.36c-.6.38.25-.13-.13.08l-.7.36s-.68.31-.29.14-.45.17-.52.2l-.45.15c.78-.26-.25.05-.39.09-.53.17,0,0,.06,0l-1,.18a18.63,18.63,0,0,1-2.45.13,7.12,7.12,0,0,0-3.83.93c-.44.28-1.61,1.32-.39,1.53,7.66,1.32,15.73,5.86,19.93,12.48a23.61,23.61,0,0,1,3.5,10.76c.11,1.42,5.43-.07,5.76-1.25a51.3,51.3,0,0,1,2.67-7.19,40.09,40.09,0,0,1,8.38-12.77,18.38,18.38,0,0,1,3.28-2.55c-.18.11.48-.27.61-.33s.95-.45.53-.27l.49-.2.38-.13c-.34.1.08,0,.12,0l.78-.19c1-.24,4.13-1.92,1.58-2.31.54.08.37.07-.11,0s-1.08-.26-1.62-.42a28.16,28.16,0,0,1-5-2,27,27,0,0,1-12-12,34,34,0,0,1-3.19-13.31c-.06-1.22-5.88-.22-5.8,1.55.38,7.69,2.94,15.17,8.46,20.69a29.94,29.94,0,0,0,12.29,7.28,21.64,21.64,0,0,0,3.18.76l1.58-2.31c-11.27,2.61-17.78,13.53-21.44,23.68-.36,1-.7,2-1,3l5.76-1.25a24.21,24.21,0,0,0-8.89-16.84,36.26,36.26,0,0,0-12.75-6.53,28.2,28.2,0,0,0-2.85-.7l-4.22,2.47c8.49.24,16.47-3.25,20.84-10.69,3-5.12,4.22-11.17,4.68-17a39.93,39.93,0,0,0,.14-4.09C268.24,166.68,262.42,167.63,262.47,169.42Z"/><path class="cls-3" d="M241.81,136.86s.72,24.23-16.6,23.63c0,0,17.81,3,19,18.78,0,0,4.85-17.57,15.76-20C260,159.27,242.7,156.65,241.81,136.86Z"/><path d="M238.91,137.63a34.47,34.47,0,0,1-.65,7.31c-.82,4.46-2.41,9.15-5.83,12.3A12.74,12.74,0,0,1,231,158.3c-.07,0-.4.23,0,0l-.49.27-.41.19c-.39.18.61-.23-.08,0l-.45.15c.39-.13.3-.09,0,0-.09,0-.6.15-.2.06s-.27,0-.35.06l-.51.07c.55-.07-.3,0-.34,0a10.12,10.12,0,0,1-1.05,0,7,7,0,0,0-3.82.94c-.45.27-1.62,1.31-.39,1.53,6,1,12.4,4.6,15.71,9.81a18.83,18.83,0,0,1,2.78,8.55c.12,1.43,5.43-.06,5.76-1.25a43,43,0,0,1,3.49-8.52,29.35,29.35,0,0,1,4.46-6.47,16.24,16.24,0,0,1,2.84-2.46,7.37,7.37,0,0,1,1.3-.71c-.5.23.46-.17.55-.21-.67.24.4-.09.52-.12,1-.23,4.13-1.91,1.58-2.3.51.08.46.09,0,0s-.83-.2-1.24-.32a22.19,22.19,0,0,1-3.93-1.55,21.24,21.24,0,0,1-9.45-9.5,26.87,26.87,0,0,1-2.52-10.54c-.06-1.22-5.89-.21-5.8,1.55.31,6.14,2.36,12.09,6.77,16.5a24.06,24.06,0,0,0,9.82,5.81,19.67,19.67,0,0,0,2.63.61l1.58-2.31c-9.19,2.16-14.53,10.75-17.55,19.07-.29.8-.57,1.61-.79,2.43l5.76-1.25c-.81-9.64-8.45-16-17.27-18.63a22.53,22.53,0,0,0-2.29-.57l-4.22,2.47c7,.19,13.73-2.55,17.41-8.66,2.48-4.1,3.46-9,3.83-13.72a30.33,30.33,0,0,0,.12-3.3C244.68,134.9,238.86,135.85,238.91,137.63Z"/><path class="cls-3" d="M19.51,145s.72,24.23-16.61,23.63c0,0,17.82,3,19,18.78,0,0,4.85-17.57,15.75-20C37.68,167.44,20.4,164.82,19.51,145Z"/><path d="M16.61,145.8a35.13,35.13,0,0,1-.65,7.31c-.83,4.46-2.42,9.14-5.83,12.29a12.74,12.74,0,0,1-1.42,1.06c-.07,0-.4.23,0,0l-.5.26-.41.2c-.38.17.62-.23-.08,0l-.44.16c.39-.14.3-.09,0,0-.09,0-.6.15-.21.06s-.26.05-.34.06l-.51.08c.55-.07-.31,0-.34,0-.43,0-.76,0-1,0a7.12,7.12,0,0,0-3.83.94c-.44.27-1.61,1.32-.39,1.53,6,1,12.4,4.6,15.71,9.82A18.68,18.68,0,0,1,19,188.21c.12,1.42,5.44-.07,5.77-1.25a43.65,43.65,0,0,1,3.48-8.53A29.67,29.67,0,0,1,32.75,172a16.24,16.24,0,0,1,2.84-2.46,7.92,7.92,0,0,1,1.29-.72c-.49.23.46-.17.56-.2-.67.23.39-.09.52-.12,1-.24,4.12-1.92,1.58-2.31.51.08.46.09,0,0s-.83-.2-1.25-.32a22,22,0,0,1-3.93-1.55,21.34,21.34,0,0,1-9.45-9.5,27,27,0,0,1-2.51-10.54c-.07-1.21-5.89-.21-5.8,1.56.31,6.14,2.35,12.09,6.76,16.49a24,24,0,0,0,9.83,5.81,18.27,18.27,0,0,0,2.63.62l1.58-2.31c-9.19,2.15-14.54,10.75-17.55,19.07-.29.8-.57,1.61-.8,2.43l5.77-1.26C24,177,16.37,170.62,7.56,168a20.12,20.12,0,0,0-2.29-.56l-4.22,2.47c7,.19,13.73-2.55,17.41-8.67,2.48-4.1,3.46-9,3.83-13.72a33,33,0,0,0,.12-3.3C22.37,143.06,16.56,144,16.61,145.8Z"/><path class="cls-3" d="M37.33,113.86s.45,14.85-10.17,14.48c0,0,10.92,1.85,11.66,11.5,0,0,3-10.76,9.65-12.24C48.47,127.6,37.88,126,37.33,113.86Z"/><path d="M34.44,114.64a21.43,21.43,0,0,1-.86,6.37,12.35,12.35,0,0,1-2.25,4.6c-.19.22-.73.78-.75.8a6.42,6.42,0,0,1-.53.38c-.58.42.41-.22-.22.14-.24.12-.27.13-.07,0s.16-.07-.1,0-.29.11.09,0l-.24.06c.61-.33-.2,0,.26,0l-.75,0a7.1,7.1,0,0,0-3.83.94c-.44.27-1.62,1.32-.39,1.53,5.67,1,10.59,5.18,11.12,11.09.13,1.43,5.44-.07,5.77-1.25a26.52,26.52,0,0,1,2-5,18.27,18.27,0,0,1,2.48-3.74,9.44,9.44,0,0,1,1.56-1.47,3.71,3.71,0,0,1,.69-.44c.18-.09.31-.16.05,0,.65-.36-.47.11.26-.06,1-.25,4.12-1.92,1.57-2.31.64.1.4.08,0,0s-.79-.21-1.17-.35a12.24,12.24,0,0,1-3.4-1.76c-3.64-2.61-5.27-6.72-5.51-11.11-.06-1.22-5.89-.2-5.79,1.56.25,4.63,2.15,9,6,11.72a15,15,0,0,0,6.15,2.51l1.57-2.3c-6.51,1.57-10.53,7.6-12.24,13.75l5.77-1.25c-.57-6.33-6.16-10.88-12.2-11.92l-4.21,2.46c5.88.13,11.37-2.48,13.54-8.15a22.33,22.33,0,0,0,1.38-8.38C40.2,111.9,34.39,112.85,34.44,114.64Z"/><path class="cls-3" d="M240.38,36.11s8.46-22,28.12-24.49"/><path d="M243.24,35.63a41.59,41.59,0,0,1,15.42-19.36A26,26,0,0,1,263,14l.58-.21.51-.18.37-.11.76-.21a8.13,8.13,0,0,1,1.11-.25c.54-.1,1.08-.18,1.63-.25.86-.12,3.13-.64,3.37-1.68s-1.87-.79-2.36-.72c-13.57,1.79-24.13,11.37-30.15,23.24a30.89,30.89,0,0,0-1.35,2.92c-.41,1.06,1.93.8,2.36.73,1-.16,3-.6,3.37-1.68Z"/><path class="cls-3" d="M228,25.78s8.47-22,28.13-24.49"/><path d="M230.85,25.31A41.5,41.5,0,0,1,246.27,5.94a25.6,25.6,0,0,1,4.38-2.24l.58-.21c.06,0,.78-.27.5-.18s.31-.09.37-.11l.77-.21a8,8,0,0,1,1.1-.25c.54-.1,1.09-.18,1.63-.25.86-.12,3.14-.64,3.38-1.68S257.11,0,256.61.09c-13.56,1.79-24.12,11.37-30.15,23.24-.48,1-1,1.92-1.35,2.93s1.93.79,2.37.72c1-.16,3-.6,3.37-1.67Z"/><path class="cls-3" d="M406.88,84.07s11.84,20.39,1.46,37.27"/><path d="M404,84.85a42.86,42.86,0,0,1,3.35,7.78,40.44,40.44,0,0,1,2.11,17.88,29.22,29.22,0,0,1-4,11.3c-.6,1,2.06.78,2.36.73,1.14-.19,2.73-.61,3.37-1.68,6.43-10.63,4.9-23.92,0-34.82-.43-.93-.87-1.86-1.38-2.75-.9-1.55-6.37.55-5.79,1.56Z"/></g></g></svg>