<svg xmlns="http://www.w3.org/2000/svg" width="19.05mm" height="19.05mm" viewBox="0 0 54 54"><defs><style>.cls-1{fill:none;}.cls-2{fill:#fff;}</style></defs><g id="レイヤー_2" data-name="レイヤー 2"><g id="レイヤー_1-2" data-name="レイヤー 1"><rect class="cls-1" width="54" height="54"/><path class="cls-2" d="M18.34,46.07c17.12,0,26.48-14.19,26.48-26.49,0-.4,0-.8,0-1.2a18.86,18.86,0,0,0,4.65-4.82A18.73,18.73,0,0,1,44.09,15a9.37,9.37,0,0,0,4.09-5.15,18.61,18.61,0,0,1-5.91,2.26,9.31,9.31,0,0,0-15.86,8.49A26.44,26.44,0,0,1,7.23,10.9a9.32,9.32,0,0,0,2.88,12.43,9.31,9.31,0,0,1-4.22-1.17v.12a9.3,9.3,0,0,0,7.46,9.12,9.17,9.17,0,0,1-4.2.16A9.33,9.33,0,0,0,17.85,38,18.72,18.72,0,0,1,6.29,42a18.38,18.38,0,0,1-2.22-.14,26.36,26.36,0,0,0,14.27,4.18"/></g></g></svg>