<svg xmlns="http://www.w3.org/2000/svg" width="19.05mm" height="19.05mm" viewBox="0 0 54 54"><defs><style>.cls-1{fill:none;}.cls-2{fill:#126eaa;}</style></defs><g id="レイヤー_2" data-name="レイヤー 2"><g id="レイヤー_1-2" data-name="レイヤー 1"><rect class="cls-1" width="54" height="54"/><path class="cls-2" d="M47.25,23.62c0-9.06-9.08-16.43-20.23-16.43S6.78,14.56,6.78,23.62c0,8.11,7.2,14.91,16.92,16.2.66.14,1.56.43,1.79,1a4.19,4.19,0,0,1,.06,1.83s-.24,1.42-.29,1.73c-.08.51-.4,2,1.76,1.09s11.65-6.86,15.9-11.75h0C45.85,30.5,47.25,27.24,47.25,23.62ZM19.88,28.09a.76.76,0,0,1-.76.76H13.81a.44.44,0,0,1-.27-.11h0a.37.37,0,0,1-.11-.27V20a.76.76,0,0,1,.76-.76h.69a.76.76,0,0,1,.76.76v6.27a.37.37,0,0,0,.36.37h3.49a.39.39,0,0,1,.4.39Zm3.42,0a.75.75,0,0,1-.76.75h-.69a.75.75,0,0,1-.76-.75V20a.76.76,0,0,1,.76-.76h1a.4.4,0,0,1,.4.39Zm9.77,0a.75.75,0,0,1-.76.75H31a.47.47,0,0,1-.1-.1L27.54,24.1a.36.36,0,0,0-.65.21v3.78a.75.75,0,0,1-.76.75h-.7a.75.75,0,0,1-.75-.75V20a.76.76,0,0,1,.76-.76h1.23l0,0h0l0,0h0l0,0h0l0,0h0l0,0L30.21,24a.36.36,0,0,0,.65-.22V20a.76.76,0,0,1,.76-.76h1.05a.4.4,0,0,1,.4.39Zm7.84-7.4a.76.76,0,0,1-.76.76H37a.36.36,0,0,0-.36.36v.77a.36.36,0,0,0,.36.36h3.13a.76.76,0,0,1,.76.76v.69a.76.76,0,0,1-.76.76H37a.36.36,0,0,0-.36.36v.76a.37.37,0,0,0,.36.37h3.13a.76.76,0,0,1,.76.75v.7a.76.76,0,0,1-.76.76H34.84a.44.44,0,0,1-.27-.11h0a.37.37,0,0,1-.11-.27V19.63a.39.39,0,0,1,.11-.27h0a.39.39,0,0,1,.27-.11h5.31a.76.76,0,0,1,.76.76Z"/></g></g></svg>