<svg xmlns="http://www.w3.org/2000/svg" width="20.46mm" height="19.05mm" viewBox="0 0 58 54"><defs><style>.cls-1{fill:none;}.cls-2{fill:#fff;}</style></defs><g id="レイヤー_2" data-name="レイヤー 2"><g id="レイヤー_1-2" data-name="レイヤー 1"><rect class="cls-1" x="2.25" width="54" height="54"/><path class="cls-2" d="M24,31.14H3v-24H42v7h1.94C44.24,13.86,45,14,45,14V6.63a1.5,1.5,0,0,0-1.51-1.49H1.5A1.5,1.5,0,0,0,0,6.64v29a1.5,1.5,0,0,0,1.5,1.5H15v2H8.5A1.5,1.5,0,0,0,7,40.64v2.5H24c0-.1,0-.19,0-.28Zm32.14-2H45.86A1.86,1.86,0,0,0,44,31V47.28a1.86,1.86,0,0,0,1.86,1.86H56.14A1.86,1.86,0,0,0,58,47.28V31A1.86,1.86,0,0,0,56.14,29.14ZM51.3,49a.67.67,0,1,1,.67-.67A.67.67,0,0,1,51.3,49Zm5.1-1.88H45.6a.6.6,0,0,1-.6-.6V31.74a.6.6,0,0,1,.6-.6H56.4a.6.6,0,0,1,.6.6V46.53A.6.6,0,0,1,56.4,47.14Zm-27.51-29H44.12A.88.88,0,0,1,45,19v8.37a4.29,4.29,0,0,1,1.4-.25H47V17.88a2.74,2.74,0,0,0-2.74-2.74H28.74A2.74,2.74,0,0,0,26,17.88V42.39a2.75,2.75,0,0,0,2.74,2.75H43v-3H28.89a.89.89,0,0,1-.89-.89V19A.89.89,0,0,1,28.89,18.14Zm4.81,25h5.23c.41-.21.74.13.74.54s-.33.75-.74.46H33.7c-.41.29-.75,0-.75-.46S33.29,42.93,33.7,43.14Z"/></g></g></svg>