<?xml version="1.0" encoding="UTF-8"?><svg xmlns="http://www.w3.org/2000/svg" width="210" height="210" viewBox="0 0 210 210"><defs><style>.d{fill:#fff;}.e{fill:#f1f1f1;}</style></defs><g id="a"/><g id="b"><g id="c"><rect class="e" width="210" height="210"/><g><path class="d" d="M100.91,92.24c-6.99,0-12.65,5.71-12.65,12.76s5.66,12.76,12.65,12.76,12.65-5.71,12.65-12.76-5.66-12.76-12.65-12.76Z"/><path class="d" d="M146.25,74.11h-11.93c-2.66,0-5.08-1.58-6.17-4.03l-3.57-8c-1.09-2.45-3.51-4.02-6.17-4.02h-35c-2.66,0-5.08,1.58-6.17,4.02l-3.57,8c-1.09,2.45-3.5,4.03-6.17,4.03h-11.93c-3.74,0-6.76,3.06-6.76,6.82v51.35c0,3.77,3.03,6.82,6.76,6.82h90.68c3.73,0,6.76-3.06,6.76-6.82v-51.35c0-3.77-3.03-6.82-6.76-6.82Zm-45.34,54.56c-12.96,0-23.47-10.6-23.47-23.67s10.5-23.67,23.47-23.67,23.47,10.6,23.47,23.67-10.5,23.67-23.47,23.67Z"/></g></g></g></svg>