<svg xmlns="http://www.w3.org/2000/svg" width="19.05mm" height="19.05mm" viewBox="0 0 54 54"><defs><style>.cls-1{fill:none;}.cls-2{fill:#fff;}</style></defs><g id="レイヤー_2" data-name="レイヤー 2"><g id="レイヤー_1-2" data-name="レイヤー 1"><rect class="cls-1" width="54" height="54"/><path class="cls-2" d="M51.72,23.23C51.72,12.05,40.52,3,26.75,3s-25,9.09-25,20.27c0,10,8.88,18.4,20.88,20,.81.18,1.92.54,2.2,1.24A5.19,5.19,0,0,1,25,46.7s-.29,1.76-.36,2.14c-.11.63-.5,2.47,2.16,1.35s14.38-8.47,19.62-14.5h0C50,31.72,51.72,27.7,51.72,23.23ZM17.81,29.61c.14.27-.35.08-.35.08h-7s-.24.36-.33.28h0a1.64,1.64,0,0,0-.3-.33V18.74a6.48,6.48,0,0,0,.65-1h1.76a8.67,8.67,0,0,0,.59,1v9h4.65c.27-.31.49-.1.35.17Zm4,0c.36.26.14.48-.13.07H19.93c-.27.41-.49.19-1.12-.07V18.74a1.8,1.8,0,0,0,1.12-1h1.75c.27.56.49.78.13,1Zm13,0a1.48,1.48,0,0,1-1.07.07H32s-.08.4-.12.39h-.08l0,0h0l0,0h0a.68.68,0,0,1-.12-.12l-4.78-6.75v6.47c-.22.26-.43.48-.7.07H24.36c-.27.41-.49.19-.55-.07V18.74a6.32,6.32,0,0,1,.55-1h1.75v.56h.21l0,0h.06l0,0h0l0,0h0a.1.1,0,0,1,0,0l5.3,6.73V18.74c-.31-.27-.09-.49.17-1h1.76a1.79,1.79,0,0,0,1.07,1Zm9-9.41a.49.49,0,0,1-.49.48H38.81v2h4.51a.49.49,0,0,1,.49.49v2a.49.49,0,0,1-.49.48H38.81v2h4.51a.49.49,0,0,1,.49.49v1a.49.49,0,0,1-.49.49h-7a.48.48,0,0,1-.34-.14h0a.48.48,0,0,1-.14-.34v-11a.48.48,0,0,1,.14-.34h0a.48.48,0,0,1,.34-.14h7a.49.49,0,0,1,.49.49Z"/></g></g></svg>