<svg xmlns="http://www.w3.org/2000/svg" width="69.26" height="69.26" viewBox="0 0 69.26 69.26"><defs><style>.cls-1{fill:#e8380d;}</style></defs><g id="レイヤー_2" data-name="レイヤー 2"><g id="レイヤー_1-2" data-name="レイヤー 1"><path class="cls-1" d="M5.45,34.2c-.11-.56-.21-1.11-.32-1.64A9.93,9.93,0,0,1,6,31.11c.1.59.19,1.2.29,1.82A9.69,9.69,0,0,0,5.45,34.2Zm7.06,3.1a31.2,31.2,0,0,0-5.65,3.89c-.06-.27-.12-.54-.17-.8l.18-.18c-.32-1.51-.59-2.94-.84-4.3l-.22.3c-.1-.52-.19-1-.29-1.53a11.49,11.49,0,0,1,.94-1.31c.31,2,.64,4.05,1,6.27a33.72,33.72,0,0,1,4.81-3.29C12.38,36.66,12.44,37,12.51,37.3Zm-2.72.28c-.27.18-.53.36-.77.54-.29-1.34-.54-2.63-.78-3.88l-.3.26c.11,1.34.23,2.72.37,4.13l-.64.5c-.34-2.2-.62-4.29-.87-6.27l-.24.28c-.09-.54-.18-1.06-.27-1.58l.3-.35c0-.28-.08-.56-.11-.85.33-.38.69-.77,1.09-1.15l.06.91c.16-.16.33-.31.5-.46.1.53.2,1.08.3,1.63l-.68.61q0,.59.09,1.2c.36-.34.76-.67,1.18-1C9.24,33.84,9.49,35.67,9.79,37.58Zm1.55-9.24c-.69.46-1.35.92-1.95,1.39h0c-.3.23-.58.46-.86.69-.12-.59-.24-1.18-.35-1.75.31-.27.64-.55,1-.82,0,.12,0,.24,0,.36.62-.49,1.3-1,2-1.44C11.25,27.29,11.29,27.81,11.34,28.34ZM11.45,30q-.18,1-.33,2.07l.49-.32.12,1.29-.58.37c.11,1,.24,2,.38,3.05l-.76.47c-.21-1-.41-1.94-.59-2.87-.2.13-.39.27-.57.4-.07-.4-.13-.8-.19-1.2l.55-.4.24-2c-.48.35-.94.69-1.37,1L8.6,30.69a32.11,32.11,0,0,1,2.77-2C11.4,29.1,11.42,29.56,11.45,30Z"/><path class="cls-1" d="M14.05,27.24c-.68.38-1.33.76-2,1.15-.25-.64-.48-1.26-.71-1.86.7-.45,1.43-.9,2.2-1.34C13.73,25.85,13.88,26.54,14.05,27.24Zm.79,3.13c-.56.3-1.11.61-1.64.92-.29-.67-.57-1.31-.83-1.94.62-.37,1.26-.75,1.93-1.12C14.47,28.92,14.65,29.64,14.84,30.37ZM17.64,25c.16-.33.32-.66.49-1-.54.25-1.08.5-1.6.76l-.24.53c-.76.37-1.49.76-2.2,1.16.31-.87.64-1.7,1-2.52,1.62-.84,3.34-1.62,5.12-2.35,0,.47.08,1,.13,1.46-.15.31-.29.62-.44.94l1.52-.63c.3,1.76.66,3.7,1.08,5.79-2.29,1-4.5,2-6.53,3q-.94-2.91-1.68-5.42C15.34,26.14,16.46,25.57,17.64,25Zm-2.46,6.68c.31,1.11.64,2.26,1,3.44l-1.05.53c-.51-1.09-1-2.14-1.43-3.15C14.17,32.23,14.67,32,15.18,31.69Zm.86-4.2c.08.31.15.63.24,1,.44-.23.9-.46,1.37-.68-.11-.31-.21-.62-.31-.93Zm0,5,1.28-.64c.09.82.19,1.66.3,2.5l-1,.5C16.41,34.09,16.22,33.3,16.05,32.53Zm.74-2.11,1.51-.73-.35-1-1.43.7Zm1,1.27,1.28-.6c.13.81.26,1.63.4,2.47l-1.12.51C18.12,33.26,17.93,32.47,17.75,31.69Zm2.41-6.14-1.37.61c.06.32.13.65.19,1l1.43-.64C20.33,26.18,20.25,25.86,20.16,25.55ZM21,28.48c-.1-.34-.19-.69-.29-1l-1.51.68c.07.35.14.7.22,1.06C19.92,29,20.44,28.71,21,28.48Zm-.26,1.85c.24.76.48,1.54.74,2.34l-1.1.48c-.32-.77-.63-1.52-.92-2.24Zm1.82-.77c.26.73.54,1.49.83,2.26l-1.14.47c-.38-.73-.75-1.44-1.1-2.13Z"/><path class="cls-1" d="M28.61,25.33c.47,1.26,1,2.6,1.48,4l-.87.31c-.63-1.36-1.23-2.67-1.81-3.9l-2.11.79L27,30.49l-.91.36L24,27l-.34.13L23,25.87l.36-.15c-.69-1.28-1.32-2.48-1.9-3.59l1.44-.55c-.15-.27-.28-.54-.42-.8.79-.29,1.6-.58,2.4-.85.1.27.2.54.31.82l1.54-.51L28.09,24l.31-.11c.17.45.35.91.52,1.38Zm-2.85-3.11c-.66.23-1.31.47-2,.72.3.71.6,1.46.93,2.23l2.05-.76Q26.24,23.27,25.76,22.22Zm-.7,2.53c-.3-.59-.61-1.16-.89-1.7q.69-.27,1.38-.51c.23.57.45,1.16.69,1.78ZM27,28.89c-.37-.78-.74-1.53-1.09-2.26.37-.15.75-.28,1.12-.42l1,2.31Zm2.81-5.8-1.41.47c-.6-1.48-1.16-2.83-1.66-4,.71-.23,1.41-.44,2.12-.64Zm5.07,4.59c-1.42.46-2.86.95-4.3,1.46-.71-1.92-1.38-3.71-2-5.35,1.61-.55,3.23-1.06,4.83-1.54C33.85,23.9,34.35,25.72,34.86,27.68ZM33.21,22l-1.28.38c-.73-1.41-1.41-2.69-2-3.81.67-.19,1.33-.36,2-.53C32.29,19.22,32.73,20.55,33.21,22Zm-2.56,2.64c.29,1,.59,2,.9,3.12l1.78-.6c-.4-1.05-.79-2.05-1.16-3Z"/><path class="cls-1" d="M43.76,18.59l-1.42.28c.59,1.76,1.17,3.87,1.74,6.21l-1,.26c-.92-2.27-1.83-4.33-2.7-6.06-1,.22-2.06.46-3.11.72.39.85.8,1.78,1.21,2.76l-1.32.36c-.59-.94-1.17-1.82-1.72-2.65l-1.49.4c-.38-.56-.74-1.1-1.1-1.61l1.46-.37c-.29-.41-.58-.79-.86-1.16.82-.19,1.63-.38,2.43-.55.2.37.41.77.62,1.18,1-.23,2-.45,3-.65-.23-.42-.46-.81-.68-1.17.81-.15,1.61-.29,2.39-.41.17.35.33.74.5,1.16L43,17.07C43.26,17.54,43.51,18.05,43.76,18.59Z"/><path class="cls-1" d="M50.58,20.62c-2.29.32-2.44.31-5.14.83-.4-.48-.79-.95-1.17-1.39,2.83-.52,3.1-.49,5.51-.83C50.05,19.67,50.32,20.14,50.58,20.62Z"/><path class="cls-1" d="M57.77,18.52l-2.42.33c.52,1,1,2.16,1.46,3.33l-.71.08a32.83,32.83,0,0,0-2-3.24l-2.7.35c-.35-.44-.71-.87-1.08-1.28l2.81-.39c-.34-.43-.69-.84-1-1.22L49.8,17c-.44-.46-.89-.89-1.34-1.28a51.64,51.64,0,0,0,6.37-1.93,18.38,18.38,0,0,1,1.07,1.63q-1.08.35-2.16.63c.3.45.6.92.89,1.42.88-.12,1.73-.26,2.59-.41C57.41,17.54,57.6,18,57.77,18.52Z"/><path class="cls-1" d="M23.27,42.73c-2.67,1.05-5.18,2.09-7.43,3.07-.5-1.12-1-2.21-1.45-3.27.59-.29,1.19-.58,1.82-.87-.31-.72-.62-1.44-.91-2.14,1.33-.65,2.76-1.31,4.26-2,.23.75.47,1.52.72,2.29l1.89-.79C22.52,40.26,22.89,41.49,23.27,42.73Zm-5.18,6.7c-.47-1-.93-2-1.36-3,2.1-.89,4.42-1.83,6.86-2.78.37,1.07.74,2.16,1.13,3.24C22.38,47.78,20.14,48.63,18.09,49.43Zm1.79,3.41c-.42-.86-.83-1.71-1.23-2.56,2-.76,4.16-1.57,6.41-2.4l1,2.75Zm3.8,7.29c-1.16-2.06-2.3-4.21-3.39-6.37,2-.66,4.05-1.38,6.22-2.13.86,2.3,1.75,4.58,2.64,6.77C27.26,59,25.43,59.6,23.68,60.13ZM37.73,45l-2.49.91c-.88-2.92-1.76-5.84-2.61-8.64l-1.52.55c-.18,1.33-.35,2.69-.53,4.05L33,42l.84,3.19L30.17,45c-.12,1-.25,2.06-.37,3.08l-2.79,1c0-1.42,0-2.84,0-4.25L25,44.78c-.38-1.08-.75-2.16-1.11-3.22l3.22.13c0-.8,0-1.6,0-2.39-1.3.5-2.6,1-3.86,1.51-.42-1.28-.84-2.54-1.23-3.76,4.13-1.73,8.64-3.41,13-4.86C35.89,36.17,36.83,40.57,37.73,45ZM25.38,54.75l-1.91.65c.38.79.77,1.57,1.16,2.34l1.86-.6Zm6.55,2.6L30.06,58c-1-2.25-1.94-4.6-2.9-7l2.42-.87C30.36,52.6,31.15,55,31.93,57.35ZM38.08,55c-1.73.64-3.46,1.27-5.19,1.86-1.05-2.54-2.13-5.19-3.19-7.85l2.65-1c.72,2.14,1.44,4.27,2.15,6.35l1-.35c-.38-.91-.76-1.84-1.14-2.77l2.34-.86ZM39,48.1c-1.68.63-3.4,1.26-5.11,1.88l-.84-2.32,5.3-1.93C38.57,46.52,38.79,47.31,39,48.1Zm1.85,6-1.8.68-1.87-5L39.37,49C39.88,50.69,40.38,52.39,40.85,54.06Z"/><path class="cls-1" d="M57,33.74l-1.52.43c.19.66.37,1.33.55,2-1.23.4-2.62.86-4.14,1.38.27,1,.54,2,.79,2.94l4.4-1.66c.17.84.33,1.67.47,2.51-1.21.53-2.62,1.12-4.2,1.77.25,1,.49,2,.72,3,1.61-.73,3-1.41,4.22-2l.3,1.86a108.15,108.15,0,0,1-11.48,5.4c-1.14-2.6-2.38-5.3-3.67-8l3.19-1.17c.75,2.08,1.47,4.17,2.14,6.22,1-.41,1.92-.8,2.82-1.19-1-2.75-2.12-5.6-3.31-8.41-1.68.58-3.47,1.2-5.32,1.86-.32-.7-.63-1.39-1-2.08l-2.7.94C38.19,37.23,37,35,35.9,32.88c2.83-1,5.59-1.8,8.17-2.54q-.48-1.05-1-2c1.81-.5,3.54-.94,5.16-1.31.29.65.58,1.31.86,2,2.28-.57,4.33-1,6.13-1.35C55.91,29.58,56.5,31.64,57,33.74Zm-3.54-2.09c-3.25.84-7.26,2-11.65,3.46l.54,1.36C46.77,35,50.76,33.78,54,32.89Z"/><path class="cls-1" d="M34.61,65A30.36,30.36,0,1,1,45,63.11,30.24,30.24,0,0,1,34.61,65Zm0-60.53A30.27,30.27,0,1,0,47.39,7.27,30.17,30.17,0,0,0,34.65,4.42Z"/><path class="cls-1" d="M34.61,68.93a34.41,34.41,0,1,1,11.74-2.09A34.17,34.17,0,0,1,34.61,68.93Zm0-67.11A32.82,32.82,0,1,0,65.46,23.41,32.74,32.74,0,0,0,34.6,1.82Z"/><rect class="cls-1" x="23.26" y="-0.17" width="0.56" height="8.68" transform="translate(-0.01 8.3) rotate(-20)"/><rect class="cls-1" x="-0.17" y="45.43" width="8.67" height="0.56" transform="translate(-15.39 4.18) rotate(-20)"/><rect class="cls-1" x="45.43" y="60.75" width="0.56" height="8.67" transform="translate(-19.5 19.56) rotate(-20)"/><rect class="cls-1" x="60.75" y="23.26" width="8.67" height="0.56" transform="translate(-4.13 23.68) rotate(-20)"/></g></g></svg>