<svg xmlns="http://www.w3.org/2000/svg" width="19.05mm" height="19.05mm" viewBox="0 0 54 54"><defs><style>.cls-1{fill:none;}.cls-2{fill:#126eaa;}</style></defs><g id="レイヤー_2" data-name="レイヤー 2"><g id="レイヤー_1-2" data-name="レイヤー 1"><rect class="cls-1" width="54" height="54"/><path class="cls-2" d="M36.22,5.79H17.81a3,3,0,0,0-3,3v36a3,3,0,0,0,3,3H36.22a3,3,0,0,0,3-3v-36A3,3,0,0,0,36.22,5.79ZM27,44.94a.9.9,0,1,1,.9-.9A.9.9,0,0,1,27,44.94Zm10.33-3.69H16.68V11H37.35Z"/><path class="cls-2" d="M26.94,33.34a13.81,13.81,0,0,1-5.3-1,4.93,4.93,0,0,1-1.53-1,1.51,1.51,0,0,1-.5-1,1.25,1.25,0,0,1,.19-.65,2.82,2.82,0,0,1,.61-.66.37.37,0,0,0,.06-.52.36.36,0,0,0-.52-.06,3.19,3.19,0,0,0-.79.86,2.08,2.08,0,0,0-.29,1,2.22,2.22,0,0,0,.71,1.56,6.8,6.8,0,0,0,3,1.57,16,16,0,0,0,4.41.59.38.38,0,1,0,0-.75Z"/><path class="cls-2" d="M28.06,21V19.93a5.71,5.71,0,0,1-2.23,0V21a5.71,5.71,0,0,0,2.23,0Z"/><path class="cls-2" d="M28.06,19.18v-.89a1.12,1.12,0,0,0-2.23,0v.89a5.71,5.71,0,0,0,2.23,0Z"/><path class="cls-2" d="M28.06,21.8a6.27,6.27,0,0,1-2.23,0v.76c0,3-3.55,3-3.55,8.05a9.06,9.06,0,0,0,4.66,1,9.08,9.08,0,0,0,4.67-1c0-5.1-3.55-5.1-3.55-8V21.8Z"/></g></g></svg>