<svg xmlns="http://www.w3.org/2000/svg" width="19.4mm" height="19.76mm" viewBox="0 0 55 56.01"><defs><style>.cls-1{fill:none;}.cls-2{fill:#fff;}</style></defs><g id="レイヤー_2" data-name="レイヤー 2"><g id="レイヤー_1-2" data-name="レイヤー 1"><rect class="cls-1" x="0.75" y="0.87" width="54" height="54"/><path class="cls-2" d="M36.09,21.41l-2.92-1.22c-.66,1-1.37,1.95-2.07,2.9L35,24.72V51L20,44.74v-18c-.59-.77-1.28-1.67-2-2.63V44.82L4,50.68V24.49l11.05-4.76c-.73-1.08-1.39-2.1-1.92-3L0,22.16V56l18.91-7.92,17.18,7.19L55,47.36V13.49ZM52,44.68,38,50.54V25.08l14-5.86Z"/><path class="cls-2" d="M24.48,27.82s6.87-8.58,9.27-12.9A10.06,10.06,0,0,0,31.79,3,10.33,10.33,0,0,0,17.17,3a10.06,10.06,0,0,0-2,11.89C17.61,19.24,24.48,27.82,24.48,27.82Zm0-23.76a6.28,6.28,0,1,1-6.28,6.28A6.28,6.28,0,0,1,24.48,4.06Z"/></g></g></svg>