<svg xmlns="http://www.w3.org/2000/svg" width="49" height="38" viewBox="0 0 49 38"><defs><style>.cls-1{fill:#666767;}</style></defs><g id="レイヤー_2" data-name="レイヤー 2"><g id="レイヤー_1-2" data-name="レイヤー 1"><path class="cls-1" d="M24,15.84a6,6,0,1,0,5.91,6A5.93,5.93,0,0,0,24,15.84Z"/><path class="cls-1" d="M45.82,8H40.53a3.14,3.14,0,0,1-2.87-1.86L35.75,1.88A3.16,3.16,0,0,0,32.86,0H15.15a3.13,3.13,0,0,0-2.87,1.87L10.37,6.14A3.14,3.14,0,0,1,7.5,8H3.18A3.16,3.16,0,0,0,0,11.15v23.7A3.16,3.16,0,0,0,3.18,38H45.82A3.17,3.17,0,0,0,49,34.85V11.15A3.17,3.17,0,0,0,45.82,8ZM24,32.85a11.05,11.05,0,1,1,11-11A11,11,0,0,1,24,32.85Z"/></g></g></svg>