<svg xmlns="http://www.w3.org/2000/svg" width="19.05mm" height="19.05mm" viewBox="0 0 54 54"><defs><style>.cls-1{fill:none;}.cls-2{fill:#fff;}</style></defs><g id="レイヤー_2" data-name="レイヤー 2"><g id="レイヤー_1-2" data-name="レイヤー 1"><rect class="cls-1" width="54" height="54"/><path class="cls-2" d="M44.65,23.33c-1.63-8.89-8.76-16-17.78-16.5C15.8,6.21,6.64,15.73,6.64,27.56c0,10.36,7,19,16.2,20.51V33.56h-5v-6h5V23.24c0-4.92,3-7.64,7.53-7.64a31.58,31.58,0,0,1,4.47.38v4.58H32.22c-2.58,0-3.38,1.52-3.38,3.07v3.93h5.32l-.85,6H28.84V48.07C39.24,46.3,46.87,35.5,44.65,23.33Z"/></g></g></svg>