<svg xmlns="http://www.w3.org/2000/svg" width="19.05mm" height="19.05mm" viewBox="0 0 54 54"><defs><style>.cls-1{fill:none;}.cls-2{fill:#fff;}</style></defs><g id="レイヤー_2" data-name="レイヤー 2"><g id="レイヤー_1-2" data-name="レイヤー 1"><rect class="cls-1" width="54" height="54"/><path class="cls-2" d="M26.75,11.43c5.12,0,5.72,0,7.74.11a10.76,10.76,0,0,1,3.56.66,5.93,5.93,0,0,1,2.2,1.44,6,6,0,0,1,1.44,2.2,10.76,10.76,0,0,1,.66,3.56c.09,2,.11,2.62.11,7.74s0,5.72-.11,7.74a10.75,10.75,0,0,1-.66,3.55,6,6,0,0,1-1.44,2.21,5.9,5.9,0,0,1-2.2,1.43,10.76,10.76,0,0,1-3.56.66c-2,.09-2.62.11-7.74.11s-5.72,0-7.74-.11a10.75,10.75,0,0,1-3.55-.66,6.28,6.28,0,0,1-3.64-3.64,10.75,10.75,0,0,1-.66-3.55c-.09-2-.11-2.63-.11-7.74s0-5.72.11-7.74a10.76,10.76,0,0,1,.66-3.56,6.36,6.36,0,0,1,3.64-3.64A10.75,10.75,0,0,1,19,11.54c2-.09,2.63-.11,7.74-.11m0-3.45c-5.2,0-5.85,0-7.89.12A13.82,13.82,0,0,0,14.21,9a9.79,9.79,0,0,0-5.61,5.6,14.34,14.34,0,0,0-.89,4.65c-.09,2-.11,2.69-.11,7.9s0,5.85.11,7.89a14.28,14.28,0,0,0,.89,4.65,9.77,9.77,0,0,0,5.61,5.61,14.34,14.34,0,0,0,4.65.89c2,.09,2.69.11,7.89.11s5.86,0,7.9-.11a14.34,14.34,0,0,0,4.65-.89,9.79,9.79,0,0,0,5.6-5.61A13.77,13.77,0,0,0,45.79,35c.1-2,.12-2.69.12-7.89s0-5.86-.12-7.9a13.82,13.82,0,0,0-.89-4.65A9.81,9.81,0,0,0,39.3,9a13.82,13.82,0,0,0-4.65-.89C32.61,8,32,8,26.75,8Z"/><path class="cls-2" d="M26.75,17.3a9.84,9.84,0,1,0,9.84,9.84A9.83,9.83,0,0,0,26.75,17.3Zm0,16.22a6.39,6.39,0,1,1,6.39-6.38A6.38,6.38,0,0,1,26.75,33.52Z"/><circle class="cls-2" cx="36.98" cy="16.91" r="2.3"/></g></g></svg>