<svg xmlns="http://www.w3.org/2000/svg" width="19.05mm" height="19.05mm" viewBox="0 0 54 54"><defs><style>.cls-1{fill:none;}.cls-2{fill:#126eaa;}</style></defs><g id="レイヤー_2" data-name="レイヤー 2"><g id="レイヤー_1-2" data-name="レイヤー 1"><rect class="cls-1" width="54" height="54"/><path class="cls-2" d="M34.77,37.59A9.57,9.57,0,0,0,30,33V29h0v0a15.65,15.65,0,0,1-3,.29,16.11,16.11,0,0,1-2.8-.25L24,29h0v4a9,9,0,0,0-2.78,1.87l-.09.09-.26.28-.18.19-.15.18-.26.33,0,0a11.5,11.5,0,0,0-1,1.58h0v0Z"/><polygon class="cls-2" points="15.19 40.22 15.19 48.22 15.19 48.25 15.19 48.25 15.19 48.27 38.85 48.27 38.85 40.22 15.19 40.22"/><path class="cls-2" d="M47.36,7.77a3.51,3.51,0,0,0-2.63-1.2h-4V5.32h0v0H13.31V6.57h-4a3.48,3.48,0,0,0-2.63,1.2,4.75,4.75,0,0,0-1,3.78,8.79,8.79,0,0,0,4,6.61,14,14,0,0,0,5.83,2.35,13.7,13.7,0,0,0,23.09,0,13.88,13.88,0,0,0,5.83-2.35,8.75,8.75,0,0,0,4-6.61A4.75,4.75,0,0,0,47.36,7.77ZM45.5,11.26v.16a5.86,5.86,0,0,1-2.72,4.38A11.63,11.63,0,0,1,40.58,17l-.46.17a13.74,13.74,0,0,0,.6-4V9.43h4a.64.64,0,0,1,.48.23A2.13,2.13,0,0,1,45.5,11.26ZM26.85,18.33,24,19.9a.35.35,0,0,1-.38,0,.34.34,0,0,1-.13-.35l.62-3.18A.35.35,0,0,0,24,16l-2.37-2.2a.36.36,0,0,1-.09-.37.36.36,0,0,1,.29-.24l3.21-.39a.35.35,0,0,0,.28-.2L26.7,9.7A.36.36,0,0,1,27,9.5a.34.34,0,0,1,.31.2l1.37,2.93a.33.33,0,0,0,.27.2l3.21.39a.36.36,0,0,1,.2.61L30,16a.35.35,0,0,0-.11.32l.63,3.18a.37.37,0,0,1-.14.35.35.35,0,0,1-.38,0l-2.82-1.57A.34.34,0,0,0,26.85,18.33ZM11.26,15.8a5.9,5.9,0,0,1-2.72-4.37v-.17a2.08,2.08,0,0,1,.3-1.6.61.61,0,0,1,.48-.23h4v3.7a14.08,14.08,0,0,0,.45,3.46c.05.19.09.39.15.58A11.38,11.38,0,0,1,11.26,15.8Z"/></g></g></svg>