<svg xmlns="http://www.w3.org/2000/svg" width="140.37" height="140.37" viewBox="0 0 140.37 140.37"><defs><style>.cls-1{fill:#0074b6;}</style></defs><g id="レイヤー_2" data-name="レイヤー 2"><g id="レイヤー_1-2" data-name="レイヤー 1"><path class="cls-1" d="M13.45,62.15c-.33-2.17-.61-4.24-.89-6.22a15.15,15.15,0,0,1,3.1-4.13c.32,2.25.67,4.57,1.08,7A19.35,19.35,0,0,0,13.45,62.15ZM47.06,81.4c-10.56,3.73-19.52,6.81-25.72,8.83-.44-1-.86-2.07-1.27-3.11l.85-.32a119.92,119.92,0,0,1-5.2-17.38c-.31.23-.59.46-.86.68C14.41,68,14,66,13.7,64a22.31,22.31,0,0,1,3.61-3.38,156.09,156.09,0,0,0,6.56,25.11c5.73-2.11,13.33-4.9,22-8.06Zm-12.85-.85-3.55,1.33c-2-5.34-3.7-10.72-5.11-15.87l-1.36.7C25,72.07,26.08,77.61,27.42,83l-3,1.06a170.71,170.71,0,0,1-5.76-25l-1,.75c-.4-2.11-.75-4.16-1.07-6.14.38-.33.78-.67,1.19-1-.13-1.09-.25-2.15-.37-3.2a45.65,45.65,0,0,1,4.69-3.43c.06,1.11.13,2.25.21,3.41q1.05-.67,2.19-1.35c.42,2.08.89,4.24,1.43,6.48-1.07.59-2.1,1.18-3.06,1.76.15,1.55.32,3.13.52,4.74,1.64-.94,3.44-1.89,5.36-2.85A217.68,217.68,0,0,0,34.21,80.55ZM39,45.17c-3.08,1.33-6,2.7-8.78,4.09a.06.06,0,0,0,0,0c-1.36.69-2.66,1.37-3.9,2.06-.58-2.39-1.08-4.66-1.52-6.83,1.38-.82,2.85-1.62,4.39-2.41.05.44.11.88.16,1.33,2.8-1.44,5.81-2.83,8.94-4.15C38.51,41.15,38.74,43.12,39,45.17Zm.79,6.64q-.6,4-1.07,8.09L41,59q.45,2.61,1,5.27L39.3,65.3c.84,4.1,1.8,8.28,2.85,12.42L38.73,79C37.31,75,36,71.07,34.81,67.18l-2.63,1.14q-.64-2.5-1.23-5l2.52-1.15q.3-4,.72-7.89c-2.21,1-4.31,2-6.28,3.06q-.66-2.55-1.23-5c3.74-2,8-4.08,12.56-6C39.4,48.12,39.59,50,39.81,51.81Z"/><path class="cls-1" d="M51,42.47c-2.89,1.07-5.75,2.18-8.53,3.33-1.25-2.61-2.38-5-3.39-7.3,3.07-1.28,6.25-2.48,9.47-3.6C49.28,37.2,50.1,39.73,51,42.47Zm4.5,12.71C53.08,56.09,50.66,57,48.3,58c-1.54-2.86-3-5.62-4.35-8.24,2.75-1.13,5.58-2.23,8.45-3.31C53.37,49.19,54.41,52.13,55.51,55.18Zm10-19C66,35.08,66.48,34,67,33q-3,.85-6.12,1.8c-.26.56-.53,1.13-.79,1.71-3,1-6,2-9,3.07,1.15-3,2.32-5.72,3.49-8.12,6.44-2,12.82-3.52,18.72-4.73.52,1.22,1,2.63,1.61,4.2-.33.88-.68,1.82-1,2.81q2.69-.72,5.28-1.37a201.47,201.47,0,0,1,7.46,21.5C78.47,56.65,69.65,59.77,61,63c-3.43-8.08-6.62-15.79-9.21-22.24C56.36,39.06,61,37.54,65.48,36.17Zm-8,24.53c1.74,4.62,3.57,9.4,5.41,14.13l-4.44,1.6c-2.58-4.44-5.12-8.92-7.52-13.26ZM59.8,44.47l1.39,3.82c1.86-.66,3.73-1.31,5.59-1.94l-1.7-3.68Q62.44,43.54,59.8,44.47Zm1.82,20,5.36-2c.65,3.31,1.31,6.65,2,10L64.7,74.05C63.66,70.87,62.63,67.66,61.62,64.49Zm2.52-8.09,6.18-2.2c-.63-1.38-1.26-2.74-1.88-4.08q-2.91,1-5.84,2.06C63.11,53.56,63.62,55,64.14,56.4Zm4.55,5.52c1.72-.63,3.44-1.24,5.15-1.85.79,3.23,1.57,6.52,2.34,9.8l-4.44,1.62C70.73,68.29,69.7,65.08,68.69,61.92Zm7.2-22.65q-2.53.75-5.12,1.56L72,44.6q2.73-.89,5.38-1.71C76.9,41.65,76.39,40.44,75.89,39.27ZM80.6,50.69c-.53-1.39-1.06-2.76-1.59-4.1l-5.73,1.88c.45,1.39.9,2.8,1.35,4.24C76.65,52,78.64,51.34,80.6,50.69Zm-.24,7.07c1.19,3.06,2.36,6.18,3.5,9.29l-4.1,1.51c-1.43-3-2.87-6.07-4.32-9.06ZM87,55.47c1.27,2.92,2.52,5.9,3.72,8.89l-4,1.47c-1.57-2.88-3.18-5.76-4.81-8.6Z"/><path class="cls-1" d="M104.73,42.58a140.69,140.69,0,0,1,5.9,14.62l-2.19.84a151.07,151.07,0,0,0-7-14.55c-2,.57-4.09,1.18-6.27,1.83,2.48,4.79,4.84,9.93,7,15.09l-2.76,1c-2.59-5.07-5.4-10.13-8.3-14.88L90,46.92q-1.67-2.66-3.34-5.15l1.2-.34a105.49,105.49,0,0,0-9.65-12.74c1.56-.34,3.1-.66,4.59-1-.77-.79-1.53-1.52-2.28-2.17,2.43-.43,4.76-.8,7-1.15a26.61,26.61,0,0,1,2.08,2.05l4.26-.72a53.88,53.88,0,0,1,8.31,11.87l.84-.21c.87,1.59,1.72,3.25,2.54,5ZM93.25,30.86q-2.84.6-5.87,1.29c1.67,2.39,3.36,5.09,5,8q3.21-.88,6.16-1.64A79.77,79.77,0,0,0,93.25,30.86Zm0,8c-1.49-2.2-3-4.27-4.49-6.15,1.43-.34,2.82-.65,4.17-.94,1.3,1.88,2.59,3.95,3.86,6.17C95.61,38.2,94.43,38.51,93.23,38.83Zm8.52,15.76c-1.45-3-3-5.88-4.54-8.69l3.31-1c1.42,2.81,2.78,5.73,4.06,8.7Zm4.59-19-3.62.82c-3.06-5.22-6.41-9.61-9.81-12.35,1.85-.28,3.65-.55,5.41-.84C101.27,26,104,30.37,106.34,35.63Zm13.93,17.7c-2.27.91-5.14,2-8.53,3.33a122.62,122.62,0,0,0-8.31-19.36c4.26-1,8-1.8,11.36-2.46A101.84,101.84,0,0,1,120.27,53.33ZM114.2,34l-2.81.56c-3-5-6.6-9.19-10.42-11.75,1.63-.29,3.25-.61,4.87-1C109.06,24.63,111.87,29,114.2,34Zm-4.33,7.35c1.42,3.51,2.69,7.23,3.81,11l3.63-1.28a104.05,104.05,0,0,0-4-10.61C112.22,40.76,111.07,41.05,109.87,41.36Z"/><path class="cls-1" d="M60.62,99.69c-2,.61-4.07,1.19-6,1.74,1.84,8,3.84,14,5.78,15.9l-2.91.26c-3.32-1.55-7-6.9-10.45-14.15q-5.62,1.41-10.51,2.45A44,44,0,0,0,42.2,114l-3.69.6A42.66,42.66,0,0,1,31.13,107l-3.94.76a60.52,60.52,0,0,1-4.31-6.43c1.19-.26,2.43-.54,3.73-.85-1.13-1.86-2.21-3.81-3.21-5.78q3.17-.9,7-2c.83,2.15,1.7,4.24,2.61,6.25,3.27-.85,6.85-1.84,10.71-3-.89-2.26-1.77-4.62-2.61-7,3.25-1.06,6.71-2.21,10.31-3.44.45,2.66.92,5.25,1.4,7.73,1.83-.58,3.7-1.17,5.59-1.79C59.15,94.3,59.89,97.09,60.62,99.69Z"/><path class="cls-1" d="M98.43,89a311.23,311.23,0,0,1-32.67,11.8c-1.27-2-2.57-4.13-3.9-6.36,11.64-3.72,24.33-8.33,35.32-13C97.65,84.06,98.06,86.57,98.43,89Z"/><path class="cls-1" d="M125.33,79.3a17.54,17.54,0,0,1-5.25,6c.39,4.3.63,8.35.86,12.18-.79.67-1.65,1.34-2.57,2-.74-3.4-1.56-7.08-2.61-11.1A103.92,103.92,0,0,1,104,94.65q-1.09-2.7-2.37-5.65c4.67-2.11,9-4.26,12.55-6.35q-.88-3-1.95-6.21c-3.22,2.08-6.91,4.26-10.9,6.45-1.07-2.58-2.23-5.26-3.45-8,11.69-6.5,20.75-12.4,25-16.26.42,2.86.76,5.69,1,8.46a35.17,35.17,0,0,1-5.48,5q.57,3.66,1,7.16a19.79,19.79,0,0,0,5.62-5.5C125.19,75.64,125.26,77.49,125.33,79.3Z"/><path class="cls-1" d="M70.15,131.64a61.57,61.57,0,1,1,21-3.73A61.22,61.22,0,0,1,70.15,131.64ZM70.22,9a61.33,61.33,0,1,0,25.83,5.77A61.32,61.32,0,0,0,70.22,9Z"/><path class="cls-1" d="M70.15,139.69A69.49,69.49,0,0,1,46.43,4.91a69.47,69.47,0,0,1,86.72,94.64,69.62,69.62,0,0,1-63,40.14Zm.08-136A66.6,66.6,0,1,0,98.29,9.92,66.63,66.63,0,0,0,70.23,3.66Z"/><rect class="cls-1" x="47.15" y="-0.33" width="1.14" height="17.58" transform="translate(-0.01 16.83) rotate(-20)"/><rect class="cls-1" x="-0.33" y="92.08" width="17.58" height="1.14" transform="translate(-31.18 8.48) rotate(-20)"/><rect class="cls-1" x="92.08" y="123.13" width="1.14" height="17.58" transform="translate(-39.53 39.65) rotate(-20)"/><rect class="cls-1" x="123.13" y="47.15" width="17.58" height="1.14" transform="translate(-8.37 48) rotate(-20)"/><path class="cls-1" d="M67.69,106.51l-.12,5.27c0,1-.33,1.54-1,1.8l-.33-.41,0-.09c.57-.2.84-.57.87-1.36L63.74,108l1.11-.41,2.28,2.56.08-3.42Z"/><path class="cls-1" d="M72.17,104.88l1.56,4.3-1,.38-.23-.63a2.48,2.48,0,0,1-1.27,1.29,1.16,1.16,0,0,1-1.63-.79l-1.16-3.19,1-.37L70.6,109q.23.65.75.45a2,2,0,0,0,.94-1l-1.15-3.16Z"/><path class="cls-1" d="M79.05,107.45c.37,1-.43,1.72-1.73,2.2-1.46.53-2.18.36-2.44-.35a1.13,1.13,0,0,1,0-.81.85.85,0,0,1-.42-.5,1.37,1.37,0,0,1,.21-1.18,1.43,1.43,0,0,1-1-1c-.36-1,.21-1.74,1.19-2.1a2.08,2.08,0,0,1,1.36-.07l1-.8.07,0,.28.75-.92.33a1.8,1.8,0,0,1,.43.66c.36,1-.21,1.72-1.18,2.08a2.52,2.52,0,0,1-.86.17.51.51,0,0,0-.09.47c.08.21.25.33.65.19l1.72-.63C78.14,106.62,78.8,106.76,79.05,107.45Zm-4.27-1.72a.7.7,0,0,0,1,.48.68.68,0,0,0,.45-1l-.15-.43c-.18-.48-.48-.72-1-.52a.73.73,0,0,0-.47,1.06ZM78.35,108c-.1-.27-.32-.33-.82-.14l-1.47.53a2.06,2.06,0,0,1-.74.15.86.86,0,0,0,0,.45c.17.46.7.54,1.8.14S78.48,108.4,78.35,108Z"/><path class="cls-1" d="M81.65,101.43l-.13,5.27c0,1-.33,1.54-1,1.8l-.33-.41,0-.08a1.28,1.28,0,0,0,.87-1.37l-3.35-3.77,1.11-.4L81.08,105l.09-3.42Z"/><path class="cls-1" d="M82.65,103.5A2.24,2.24,0,1,1,85.57,105,2.17,2.17,0,0,1,82.65,103.5Zm3.33-.6-.4-1.09c-.31-.86-.87-1.07-1.47-.85s-.9.74-.59,1.6l.4,1.1c.31.86.87,1.07,1.48.85S86.29,103.76,86,102.9Z"/><path class="cls-1" d="M88,103.4l0-.49.09,0a2.19,2.19,0,0,0,1.62,0c.55-.2.75-.53.61-.91-.36-1-2.57.33-3.16-1.29-.27-.76.2-1.5,1.21-1.87a2.43,2.43,0,0,1,1.59,0l0,.49-.08,0a1.82,1.82,0,0,0-1.3,0c-.52.18-.75.49-.63.8.33.9,2.67-.4,3.26,1.21.35,1-.31,1.7-1.29,2A2.65,2.65,0,0,1,88,103.4Z"/><path class="cls-1" d="M92.74,100l.15.41a1.17,1.17,0,0,0,1.69.79,1.93,1.93,0,0,0,1.13-1.07l.09,0,.38.25a2.46,2.46,0,0,1-1.5,1.35,2.19,2.19,0,0,1-3.05-1.44,2.15,2.15,0,0,1,1.27-3,2.11,2.11,0,0,1,2.83,1.49l.06.15Zm-.23-.63.06.16,2-.74-.06-.17c-.32-.87-.87-1.11-1.47-.89S92.19,98.46,92.51,99.34Z"/><path class="cls-1" d="M100.09,96l1.16,3.19-1,.37-1.15-3.15c-.15-.42-.39-.58-.74-.46a2,2,0,0,0-1,1.06l1.15,3.17-1,.37-1.56-4.3,1-.38.23.63a2.44,2.44,0,0,1,1.27-1.29A1.15,1.15,0,0,1,100.09,96Z"/><path class="cls-1" d="M73.62,118.39l0-.49.09,0a2.19,2.19,0,0,0,1.62,0c.55-.2.75-.53.62-.91-.37-1-2.58.33-3.17-1.29-.27-.76.2-1.5,1.21-1.87a2.43,2.43,0,0,1,1.59,0l0,.49-.08,0a1.82,1.82,0,0,0-1.3,0c-.52.18-.75.49-.63.8.33.9,2.67-.4,3.26,1.21.35,1-.31,1.7-1.29,2.05A2.65,2.65,0,0,1,73.62,118.39Z"/><path class="cls-1" d="M78.32,115l.15.41a1.17,1.17,0,0,0,1.69.79,2,2,0,0,0,1.14-1.07l.08,0,.38.25a2.46,2.46,0,0,1-1.5,1.35,2.19,2.19,0,0,1-3.05-1.44,2.15,2.15,0,0,1,1.27-3,2.13,2.13,0,0,1,2.84,1.49l.05.15Zm-.23-.63.06.16,2-.74-.06-.17c-.32-.87-.87-1.11-1.47-.89S77.77,113.45,78.09,114.33Z"/><path class="cls-1" d="M85.58,111.37l1,2.86-1,.38-.16-.45a1.68,1.68,0,0,1-1.07,1,1.51,1.51,0,0,1-2.1-1,1.53,1.53,0,0,1,1.07-2.06,2,2,0,0,1,1.34-.07l-.2-.57a.79.79,0,0,0-1.15-.52,2.49,2.49,0,0,0-1.19,1l-.07,0-.34-.38a3.46,3.46,0,0,1,1.63-1.2C84.38,110.06,85.17,110.24,85.58,111.37Zm-.34,2.28-.41-1.12a1.48,1.48,0,0,0-1,0,.86.86,0,0,0-.55,1.23l.07.22a.84.84,0,0,0,1.1.61A1.31,1.31,0,0,0,85.24,113.65Z"/><path class="cls-1" d="M89,108.41l.29.81-.06,0a1.12,1.12,0,0,0-.55.08,1.39,1.39,0,0,0-.85,1.06l1.09,3-1,.37-1.57-4.3,1-.37.28.76a1.88,1.88,0,0,1,1.08-1.37A1,1,0,0,1,89,108.41Z"/><path class="cls-1" d="M93,111.49a1.63,1.63,0,0,0,1-1l.08,0,.36.26A2.08,2.08,0,0,1,93.12,112a2.41,2.41,0,0,1-1.65-4.51,2,2,0,0,1,1.79.11l-.13.52-.08,0a1.48,1.48,0,0,0-1.37-.19c-.67.24-.92.83-.62,1.66l.37,1C91.73,111.45,92.3,111.74,93,111.49Z"/><path class="cls-1" d="M98,106.47l1.15,3.19-1,.37L97,106.88c-.16-.42-.4-.58-.75-.46a2.09,2.09,0,0,0-1,1.06l1.16,3.17-1,.37-2.19-6,1-.38.86,2.35a2.48,2.48,0,0,1,1.27-1.29A1.16,1.16,0,0,1,98,106.47Z"/></g></g></svg>