<?xml version="1.0" encoding="utf-8"?>
<!-- Generator: Adobe Illustrator 24.1.2, SVG Export Plug-In . SVG Version: 6.00 Build 0)  -->
<svg version="1.1" id="レイヤー_1" xmlns="http://www.w3.org/2000/svg" xmlns:xlink="http://www.w3.org/1999/xlink" x="0px"
	 y="0px" viewBox="0 0 142 30" style="enable-background:new 0 0 142 30;" xml:space="preserve">
<style type="text/css">
	.st0{enable-background:new    ;}
	.st1{fill:#2D2D2D;}
	.st2{fill:#808080;}
</style>
<g id="logo" transform="translate(-80 -35)">
	<g class="st0">
		<path class="st1" d="M149.7,55.8l0.2,0.2l-0.2,2h-8.1l0.1-3.8l-0.1-9h8.2l0.2,0.2l-0.2,2l-3.1-0.1l-2.3,0l-0.1,3.1l2.2,0l2.1-0.1
			l0.2,0.2l-0.2,2l-2.3-0.1l-2.1,0l0,1.4l0.1,1.9l2.3,0L149.7,55.8z"/>
		<path class="st1" d="M157.7,49.2c0.6,0.5,0.9,1.1,0.9,1.9c0,0.2,0,1-0.1,2.3c0,0.4,0,0.8-0.1,1.2c0,0.4,0,0.7,0,1
			c0,0.2,0,0.4,0.1,0.5c0.1,0.1,0.2,0.1,0.4,0.1c0.1,0,0.3,0,0.5-0.1l0.2,0.2l-0.2,1.4c-0.4,0.3-0.9,0.4-1.5,0.5
			c-0.4,0-0.7-0.2-1-0.4c-0.3-0.2-0.4-0.6-0.5-1h-0.1c-0.7,0.7-1.4,1.2-2.1,1.5c-1,0-1.7-0.3-2.3-0.8c-0.5-0.5-0.8-1.2-0.8-2
			c0-0.7,0.2-1.2,0.5-1.6c0.3-0.4,0.9-0.6,1.5-0.8l3.1-0.6v-0.8c0-0.9-0.4-1.3-1.3-1.3c-0.4,0-0.9,0.1-1.3,0.3
			c-0.5,0.2-1,0.5-1.6,0.9l-0.2-0.1l-0.3-1.8c0.6-0.4,1.2-0.6,1.8-0.8c0.7-0.2,1.3-0.3,2-0.3C156.3,48.5,157.2,48.8,157.7,49.2z
			 M154,54.3c-0.2,0.1-0.4,0.1-0.5,0.3c-0.1,0.1-0.1,0.3-0.1,0.6c0,0.3,0.1,0.6,0.3,0.8c0.2,0.2,0.4,0.3,0.8,0.3
			c0.5,0,1.1-0.3,1.6-0.9l0-1.5L154,54.3z"/>
		<path class="st1" d="M167.5,49l-0.4,2l-0.3,0.1c-0.4-0.3-0.8-0.4-1.2-0.6c-0.4-0.1-0.7-0.2-1-0.2c-0.3,0-0.6,0.1-0.8,0.3
			c-0.2,0.2-0.3,0.4-0.3,0.6c0,0.3,0.1,0.5,0.4,0.7c0.2,0.2,0.6,0.4,1.2,0.6c0.5,0.2,1,0.4,1.3,0.6c0.3,0.2,0.6,0.5,0.9,0.8
			c0.2,0.4,0.4,0.8,0.4,1.3c0,0.5-0.1,1-0.4,1.5s-0.7,0.8-1.3,1.1c-0.6,0.3-1.2,0.4-2.1,0.4c-1,0-2-0.2-3-0.6l0.3-2.1l0.3-0.2
			c0.4,0.3,0.9,0.6,1.4,0.8c0.5,0.2,1,0.3,1.3,0.3c0.4,0,0.6-0.1,0.8-0.3c0.2-0.2,0.3-0.4,0.3-0.7c0-0.3-0.1-0.5-0.4-0.7
			c-0.2-0.2-0.6-0.4-1.2-0.6c-0.5-0.2-1-0.5-1.3-0.7s-0.6-0.5-0.9-0.8c-0.2-0.4-0.4-0.8-0.4-1.3c0-0.9,0.3-1.6,1-2.1
			c0.7-0.6,1.5-0.8,2.7-0.8C165.9,48.5,166.7,48.7,167.5,49z"/>
		<path class="st1" d="M171.7,50.1l1.7,5.2h0.2l1.7-5l0.3-1.6h2.3l-3,8.7c-0.3,0.9-0.7,1.6-1.1,2.2c-0.4,0.6-0.9,1-1.5,1.4
			s-1.4,0.7-2.3,0.9l-0.2,0c-0.5-0.4-0.8-1-1.1-1.6l0.1-0.3c0.8-0.1,1.5-0.4,2.1-0.7c0.5-0.3,1.1-0.7,1.6-1.3l-3.4-9.2l2.5-0.1
			L171.7,50.1z"/>
		<path class="st1" d="M193.2,58h-2.4l-0.2-3.9l-0.5-5h-0.2l-2.9,7.5h-2.1l-2.6-7.5h-0.2l-0.5,4.7l-0.3,4.2h-2.3l1.3-12.9h3.1
			L184,47l2,6.1h0.2l2.1-6.1l0.6-1.9h3.1L193.2,58z"/>
		<path class="st1" d="M201.8,49.2c0.6,0.5,0.9,1.1,0.9,1.9c0,0.2,0,1-0.1,2.3c0,0.4,0,0.8-0.1,1.2c0,0.4,0,0.7,0,1
			c0,0.2,0,0.4,0.1,0.5c0.1,0.1,0.2,0.1,0.4,0.1c0.1,0,0.3,0,0.5-0.1l0.2,0.2l-0.2,1.4c-0.4,0.3-0.9,0.4-1.5,0.5
			c-0.4,0-0.7-0.2-1-0.4c-0.3-0.2-0.4-0.6-0.5-1h-0.1c-0.7,0.7-1.4,1.2-2.1,1.5c-1,0-1.7-0.3-2.3-0.8s-0.8-1.2-0.8-2
			c0-0.7,0.2-1.2,0.5-1.6c0.3-0.4,0.9-0.6,1.6-0.8l3.1-0.6v-0.8c0-0.9-0.4-1.3-1.3-1.3c-0.4,0-0.8,0.1-1.3,0.3
			c-0.5,0.2-1,0.5-1.5,0.9l-0.2-0.1l-0.3-1.8c0.6-0.4,1.2-0.6,1.8-0.8c0.7-0.2,1.3-0.3,2-0.3C200.4,48.5,201.2,48.8,201.8,49.2z
			 M198.1,54.3c-0.2,0.1-0.4,0.1-0.5,0.3c-0.1,0.1-0.1,0.3-0.1,0.6c0,0.3,0.1,0.6,0.3,0.8c0.2,0.2,0.4,0.3,0.8,0.3
			c0.5,0,1.1-0.3,1.6-0.9l0-1.5L198.1,54.3z"/>
		<path class="st1" d="M208.3,44.5c0.2,0.2,0.3,0.6,0.3,1c0,0.5-0.1,0.8-0.4,1.1s-0.6,0.4-1,0.4s-0.8-0.1-1-0.4
			c-0.2-0.2-0.3-0.6-0.3-1c0-0.4,0.1-0.8,0.4-1.1c0.3-0.3,0.6-0.4,1.1-0.4C207.8,44.1,208.1,44.3,208.3,44.5z M206.1,54.2l-0.1-5.3
			l2.6-0.2l-0.1,5.2l0.1,4.1H206L206.1,54.2z"/>
		<path class="st1" d="M214.3,53.9l0.1,4.1h-2.7l0.1-3.9l-0.1-10l2.7-0.2L214.3,53.9z"/>
	</g>
	<rect id="長方形_8" x="80" y="35" class="st2" width="6" height="30"/>
	<rect id="長方形_2" x="80" y="35" class="st1" width="44" height="6"/>
	<rect id="長方形_3" x="86" y="47" class="st2" width="15" height="6"/>
	<rect id="長方形_4" x="86" y="59" class="st2" width="21" height="6"/>
	<rect id="長方形_9" x="118" y="35" class="st1" width="6" height="30"/>
	<rect id="長方形_10" x="107" y="41" class="st1" width="6" height="13"/>
</g>
</svg>
