<!--?xml version="1.0" encoding="utf-8"?-->
<!-- Generator: Adobe Illustrator 18.1.1, SVG Export Plug-In . SVG Version: 6.00 Build 0)  -->

<svg version="1.1" id="_x32_" xmlns="http://www.w3.org/2000/svg" xmlns:xlink="http://www.w3.org/1999/xlink" x="0px" y="0px" viewBox="0 0 512 512" style="width: 256px; height: 256px; opacity: 1;" xml:space="preserve">
<style type="text/css">
	.st0{fill:#4B4B4B;}
</style>
<g>
	<path class="st0" d="M74.836,26.128c0,0,0.009,0,0.019-0.01l0,0L74.836,26.128z" style="fill: rgb(75, 75, 75);"></path>
	<path class="st0" d="M498.415,26.109c-4.377-2.597-9.302-3.92-14.238-3.92c-4.535,0-9.125,1.117-13.278,3.38l-43.587,23.613
		l-57.126-30.95c-4.134-2.235-8.706-3.362-13.259-3.352c-4.554-0.01-9.125,1.118-13.259,3.352l-57.08,30.96L229.49,18.241
		c-4.134-2.244-8.706-3.371-13.26-3.361c-4.553-0.01-9.125,1.118-13.259,3.352l-57.079,30.96l-43.55-23.613
		c-4.116-2.245-8.697-3.38-13.269-3.372c-4.898-0.009-9.842,1.304-14.219,3.911C66.428,31.138,61.27,40.225,61.27,50.021v365.326
		h28.605V51.353l42.758,23.185c4.126,2.245,8.698,3.362,13.26,3.362c4.553,0,9.125-1.117,13.25-3.352l57.089-30.961l57.098,30.951
		c4.125,2.245,8.697,3.362,13.259,3.362c4.554,0,9.126-1.117,13.251-3.352l57.088-30.961l57.135,30.961
		c4.115,2.226,8.687,3.352,13.25,3.352c4.554,0,9.126-1.117,13.259-3.362l42.824-23.194v372.011
		c-0.01,12.515-5.038,23.716-13.232,31.938c-8.213,8.194-19.415,13.213-31.93,13.223H95.386c-18.483-0.01-35.095-7.45-47.219-19.564
		c-12.114-12.133-19.553-28.736-19.563-47.218v-297.79H0v297.79c0.01,52.683,42.702,95.377,95.386,95.386h342.848
		c40.748-0.01,73.756-33.018,73.766-73.766V50.012C512,40.216,506.841,31.128,498.415,26.109z" style="fill: rgb(75, 75, 75);"></path>
	<rect x="336.348" y="267.183" class="st0" width="116.43" height="125.546" style="fill: rgb(75, 75, 75);"></rect>
	<rect x="122.762" y="269.082" class="st0" width="171.628" height="19.07" style="fill: rgb(75, 75, 75);"></rect>
	<rect x="122.762" y="371.76" class="st0" width="171.628" height="19.07" style="fill: rgb(75, 75, 75);"></rect>
	<rect x="122.762" y="320.426" class="st0" width="171.628" height="19.07" style="fill: rgb(75, 75, 75);"></rect>
	<path class="st0" d="M142.921,222.888v-53.429h0.625l30.15,53.429c0.502,0.875,1.127,1.248,2.132,1.248h14.889l1.248-1.248v-82.583
		l-1.248-1.248h-14.144l-1.247,1.248v53.55h-0.624l-30.03-53.55c-0.502-0.875-1.257-1.248-2.132-1.248h-15.01l-1.257,1.248v82.583
		l1.257,1.248h14.135L142.921,222.888z" style="fill: rgb(75, 75, 75);"></path>
	<polygon class="st0" points="227.348,154.942 264.016,154.942 265.265,153.695 265.265,140.305 264.016,139.057 209.462,139.057 
		208.204,140.305 208.204,222.888 209.462,224.136 264.016,224.136 265.265,222.888 265.265,209.498 264.016,208.241 
		227.348,208.241 226.603,207.497 226.603,189.851 227.348,189.097 257.881,189.097 259.138,187.849 259.138,174.59 
		257.881,173.333 227.348,173.333 226.603,172.587 226.603,155.696 	" style="fill: rgb(75, 75, 75);"></polygon>
	<path class="st0" d="M376.481,139.057h-16.016c-0.875,0-1.379,0.373-1.508,1.248l-11.76,53.429h-0.252l-15.01-53.429l-1.499-1.248
		h-10.885c-0.875,0-1.379,0.494-1.63,1.248l-14.517,53.429h-0.252l-12.263-53.429c-0.121-0.754-0.624-1.248-1.499-1.248h-16.137
		c-0.875,0-1.127,0.494-1.006,1.248l22.022,82.583l1.499,1.248h12.514c0.876,0,1.379-0.504,1.63-1.248l14.889-52.927h0.252
		l14.759,52.927c0.251,0.744,0.754,1.248,1.63,1.248h12.515c0.875,0,1.499-0.504,1.629-1.248l21.891-82.583
		C377.607,139.551,377.356,139.057,376.481,139.057z" style="fill: rgb(75, 75, 75);"></path>
	<path class="st0" d="M416.492,209.498c-9.005,0-16.64-4.256-22.274-8.762l-1.872,0.13l-9.506,10.885l0.121,2.122
		c6.63,6.379,19.516,11.639,32.785,11.639c22.022,0,33.401-11.387,33.401-26.78c0-15.391-9.256-23.4-26.771-25.774l-4.506-0.624
		c-9.759-1.379-13.26-4.507-13.26-9.386c0-5.382,3.873-9.256,11.388-9.256c7.002,0,13.259,2.253,19.768,6.499l1.75-0.372
		l7.626-11.388c0.633-0.876,0.504-1.368-0.242-1.872c-7.132-5.512-17.644-8.883-28.902-8.883c-18.4,0-30.16,10.383-30.16,26.026
		c0,15.01,9.638,23.148,26.901,25.522l4.507,0.624c10.131,1.378,13.138,4.506,13.138,9.506
		C430.385,205.364,425.375,209.498,416.492,209.498z" style="fill: rgb(75, 75, 75);"></path>
</g>
</svg>
