<svg xmlns="http://www.w3.org/2000/svg" width="296.14" height="296.14" viewBox="0 0 296.14 296.14"><defs><style>.cls-1{fill:#fff;}</style></defs><g id="レイヤー_2" data-name="レイヤー 2"><g id="レイヤー_1-2" data-name="レイヤー 1"><path class="cls-1" d="M148,277.72a129.9,129.9,0,1,1,44.4-7.88A129.17,129.17,0,0,1,148,277.72Zm.16-258.82a129.38,129.38,0,1,0,54.48,12.17A129.09,129.09,0,0,0,148.15,18.9Z"/><path class="cls-1" d="M148,294.7a146.93,146.93,0,1,1,50.21-8.91A146.18,146.18,0,0,1,148,294.7Zm.17-287a140.58,140.58,0,1,0,59.2,13.22A140.33,140.33,0,0,0,148.15,7.71Z"/><rect class="cls-1" x="99.46" y="-0.71" width="2.41" height="37.09" transform="translate(-0.03 35.51) rotate(-20)"/><rect class="cls-1" x="-0.71" y="194.26" width="37.09" height="2.41" transform="translate(-65.78 17.89) rotate(-20)"/><rect class="cls-1" x="194.26" y="259.75" width="2.41" height="37.09" transform="translate(-83.4 83.64) rotate(-20)"/><rect class="cls-1" x="259.75" y="99.46" width="37.09" height="2.41" transform="translate(-17.65 101.26) rotate(-20)"/><path class="cls-1" d="M148,277.72a129.9,129.9,0,1,1,44.4-7.88A129.17,129.17,0,0,1,148,277.72Zm.16-258.82a129.38,129.38,0,1,0,54.48,12.17A129.09,129.09,0,0,0,148.15,18.9Z"/><path class="cls-1" d="M148,294.7a146.93,146.93,0,1,1,50.21-8.91A146.18,146.18,0,0,1,148,294.7Zm.17-287a140.58,140.58,0,1,0,59.2,13.22A140.33,140.33,0,0,0,148.15,7.71Z"/><rect class="cls-1" x="99.46" y="-0.71" width="2.41" height="37.09" transform="translate(-0.03 35.51) rotate(-20)"/><rect class="cls-1" x="-0.71" y="194.26" width="37.09" height="2.41" transform="translate(-65.78 17.89) rotate(-20)"/><rect class="cls-1" x="194.26" y="259.75" width="2.41" height="37.09" transform="translate(-83.4 83.64) rotate(-20)"/><rect class="cls-1" x="259.75" y="99.46" width="37.09" height="2.41" transform="translate(-17.65 101.26) rotate(-20)"/></g></g></svg>