<?xml version="1.0" encoding="utf-8"?>
<!-- Generator: Adobe Illustrator 26.0.3, SVG Export Plug-In . SVG Version: 6.00 Build 0)  -->
<svg version="1.1" id="レイヤー_1" xmlns="http://www.w3.org/2000/svg" xmlns:xlink="http://www.w3.org/1999/xlink" x="0px"
	 y="0px" viewBox="0 0 750 1624" style="enable-background:new 0 0 750 1624;" xml:space="preserve">
<style type="text/css">
	.st0{fill:#0074b6;}
	.st1{opacity:0.1;clip-path:url(#SVGID_00000047762263465270486780000017096774917430360989_);}
	.st2{fill:#FFFFFF;}
	.st3{opacity:0.1;clip-path:url(#SVGID_00000047762263465270486780000017096774917430360989_);fill:#FFFFFF;}
</style>
<rect x="0.3" y="0.3" class="st0" width="750" height="1624"/>
<g>
	<defs>
		<rect id="SVGID_1_" width="750" height="1624"/>
	</defs>
	<clipPath id="SVGID_00000070805146560541681800000014072093577349738377_">
		<use xlink:href="#SVGID_1_"  style="overflow:visible;"/>
	</clipPath>
	<g style="opacity:0.1;clip-path:url(#SVGID_00000070805146560541681800000014072093577349738377_);">
		<path class="st2" d="M426.2,83.4h0.3v1.3c0,2.5,2.1,4.4,4.5,4.4h9.9c2.5,0,4.5-2,4.5-4.4v-1.3h3.8c1.9,46,19.9,88,48.5,120.3
			l-1.8,1.7l-0.9-0.9c-1.8-1.8-4.6-1.8-6.4,0l-7,7c-1.8,1.8-1.8,4.6,0,6.4l0.9,0.9l-0.2,0.2c-3-1.8-6.7-1.5-9.3,1L446,247.2
			c-3,3-3,7.7,0,10.7L458,270c3,3,7.7,3,10.7,0l27.2-27.2c2.6-2.6,2.8-6.3,1-9.2l0.2-0.3l0.9,0.9c1.8,1.8,4.6,1.8,6.4,0l7-7
			c1.8-1.8,1.8-4.6,0-6.4l-0.9-0.9l1.6-1.5c32.1,29.4,74.2,48.1,120.4,50.5v1.6h-1.3c-2.5,0-4.4,2.1-4.4,4.5v9.9
			c0,2.5,2,4.5,4.4,4.5h1.3v0.3c-3.3,0.8-5.8,3.7-5.8,7.2v38.5c0,4.2,3.4,7.5,7.5,7.5h17.1c4.1,0,7.5-3.3,7.5-7.5V297
			c0-3.5-2.5-6.4-5.8-7.2v-0.3h1.3c2.5,0,4.4-2.1,4.4-4.5V275c0-2.5-2-4.5-4.4-4.5h-1.3v-1.6c46.4-2.4,88.3-21.1,120.4-50.5l1.6,1.5
			l-0.9,0.9c-1.8,1.8-1.8,4.6,0,6.4l7,7c1.8,1.8,4.6,1.8,6.4,0l0.9-0.9l0.2,0.3c-1.8,2.9-1.4,6.6,1,9.2l27.2,27.2c3,3,7.8,3,10.7,0
			l12.1-12.1c3-3,3-7.7,0-10.7L812.7,220c-2.5-2.6-6.3-2.8-9.2-1l-0.3-0.2l0.9-0.9c1.8-1.8,1.8-4.6,0-6.4l-7-7
			c-1.8-1.8-4.5-1.8-6.3,0l-0.9,0.9l-1.8-1.7c28.6-32.3,46.6-74.3,48.4-120.3h3.8v1.3c0,2.5,2.1,4.4,4.5,4.4h9.9
			c2.5,0,4.5-2,4.5-4.4v-1.3h0.3c0.8,3.3,3.7,5.8,7.2,5.8h38.5c4.2,0,7.6-3.4,7.6-7.5V64.5c0-4.1-3.4-7.5-7.6-7.5h-38.5
			c-3.5,0-6.4,2.5-7.2,5.8h-0.3v-1.3c0-2.5-2.1-4.4-4.5-4.4h-9.9c-2.5,0-4.5,2-4.5,4.4v1.3h-4c-2.9-45.4-21.5-86.5-50.5-118.1l4-3.9
			l0.9,0.9c1.8,1.7,4.5,1.7,6.3,0l7-7c1.8-1.8,1.8-4.6,0-6.4l-0.9-0.9l0.3-0.2c2.9,1.8,6.7,1.4,9.2-1l27.2-27.2c3-3,3-7.7,0-10.7
			l-12.1-12.1c-2.9-3-7.7-3-10.7,0l-27.2,27.2c-2.5,2.6-2.8,6.3-1,9.2l-0.2,0.3l-0.9-0.9c-1.8-1.7-4.6-1.7-6.4,0l-7,7
			c-1.8,1.8-1.8,4.6,0,6.4l0.9,0.9l-4,4c-31.8-28.2-72.8-45.9-118-48.4v-6.2h1.3c2.5,0,4.4-2.1,4.4-4.5v-9.9c0-2.5-2-4.5-4.4-4.5
			h-1.3v-0.3c3.3-0.8,5.8-3.7,5.8-7.2v-38.5c0-4.2-3.4-7.6-7.5-7.6h-17.1c-4.1,0-7.5,3.4-7.5,7.6v38.5c0,3.5,2.5,6.4,5.8,7.2v0.3
			h-1.3c-2.5,0-4.4,2.1-4.4,4.5v9.9c0,2.5,2,4.5,4.4,4.5h1.3v6.2c-45.1,2.5-86.2,20.2-118,48.4l-4-4l0.9-0.9c1.8-1.8,1.8-4.6,0-6.4
			l-7-7c-1.8-1.7-4.6-1.7-6.4,0l-0.9,0.9l-0.2-0.3c1.8-2.9,1.5-6.6-1-9.2l-27.2-27.2c-3-3-7.7-3-10.7,0L446-111.8c-3,3-3,7.7,0,10.7
			l27.2,27.2c2.6,2.5,6.3,2.8,9.3,1l0.2,0.2l-0.9,0.9c-1.8,1.8-1.8,4.6,0,6.4l7,7c1.8,1.7,4.6,1.7,6.4,0l0.9-0.9l3.9,3.9
			C471-23.8,452.5,17.3,449.5,62.8h-4v-1.3c0-2.5-2.1-4.4-4.5-4.4h-9.9c-2.5,0-4.5,2-4.5,4.4v1.3h-0.3c-0.8-3.3-3.7-5.8-7.2-5.8
			h-38.5c-4.1,0-7.5,3.4-7.5,7.5v17.1c0,4.1,3.4,7.5,7.5,7.5H419C422.5,89.1,425.4,86.7,426.2,83.4z M632.6,123.1
			c-1.6,1.4-2.9,3.4-2.9,5.8l-2.7,98.4c-0.1,3.5,2.3,6.6,5.6,7.7v13.3c-40.6-2.4-77.5-18.7-105.9-44.5l9-9c3.2,1.5,7,1,9.5-1.5
			l67.6-71.4c1.6-1.6,2.3-3.9,2.1-6.2l8.2-8.2c3,1.8,6.2,3.1,9.6,4V123.1z M653.2,248.3V235c3.3-1.1,5.7-4.2,5.6-7.7l-2.7-98.4
			c0-2.4-1.1-4.3-2.9-5.8v-11.6c3.4-0.9,6.6-2.3,9.6-4l8.2,8.2c-0.2,2.3,0.4,4.5,2.1,6.2l67.7,71.4c2.4,2.6,6.2,3.1,9.4,1.5l9,9
			C730.7,229.5,693.9,245.9,653.2,248.3z M773.5,189.1l-8.9-8.9c1.5-3.2,1.1-7-1.5-9.5l-71.4-67.6c-1.6-1.6-3.9-2.3-6.2-2.1
			l-8.2-8.2c1.8-3,3.1-6.2,4-9.6H693c1.4,1.8,3.5,2.9,5.8,2.9l98.4,2.7c3.5,0.1,6.6-2.3,7.7-5.6H816
			C814.1,123.7,798.5,160.5,773.5,189.1z M764.7-34.2l6.7-6.7c25.2,27.9,41.5,63.9,44.4,103.6h-10.9c-1.1-3.3-4.2-5.7-7.7-5.6
			l-98.4,2.7c-2.3,0-4.3,1.1-5.8,2.9h-11.6c-0.9-3.4-2.3-6.6-4-9.6l8.2-8.2c2.3,0.2,4.5-0.4,6.2-2.1l71.4-67.6
			C765.8-27.2,766.2-31,764.7-34.2z M653.2,23c1.8-1.4,2.9-3.4,2.9-5.8l2.7-98.4c0.1-3.5-2.3-6.6-5.6-7.7v-8.8
			c39.4,2.4,75.4,17.9,103.5,42.3l-6.6,6.6c-3.2-1.5-7-1-9.4,1.5l-67.7,71.4c-1.6,1.6-2.3,3.9-2.1,6.2l-8.2,8.2
			c-3-1.7-6.2-3.1-9.6-4V23z M642.9,51.9c11.6,0,21.1,9.5,21.1,21.1s-9.5,21.1-21.1,21.1c-11.6,0-21.1-9.5-21.1-21.1
			S631.3,51.9,642.9,51.9z M632.6-97.6v8.8c-3.3,1.1-5.7,4.2-5.6,7.7l2.7,98.4c0,2.4,1.2,4.3,2.9,5.8v11.6c-3.4,0.9-6.6,2.3-9.6,4
			l-8.2-8.2c0.2-2.3-0.4-4.5-2.1-6.2l-67.6-71.4c-2.5-2.6-6.3-3.1-9.5-1.5l-6.5-6.6C557.2-79.7,593.2-95.2,632.6-97.6z M514.5-40.9
			l6.7,6.7c-1.5,3.2-1,7,1.5,9.5l71.4,67.6c1.8,1.6,3.9,2.3,6.2,2.1l8.2,8.2c-1.8,3-3.1,6.2-4,9.6H593c-1.5-1.8-3.5-2.9-5.9-2.9
			l-98.4-2.7c-3.5-0.1-6.5,2.3-7.7,5.6h-10.9C473,23,489.3-12.9,514.5-40.9z M481,83.4c1.2,3.3,4.2,5.7,7.7,5.6l98.4-2.7
			c2.4,0,4.3-1.1,5.9-2.9h11.5c0.9,3.4,2.3,6.6,4,9.6l-8.2,8.2c-2.3-0.2-4.4,0.4-6.2,2.1l-71.4,67.6c-2.6,2.5-3.1,6.3-1.5,9.5
			l-8.9,8.9c-24.9-28.6-40.6-65.4-42.4-105.8H481z"/>
		<path class="st2" d="M642.9,88.1c8.3,0,15.1-6.7,15.1-15.1S651.3,58,642.9,58c-8.3,0-15.1,6.7-15.1,15.1S634.6,88.1,642.9,88.1z"
			/>
	</g>
	
		<path id="_x30_3" style="opacity:0.1;clip-path:url(#SVGID_00000070805146560541681800000014072093577349738377_);fill:#FFFFFF;" d="
		M163.8,1096.8c25.8,11.9,56.3,15.1,86.5,17.8c30.2,2.6,59.9,4.8,83.8,14c17.5,6.7,36.3,17,50.6,30.5c14.4,13.6,24.2,30.2,24.9,50.1
		l0,1c0,8.7-3.7,23.9-9.5,36.5c-2.9,6.3-6.2,12.1-9.6,16.1c-0.7,0.8-1.3,1.2-2,1.8c-16.9,0-33.7,6.6-45.8,20.4
		c-11.3,12.9-15.6,29.2-14.2,45l-25.5,8.7l24.8,21.7l5.2-26.5c15.8-0.8,31.4-7.2,42.7-20.1c10.3-11.7,14.7-26.3,14.5-40.7
		c2.1-1.5,4.1-3.4,5.9-5.5c12-14.5,20.7-41.7,20.8-57.3l0-1.2c-0.7-22.3-11.9-40.8-27.2-55.2c-15.3-14.4-34.8-25.1-53-32.1
		c-33.9-13-76.5-12.4-115.6-17.6c-19.5-2.6-38.2-6.5-54.3-14c-16.1-7.5-29.8-18.4-39.8-35.3c-14-23.5-19.9-51.4-19.9-80.3
		c0-48.1,16.3-99,37.6-136.7c6.9-12.2,17.2-28.9,29.3-42.3c12.1-13.5,25.9-23.3,39.1-23.2c2.4,0,4.8,0.4,7.2,1.1
		c0.3,0.9,0.7,1.8,1.3,2.5l386.1,472.1c-20.6,2.3-36.7,19.6-36.7,40.8c0,22.8,18.5,41.3,41.3,41.3c18.4,0,33.8-12.1,39.1-28.7
		l82.9,101.3c1.2,1.5,3,2.5,5,2.6c1.9,0.2,3.9-0.4,5.4-1.7l31.6-26.7c1.5-1.3,2.4-3.1,2.6-5.1c0.1-2-0.5-3.9-1.9-5.4L232.7,766.5
		c-2.7-2.9-7.2-3.2-10.2-0.6c-0.2,0.2-0.3,0.4-0.4,0.6c-3-0.8-6-1.3-9-1.3c-16.8,0.1-31.8,11.6-44.5,25.6
		c-12.7,14.1-23.2,31.1-30.2,43.6c-21.8,38.7-38.5,90.5-38.5,140.3c0,29.9,6.1,59.1,20.9,84.1
		C131.6,1076.9,146.6,1088.9,163.8,1096.8z"/>
	<g id="_x31_00" style="opacity:0.1;clip-path:url(#SVGID_00000070805146560541681800000014072093577349738377_);">
		<path class="st2" d="M624.5,946.4c-0.4-1.1-1.5-1.8-2.6-1.8c-1.2,0-2.2,0.7-2.6,1.8l-7.2,19c-0.3,0.9-0.2,1.8,0.3,2.6
			c0.5,0.8,1.4,1.2,2.3,1.2h3.8c-0.9,4.1-3,7.9-5.9,10.8c-3.9,3.9-9.4,6.4-15.4,6.4c-6,0-11.5-2.4-15.4-6.4c-3.9-4-6.4-9.4-6.4-15.4
			v-23.3c0.4-0.3,0.9-0.6,1.3-1c26.2-32.1,42-73.2,42-117.8c0-44.7-15.8-85.7-42-117.8c-1-1.2-2.5-1.9-4.1-1.9
			c-1.6,0-3.1,0.7-4.1,1.9c-26.2,32.1-42,73.2-42,117.8c0,44.7,15.8,85.7,42,117.8c0.3,0.4,0.8,0.7,1.3,1v23.3
			c0,6-2.4,11.4-6.4,15.4c-4,3.9-9.4,6.4-15.4,6.4c-6,0-11.5-2.4-15.4-6.4c-2.9-2.9-5-6.6-5.9-10.8h3.8c0.9,0,1.8-0.5,2.3-1.2
			c0.5-0.8,0.6-1.7,0.3-2.6l-7.2-19c-0.4-1.1-1.5-1.8-2.6-1.8c-1.2,0-2.2,0.7-2.6,1.8l-7.2,19c-0.3,0.9-0.2,1.8,0.3,2.6
			c0.5,0.8,1.4,1.2,2.3,1.2h4.8c2.2,12.9,13.5,22.8,27,22.8c10.8,0,20.1-6.3,24.6-15.4c4.5,9.1,13.8,15.4,24.6,15.4
			c13.6,0,24.8-9.9,27-22.8h4.8c0.9,0,1.8-0.5,2.3-1.2c0.5-0.8,0.6-1.7,0.3-2.6L624.5,946.4z M537.1,822.5c0-0.6,0.1-1.2,0.1-1.8
			l67.3-33.6c2,9.9,3.2,20.1,3.5,30.5l-68.3,34.2C537.9,842.2,537.1,832.4,537.1,822.5z M592.1,749.1c4,8.7,7.3,17.8,9.9,27.3
			l-64.3,32.2c1-12.2,3.2-24.1,6.5-35.5L592.1,749.1z M549,758.9c5.9-15.2,13.9-29.4,23.5-42.2c5.5,7.3,10.4,15,14.7,23L549,758.9z
			 M607.8,829.3c-0.5,11.9-2.1,23.5-4.8,34.6l-52.3,26.2c-3.7-8.9-6.7-18.2-9-27.8L607.8,829.3z M599.1,877.7
			c-6.1,18.4-15.1,35.3-26.5,50.5c-6.7-8.9-12.6-18.4-17.5-28.5L599.1,877.7z"/>
		<path class="st2" d="M786.5,946.4c-0.4-1.1-1.5-1.8-2.6-1.8c-1.2,0-2.2,0.7-2.6,1.8l-7.2,19c-0.3,0.9-0.2,1.8,0.3,2.6
			c0.5,0.8,1.4,1.2,2.3,1.2h3.8c-0.9,4.1-3,7.9-5.9,10.8c-3.9,3.9-9.4,6.4-15.4,6.4c-6,0-11.5-2.4-15.4-6.4c-3.9-4-6.4-9.4-6.4-15.4
			v-23.3c0.4-0.3,0.9-0.6,1.3-1c26.2-32.1,42-73.2,42-117.8c0-44.7-15.8-85.7-42-117.8c-1-1.2-2.5-1.9-4.1-1.9s-3.1,0.7-4.1,1.9
			c-26.2,32.1-42,73.2-42,117.8c0,44.7,15.8,85.7,42,117.8c0.3,0.4,0.8,0.7,1.3,1v23.3c0,6-2.4,11.4-6.4,15.4
			c-4,3.9-9.4,6.4-15.4,6.4c-6,0-11.5-2.4-15.4-6.4c-2.9-2.9-5-6.6-5.9-10.8h3.8c0.9,0,1.8-0.5,2.3-1.2c0.5-0.8,0.6-1.7,0.3-2.6
			l-7.2-19c-0.4-1.1-1.5-1.8-2.6-1.8c-1.2,0-2.2,0.7-2.6,1.8l-7.2,19c-0.3,0.9-0.2,1.8,0.3,2.6c0.5,0.8,1.4,1.2,2.3,1.2h4.8
			c2.2,12.9,13.4,22.8,27,22.8c10.8,0,20.1-6.3,24.6-15.4c4.5,9.1,13.8,15.4,24.6,15.4c13.6,0,24.8-9.9,27-22.8h4.8
			c0.9,0,1.8-0.5,2.3-1.2c0.5-0.8,0.6-1.7,0.3-2.6L786.5,946.4z M749.3,739.8c1.7,3.1,3.3,6.2,4.8,9.4l-47.9,23.9
			c1.4-4.8,3-9.6,4.8-14.2L749.3,739.8z M764,776.4c0.9,3.5,1.7,7,2.4,10.6l-67.2,33.6c0-4,0.2-8.1,0.5-12.1L764,776.4z
			 M769.9,817.5c0,1.6,0.2,3.3,0.2,4.9c0,2.3-0.2,4.6-0.3,6.9l-66,33c-0.8-3.5-1.6-7.1-2.2-10.7L769.9,817.5z M765,864
			c-1.1,4.7-2.5,9.3-4,13.8l-44,22c-1.6-3.1-3-6.4-4.3-9.6L765,864z"/>
	</g>
	<g style="opacity:0.1;clip-path:url(#SVGID_00000070805146560541681800000014072093577349738377_);">
		<path class="st2" d="M134.9,360.7c-13.4,11.1-21.3,27.2-22.1,45.3c-1,20.1,6.6,40,20.8,54.3c13.7,13.8,31.7,20.7,49.8,20.7
			c17.8,0,35.6-6.8,49.2-20.2c7.2-7.1,12.6-15.6,16.2-25l0.5,0.2c6.5-18.2,3.4-53.5-4.3-65.4c-12.2,27.5-27.4,51.8-27.4,51.8
			l9.6,4.1c-2.4,6.7-6.1,12.6-11.1,17.5c-18.2,18.1-47.7,17.9-65.6-0.3c-9.5-9.6-14.8-23.2-14.1-36.6c0.5-11.5,5.4-21.5,13.7-28.3
			c25.8-21.4,32.7-51,34.4-68.8c6.4-1.8,12.2-5,17.1-9.8c15.5-15.3,15.6-40.4,0.3-55.8c-4.1-4.1-8.9-7.1-14-9l0.1-37.4
			c-3.6,0.5-7.5,0.7-11.8,0.7c-4.2,0-8.2-0.2-11.8-0.7l-0.1,36c-6.9,1.6-13.2,5-18.4,10.1c-7.5,7.5-11.6,17.4-11.7,27.9
			c-0.1,10.6,4,20.5,11.4,28c4.3,4.3,9.6,7.4,15.2,9.3C159.2,323.2,153.7,345.1,134.9,360.7z M157.7,272.1c0-4.2,1.7-8.2,4.7-11.3
			c3-2.9,7-4.6,11.2-4.6c4.3,0,8.3,1.6,11.3,4.7c6.2,6.3,6.1,16.3-0.1,22.5c-6,6-16.6,6-22.5-0.1
			C159.3,280.3,157.7,276.3,157.7,272.1z"/>
		<path class="st2" d="M187.9,142l0.2-92.7l-23.6-0.1l-0.2,92.9c3.1,1.3,6.4,1.9,11.7,1.9C181.5,144,184.7,143.4,187.9,142z"/>
		<path class="st2" d="M40.7,184.1c20.3,0,30.9-5.9,40.2-11c8-4.4,14.2-7.9,28.1-7.9c13.8,0,20.1,3.5,28.1,7.9
			c9.3,5.2,19.9,11,40.2,11c20.3,0,30.9-5.9,40.2-11c8-4.4,14.2-7.9,28.1-7.9c13.8,0,20.1,3.5,28.1,7.9c9.3,5.2,19.9,11,40.2,11
			c20.3,0,30.9-5.9,40.2-11c8-4.4,14.3-7.9,28.1-7.9v-25c-20.3,0-30.9,5.9-40.2,11c-8,4.4-14.3,7.9-28.1,7.9s-20.1-3.5-28.1-7.9
			c-9.3-5.2-19.9-11-40.2-11c-20.3,0-30.9,5.9-40.2,11c-8,4.4-14.2,7.9-28.1,7.9c-13.8,0-20.1-3.5-28.1-7.9
			c-9.3-5.2-19.9-11-40.2-11c-20.3,0-30.9,5.9-40.2,11c-8,4.4-14.2,7.9-28.1,7.9c-13.8,0-20.1-3.5-28.1-7.9
			c-9.3-5.2-19.9-11-40.2-11v25c13.8,0,20.1,3.5,28.1,7.9C9.8,178.2,20.4,184.1,40.7,184.1z"/>
	</g>
</g>
</svg>
