<svg xmlns="http://www.w3.org/2000/svg" width="750" height="273.73" viewBox="0 0 750 273.73"><defs><style>.cls-1{fill:#f1f1f1;}</style></defs><g id="レイヤー_2" data-name="レイヤー 2"><g id="レイヤー_4" data-name="レイヤー 4"><path class="cls-1" d="M0,132.3V273.73H750v-122c-97.82,31-179.27,5.3-179.27,5.3-16.76-4.79-43.19-17.57-84.5-29.72,31.2-4.58,48.82-14.25,56.79-36,5.22-14.23,2.43-30.16-5.18-41.56a26.56,26.56,0,0,0-13.13-10c-1.53-11.41-6.84-17.15-12.23-21.35-8.67-6.74-18.14-5.43-25.55-3.38a13.32,13.32,0,0,0-1.7.62c-9.08-5-16.77-5.55-22.58-2.34-6.26,3.47-7.5,8.27-8.34,13.2-.69,4,1.77,8.84,6.33,11.54,4,2.37,9,1.43,10.93-1a3.08,3.08,0,0,0,.6-1.48,5.68,5.68,0,0,0,.82-2.94,5.77,5.77,0,0,0-11.48-.79c-2.13-2.79-2.63-8.2,6.49-10.25a23.34,23.34,0,0,1,9.25,2.11A21.71,21.71,0,0,0,475,31.43c-.68,7.13,3.91,13.48,8.58,14.52s10.61-5.85,6.23-10.8c-3.53-4-6.33-2.09-6.33-2.09-1.52-4.51,8.71-17.86,20.55-2.6a40,40,0,0,1,2.75,7.86c-.81.13-1.61.29-2.41.47C492,41.62,484.63,52.57,485.48,61.05s15.31,15.26,20.9,4.88c3.44-6.4-1.63-12-1.63-12,6.79-5.09,36.67,4.54,16,31.49C498,115.2,456.33,103.21,314.66,71.83c-72.68-16.11-145.4,1.89-189,17.28C51.44,100.09,0,132.3,0,132.3ZM192.06,86a317.1,317.1,0,0,0-38.17.12c28.54-6.32,60.45-10.94,87-8.93,55.83,4.22,55.59,8.57,105.7,22.78,7.51,2.13,14.75,4.26,21.77,6.34q-3.15.59-6.17,1-8.46.54-17,1.68C298.54,111.11,269.66,90.51,192.06,86Z"/><path class="cls-1" d="M342.49,66c45.65,11.41,94.81,27,127.17,29.89,25.11,2.28,39.45-6.14,39.45-6.14C471.45,96.6,468,93.18,411,76.62c-25.88-7.52-49.56-19.74-92.43-25.45-78.75-10.49-151.79,18-151.79,18s49.08-9.13,87.88-11.41C267.2,57.06,312.09,58.4,342.49,66Z"/><path class="cls-1" d="M403,53.23a8,8,0,1,0-8-8A8,8,0,0,0,403,53.23Z"/><path class="cls-1" d="M424.66,15.17a7.59,7.59,0,1,0-7.59-7.58A7.58,7.58,0,0,0,424.66,15.17Z"/><path class="cls-1" d="M438.35,43a5.77,5.77,0,1,0-5.77-5.77A5.77,5.77,0,0,0,438.35,43Z"/></g></g></svg>