<svg xmlns="http://www.w3.org/2000/svg" width="22.58mm" height="22.58mm" viewBox="0 0 64 64"><defs><style>.cls-1{fill:none;}.cls-2{fill:#040000;}</style></defs><g id="レイヤー_2" data-name="レイヤー 2"><g id="レイヤー_1-2" data-name="レイヤー 1"><rect class="cls-1" width="64" height="64"/><path class="cls-2" d="M21.47,36.5a13.32,13.32,0,0,0-4.76,9.75,15.56,15.56,0,0,0,4.48,11.69A15,15,0,0,0,46,52.67l.12,0c1.4-3.92.72-11.5-.93-14.07a101,101,0,0,1-5.9,11.15l2.06.88a9.76,9.76,0,0,1-2.4,3.77,10,10,0,0,1-14.12-.07,10.68,10.68,0,0,1-3-7.87,8.32,8.32,0,0,1,2.94-6.1c5.56-4.61,7-11,7.4-14.82a8.45,8.45,0,0,0,.74-16.06V7.87H34.3V3.93H32.86V2a18.15,18.15,0,0,1-2.53.16A18.2,18.2,0,0,1,27.79,2V3.93H26.37V7.87h1.41V9.22a8.39,8.39,0,0,0-4,2.18,8.55,8.55,0,0,0-.07,12,8.64,8.64,0,0,0,3.27,2A16.57,16.57,0,0,1,21.47,36.5Zm4.9-19.07A3.41,3.41,0,0,1,29.8,14a3.43,3.43,0,0,1,2.42,5.86,3.51,3.51,0,0,1-4.85,0A3.4,3.4,0,0,1,26.37,17.43Z"/></g></g></svg>