<svg xmlns="http://www.w3.org/2000/svg" width="46.72" height="44.14" viewBox="0 0 46.72 44.14"><defs><style>.cls-1{fill:#7e8080;}</style></defs><g id="レイヤー_2" data-name="レイヤー 2"><g id="レイヤー_1-2" data-name="レイヤー 1"><path id="_03" data-name="03" class="cls-1" d="M4.4,22.9a18.27,18.27,0,0,0,5.95,1.22,22.22,22.22,0,0,1,5.77,1,10.9,10.9,0,0,1,3.48,2.11,4.9,4.9,0,0,1,1.71,3.44v.07a6.79,6.79,0,0,1-.65,2.51A5.16,5.16,0,0,1,20,34.32a1.66,1.66,0,0,1-.14.13,4.1,4.1,0,0,0-3.14,1.4,4.06,4.06,0,0,0-1,3.09l-1.76.6L15.69,41l.36-1.82A4.07,4.07,0,0,0,19,37.83,4.13,4.13,0,0,0,20,35a2.45,2.45,0,0,0,.4-.39,7.45,7.45,0,0,0,1.43-3.94v-.08a5.46,5.46,0,0,0-1.87-3.8,11.27,11.27,0,0,0-3.64-2.2c-2.33-.9-5.26-.86-8-1.22a12.53,12.53,0,0,1-3.74-1A6,6,0,0,1,1.87,20,10.75,10.75,0,0,1,.5,14.49,20.15,20.15,0,0,1,3.09,5.08a16.62,16.62,0,0,1,2-2.91A4.05,4.05,0,0,1,7.79.57a1.74,1.74,0,0,1,.5.08.32.32,0,0,0,.09.17L34.94,33.3A2.83,2.83,0,1,0,38,37l5.7,7a.48.48,0,0,0,.35.18.51.51,0,0,0,.37-.11l2.17-1.84a.5.5,0,0,0,.05-.72L9.14.16a.5.5,0,0,0-.7,0l0,0A2.65,2.65,0,0,0,7.79.07,4.48,4.48,0,0,0,4.73,1.83a17.25,17.25,0,0,0-2.08,3A20.52,20.52,0,0,0,0,14.49a11.26,11.26,0,0,0,1.44,5.78A6.56,6.56,0,0,0,4.4,22.9Z"/></g></g></svg>