<svg xmlns="http://www.w3.org/2000/svg" width="22.58mm" height="22.58mm" viewBox="0 0 64 64"><defs><style>.cls-1{fill:none;}.cls-2{fill:#231815;}</style></defs><g id="レイヤー_2" data-name="レイヤー 2"><g id="レイヤー_1-2" data-name="レイヤー 1"><rect class="cls-1" width="64" height="64"/><path id="_03" data-name="03" class="cls-2" d="M10.7,33.18a20.43,20.43,0,0,0,6.68,1.37,24.78,24.78,0,0,1,6.48,1.08A12.32,12.32,0,0,1,27.77,38a5.61,5.61,0,0,1,1.92,3.87v.08A8.1,8.1,0,0,1,29,44.76,5.15,5.15,0,0,1,28.21,46c-.05.07-.1.09-.15.15a4.57,4.57,0,0,0-4.63,5l-2,.68,1.91,1.67.41-2a4.56,4.56,0,0,0,4.41-4.7,3.67,3.67,0,0,0,.46-.43,8.5,8.5,0,0,0,1.6-4.43v-.09a6.16,6.16,0,0,0-2.1-4.27,12.65,12.65,0,0,0-4.09-2.47c-2.62-1-5.91-1-8.93-1.36a14.73,14.73,0,0,1-4.19-1.08,6.79,6.79,0,0,1-3.08-2.73,12.07,12.07,0,0,1-1.53-6.2,22.47,22.47,0,0,1,2.9-10.56,18.94,18.94,0,0,1,2.26-3.27,4.51,4.51,0,0,1,3-1.79,2.23,2.23,0,0,1,.56.08.44.44,0,0,0,.1.19L45,44.86A3.18,3.18,0,1,0,48.37,49l6.4,7.83a.55.55,0,0,0,.38.2.59.59,0,0,0,.42-.13L58,54.83a.57.57,0,0,0,.2-.4.56.56,0,0,0-.15-.41L16,7.66a.55.55,0,0,0-.78,0s0,0,0,0a2.37,2.37,0,0,0-.69-.11,5,5,0,0,0-3.44,2A19.4,19.4,0,0,0,8.74,12.9a23.16,23.16,0,0,0-3,10.84,12.57,12.57,0,0,0,1.62,6.49A7.4,7.4,0,0,0,10.7,33.18Z"/></g></g></svg>