<svg xmlns="http://www.w3.org/2000/svg" width="112" height="32.62" viewBox="0 0 112 32.62"><defs><style>.cls-1{fill:#005d9c;}.cls-2{fill:#fff;}</style></defs><g id="レイヤー_2" data-name="レイヤー 2"><g id="レイヤー_1-2" data-name="レイヤー 1"><path class="cls-1" d="M59.06,25c7.76-1.64,14.28-1.55,23.15-.66,9.83,1,29.79,6.5,29.79,6.5-3.29-.94-8.48-3.45-16.58-5.84,6.12-.9,9.58-2.79,11.14-7.06a9.23,9.23,0,0,0-1-8.15,5.2,5.2,0,0,0-2.58-2,5.85,5.85,0,0,0-2.4-4.18,5.37,5.37,0,0,0-5-.67l-.33.12c-1.78-1-3.29-1.09-4.43-.46a3.18,3.18,0,0,0-1.64,2.59A2.35,2.35,0,0,0,90.4,7.48a1.75,1.75,0,0,0,2.14-.2.66.66,0,0,0,.12-.3,1.11,1.11,0,0,0,.16-.57,1.14,1.14,0,0,0-1.13-1.14,1.13,1.13,0,0,0-1.12,1c-.42-.55-.52-1.61,1.27-2a4.62,4.62,0,0,1,1.81.41,4.39,4.39,0,0,0-.43,1.52A2.69,2.69,0,0,0,94.9,9c.92.2,2.09-1.15,1.23-2.12-.7-.79-1.25-.41-1.25-.41-.29-.89,1.71-3.51,4-.51a7.94,7.94,0,0,1,.54,1.54L99,7.61c-2.44.56-3.88,2.71-3.71,4.37s3,3,4.1,1a2.13,2.13,0,0,0-.32-2.35c1.33-1,7.2.89,3.15,6.18-4.47,5.84-12.65,3.48-40.45-2.67-14.26-3.16-28.53.37-37.09,3.39A70.21,70.21,0,0,0,0,26s8.78-3.07,17.32-5.49l.1,0-.76.37c.51-.19,1.15-.42,1.89-.67,16.61-4.15,35.46,2,41.73,2.3l1.47.06a99,99,0,0,0-18.07,6.23S51.3,26.64,59.06,25ZM37.69,16.88a62.29,62.29,0,0,0-7.49,0c5.6-1.24,11.86-2.14,17.08-1.75C58.23,16,58.19,16.83,68,19.62l4.27,1.24-1.21.21c-1.1.07-2.22.18-3.33.33C58.59,21.8,52.92,17.76,37.69,16.88Z"/><path class="cls-1" d="M50.86,30.6a49.9,49.9,0,0,1,14.56-2.46,113.26,113.26,0,0,1,19,.5,175.17,175.17,0,0,1,21.08,4c-4.93-1.44-10.53-5.38-26.65-6.5A68.35,68.35,0,0,0,50.86,30.6Z"/><path class="cls-2" d="M67.21,13c9,2.24,18.6,5.29,25,5.87a13.75,13.75,0,0,0,7.74-1.21C92.52,19,91.84,18.28,80.65,15c-5.08-1.48-9.73-3.88-18.14-5C47.05,8,32.72,13.58,32.72,13.58A168.33,168.33,0,0,1,50,11.34,75.37,75.37,0,0,1,67.21,13Z"/><path class="cls-2" d="M79.08,10.45a1.57,1.57,0,1,0-1.57-1.57A1.57,1.57,0,0,0,79.08,10.45Z"/><path class="cls-2" d="M83.33,3a1.49,1.49,0,1,0-1.48-1.49A1.49,1.49,0,0,0,83.33,3Z"/><path class="cls-2" d="M86,8.44a1.13,1.13,0,0,0,0-2.26,1.13,1.13,0,1,0,0,2.26Z"/><path class="cls-2" d="M59.06,25c7.76-1.64,14.28-1.55,23.15-.66,9.83,1,29.79,6.5,29.79,6.5-3.29-.94-8.48-3.45-16.58-5.84,6.12-.9,9.58-2.79,11.14-7.06a9.23,9.23,0,0,0-1-8.15,5.2,5.2,0,0,0-2.58-2,5.85,5.85,0,0,0-2.4-4.18,5.37,5.37,0,0,0-5-.67l-.33.12c-1.78-1-3.29-1.09-4.43-.46a3.18,3.18,0,0,0-1.64,2.59A2.35,2.35,0,0,0,90.4,7.48a1.75,1.75,0,0,0,2.14-.2.66.66,0,0,0,.12-.3,1.11,1.11,0,0,0,.16-.57,1.14,1.14,0,0,0-1.13-1.14,1.13,1.13,0,0,0-1.12,1c-.42-.55-.52-1.61,1.27-2a4.62,4.62,0,0,1,1.81.41,4.39,4.39,0,0,0-.43,1.52A2.69,2.69,0,0,0,94.9,9c.92.2,2.09-1.15,1.23-2.12-.7-.79-1.25-.41-1.25-.41-.29-.89,1.71-3.51,4-.51a7.94,7.94,0,0,1,.54,1.54L99,7.61c-2.44.56-3.88,2.71-3.71,4.37s3,3,4.1,1a2.13,2.13,0,0,0-.32-2.35c1.33-1,7.2.89,3.15,6.18-4.47,5.84-12.65,3.48-40.45-2.67-14.26-3.16-28.53.37-37.09,3.39A70.21,70.21,0,0,0,0,26s8.78-3.07,17.32-5.49l.1,0-.76.37c.51-.19,1.15-.42,1.89-.67,16.61-4.15,35.46,2,41.73,2.3l1.47.06a99,99,0,0,0-18.07,6.23S51.3,26.64,59.06,25ZM37.69,16.88a62.29,62.29,0,0,0-7.49,0c5.6-1.24,11.86-2.14,17.08-1.75C58.23,16,58.19,16.83,68,19.62l4.27,1.24-1.21.21c-1.1.07-2.22.18-3.33.33C58.59,21.8,52.92,17.76,37.69,16.88Z"/><path class="cls-2" d="M50.86,30.6a49.9,49.9,0,0,1,14.56-2.46,113.26,113.26,0,0,1,19,.5,175.17,175.17,0,0,1,21.08,4c-4.93-1.44-10.53-5.38-26.65-6.5A68.35,68.35,0,0,0,50.86,30.6Z"/><path class="cls-2" d="M67.21,13c9,2.24,18.6,5.29,25,5.87a13.75,13.75,0,0,0,7.74-1.21C92.52,19,91.84,18.28,80.65,15c-5.08-1.48-9.73-3.88-18.14-5C47.05,8,32.72,13.58,32.72,13.58A168.33,168.33,0,0,1,50,11.34,75.37,75.37,0,0,1,67.21,13Z"/><path class="cls-2" d="M79.08,10.45a1.57,1.57,0,1,0-1.57-1.57A1.57,1.57,0,0,0,79.08,10.45Z"/><path class="cls-2" d="M83.33,3a1.49,1.49,0,1,0-1.48-1.49A1.49,1.49,0,0,0,83.33,3Z"/><path class="cls-2" d="M86,8.44a1.13,1.13,0,0,0,0-2.26,1.13,1.13,0,1,0,0,2.26Z"/></g></g></svg>