<svg xmlns="http://www.w3.org/2000/svg" width="69.74" height="60.18" viewBox="0 0 69.74 60.18"><defs><style>.cls-1{fill:#fff;}</style></defs><g id="レイヤー_2" data-name="レイヤー 2"><g id="レイヤー_1-2" data-name="レイヤー 1"><path class="cls-1" d="M69.74,6.44a16.64,16.64,0,0,1-9.56-2.69A24.88,24.88,0,0,0,46.49,0,24.82,24.82,0,0,0,32.8,3.75a16.64,16.64,0,0,1-9.56,2.69,16.59,16.59,0,0,1-9.55-2.69A24.88,24.88,0,0,0,0,0V8.52a16.66,16.66,0,0,1,9.55,2.69A24.88,24.88,0,0,0,23.24,15a24.88,24.88,0,0,0,13.69-3.75,16.72,16.72,0,0,1,9.56-2.69,16.72,16.72,0,0,1,9.56,2.69A24.88,24.88,0,0,0,69.74,15Z"/><path class="cls-1" d="M69.74,29.05a16.72,16.72,0,0,1-9.56-2.69,24.88,24.88,0,0,0-13.69-3.75A24.82,24.82,0,0,0,32.8,26.36a16.72,16.72,0,0,1-9.56,2.69,16.66,16.66,0,0,1-9.55-2.69A24.88,24.88,0,0,0,0,22.61v8.52a16.66,16.66,0,0,1,9.55,2.69,24.88,24.88,0,0,0,13.69,3.75,24.88,24.88,0,0,0,13.69-3.75,16.72,16.72,0,0,1,9.56-2.69,16.72,16.72,0,0,1,9.56,2.69,24.88,24.88,0,0,0,13.69,3.75Z"/><path class="cls-1" d="M69.74,51.66A16.72,16.72,0,0,1,60.18,49a24.88,24.88,0,0,0-13.69-3.75A24.82,24.82,0,0,0,32.8,49a16.72,16.72,0,0,1-9.56,2.69A16.66,16.66,0,0,1,13.69,49,24.88,24.88,0,0,0,0,45.22v8.52a16.66,16.66,0,0,1,9.55,2.69,24.88,24.88,0,0,0,13.69,3.75,24.88,24.88,0,0,0,13.69-3.75,16.72,16.72,0,0,1,9.56-2.69,16.72,16.72,0,0,1,9.56,2.69,24.88,24.88,0,0,0,13.69,3.75Z"/></g></g></svg>