<svg xmlns="http://www.w3.org/2000/svg" width="22.58mm" height="22.58mm" viewBox="0 0 64 64"><defs><style>.cls-1{fill:none;}.cls-2{fill:#231815;}</style></defs><g id="レイヤー_2" data-name="レイヤー 2"><g id="レイヤー_1-2" data-name="レイヤー 1"><rect class="cls-1" width="64" height="64"/><g id="_100" data-name="100"><path class="cls-2" d="M26.86,49.7a.47.47,0,0,0-.46-.32.5.5,0,0,0-.47.32L24.67,53a.5.5,0,0,0,0,.46.5.5,0,0,0,.41.22h.67a3.84,3.84,0,0,1-7.6-.82V48.79a.8.8,0,0,0,.23-.18,32.77,32.77,0,0,0,7.4-20.78,32.77,32.77,0,0,0-7.4-20.78.93.93,0,0,0-.72-.34.91.91,0,0,0-.72.34,32.84,32.84,0,0,0,0,41.56.76.76,0,0,0,.22.18V52.9a3.85,3.85,0,0,1-6.56,2.72,3.91,3.91,0,0,1-1-1.9h.67a.49.49,0,0,0,.41-.22.5.5,0,0,0,.05-.46L9.48,49.7a.5.5,0,0,0-.93,0L7.28,53a.5.5,0,0,0,.06.46.49.49,0,0,0,.41.22H8.6A4.84,4.84,0,0,0,17.71,55a4.83,4.83,0,0,0,9.1-1.31h.85a.49.49,0,0,0,.41-.22.47.47,0,0,0,.06-.46ZM11.44,27.83c0-.11,0-.21,0-.32l11.87-5.93A31.76,31.76,0,0,1,23.93,27l-12,6A31.33,31.33,0,0,1,11.44,27.83ZM21.15,14.9a30.73,30.73,0,0,1,1.74,4.82L11.55,25.39a30.76,30.76,0,0,1,1.15-6.26Zm-7.6,1.72a30.75,30.75,0,0,1,4.16-7.43,31.06,31.06,0,0,1,2.59,4.06ZM23.92,29.05a31.46,31.46,0,0,1-.84,6.1l-9.23,4.61a32.09,32.09,0,0,1-1.58-4.89Zm-1.54,8.53a31,31,0,0,1-4.67,8.9,31,31,0,0,1-3.09-5Z"/><path class="cls-2" d="M55.43,49.7a.47.47,0,0,0-.46-.32.5.5,0,0,0-.47.32L53.24,53a.5.5,0,0,0,0,.46.5.5,0,0,0,.41.22h.67a3.84,3.84,0,0,1-7.6-.82V48.79a.8.8,0,0,0,.23-.18A32.88,32.88,0,0,0,47,7.05a.93.93,0,0,0-.72-.34.91.91,0,0,0-.72.34,32.84,32.84,0,0,0,0,41.56.76.76,0,0,0,.22.18V52.9a3.85,3.85,0,0,1-6.56,2.72,3.91,3.91,0,0,1-1-1.9h.67a.49.49,0,0,0,.41-.22.5.5,0,0,0,.05-.46L38.05,49.7a.5.5,0,0,0-.93,0L35.85,53a.53.53,0,0,0,.06.46.49.49,0,0,0,.41.22h.85A4.84,4.84,0,0,0,46.28,55a4.83,4.83,0,0,0,9.1-1.31h.85a.48.48,0,0,0,.41-.22A.47.47,0,0,0,56.7,53ZM48.87,13.25c.3.54.59,1.09.85,1.65l-8.45,4.23c.25-.85.54-1.69.85-2.51Zm2.59,6.47c.17.61.3,1.24.43,1.86L40,27.51c0-.71,0-1.42.09-2.12Zm1,7.24c0,.29,0,.58,0,.87s0,.81,0,1.22L40.84,34.87c-.14-.62-.28-1.25-.39-1.88Zm-.85,8.19c-.2.83-.44,1.63-.7,2.43l-7.76,3.88c-.28-.56-.53-1.12-.77-1.7Z"/></g></g></g></svg>