<svg xmlns="http://www.w3.org/2000/svg" width="60.71" height="57.84" viewBox="0 0 60.71 57.84"><defs><style>.cls-1{fill:#fff;}</style></defs><g id="レイヤー_2" data-name="レイヤー 2"><g id="レイヤー_1-2" data-name="レイヤー 1"><path class="cls-1" d="M60.71,24.63C60.71,11.05,47.09,0,30.35,0S0,11.05,0,24.63C0,36.81,10.8,47,25.39,48.94c1,.21,2.33.65,2.67,1.49a6.23,6.23,0,0,1,.1,2.75s-.36,2.14-.44,2.6c-.13.76-.61,3,2.63,1.63S47.83,47.12,54.2,39.79h0C58.6,35,60.71,30.07,60.71,24.63ZM19.64,31.34a1.13,1.13,0,0,1-1.13,1.14h-8a.61.61,0,0,1-.41-.17h0a.58.58,0,0,1-.16-.4V19.2a1.14,1.14,0,0,1,1.13-1.13h1a1.14,1.14,0,0,1,1.14,1.13v9.42a.54.54,0,0,0,.54.54h5.24a.59.59,0,0,1,.59.59Zm5.14,0a1.14,1.14,0,0,1-1.14,1.14h-1a1.13,1.13,0,0,1-1.13-1.14V19.2a1.13,1.13,0,0,1,1.13-1.13h1.59a.59.59,0,0,1,.59.59Zm14.65,0a1.14,1.14,0,0,1-1.13,1.14H36.71l-.15,0h-.14l0,0h0a.5.5,0,0,1-.15-.14l-5.09-6.87a.54.54,0,0,0-1,.32v5.66A1.14,1.14,0,0,1,29,32.48H28a1.14,1.14,0,0,1-1.13-1.14V19.2A1.14,1.14,0,0,1,28,18.07h1.86l0,0h0l0,0v0l0,0h0a.08.08,0,0,1,0,0h0l0,.06,5.08,6.86a.54.54,0,0,0,1-.32V19.2a1.14,1.14,0,0,1,1.14-1.13h1.58a.58.58,0,0,1,.59.59ZM51.19,20.25a1.14,1.14,0,0,1-1.13,1.13h-4.7a.55.55,0,0,0-.55.54v1.15a.55.55,0,0,0,.55.55h4.69a1.13,1.13,0,0,1,1.14,1.13v1a1.14,1.14,0,0,1-1.13,1.14h-4.7a.55.55,0,0,0-.55.54v1.15a.55.55,0,0,0,.55.54h4.69a1.14,1.14,0,0,1,1.14,1.14v1a1.14,1.14,0,0,1-1.13,1.14h-8a.61.61,0,0,1-.41-.17h0a.59.59,0,0,1-.17-.4V18.66a.61.61,0,0,1,.17-.41h0a.57.57,0,0,1,.41-.17h8a1.14,1.14,0,0,1,1.14,1.13Z"/></g></g></svg>