<svg xmlns="http://www.w3.org/2000/svg" width="84.91" height="87.57" viewBox="0 0 84.91 87.57"><defs><style>.cls-1{fill:#fff;}</style></defs><g id="レイヤー_2" data-name="レイヤー 2"><g id="レイヤー_1-2" data-name="レイヤー 1"><g id="_100" data-name="100"><path class="cls-1" d="M33.66,73.77a.86.86,0,0,0-1.6,0l-2.17,5.75a.86.86,0,0,0,.1.79.83.83,0,0,0,.7.36h1.14a6.59,6.59,0,0,1-13-1.4V72.21a1.79,1.79,0,0,0,.38-.3,56.24,56.24,0,0,0,12.7-35.66A56.24,56.24,0,0,0,19.18.59,1.62,1.62,0,0,0,17.94,0a1.58,1.58,0,0,0-1.23.59,56.38,56.38,0,0,0,0,71.32,1.4,1.4,0,0,0,.38.3v7.06a6.6,6.6,0,0,1-13,1.4H5.19a.86.86,0,0,0,.71-.36.89.89,0,0,0,.1-.79L3.82,73.77a.85.85,0,0,0-.8-.55.87.87,0,0,0-.8.55L.05,79.52a.89.89,0,0,0,.1.79.86.86,0,0,0,.71.36H2.31a8.3,8.3,0,0,0,15.63,2.25,8.3,8.3,0,0,0,15.63-2.25H35a.84.84,0,0,0,.7-.36.86.86,0,0,0,.1-.79ZM7.19,36.25c0-.18,0-.36,0-.54L27.57,25.53a53.78,53.78,0,0,1,1.06,9.23L8,45.1A52.67,52.67,0,0,1,7.19,36.25ZM23.85,14.07a53,53,0,0,1,3,8.25L7.38,32.06a53,53,0,0,1,2-10.75ZM10.82,17A53.37,53.37,0,0,1,17.94,4.25a54,54,0,0,1,4.46,7ZM28.6,38.34a53,53,0,0,1-1.44,10.47L11.33,56.73a52.11,52.11,0,0,1-2.71-8.4ZM26,53a53.2,53.2,0,0,1-8,15.27,54.07,54.07,0,0,1-5.3-8.61Z"/><path class="cls-1" d="M82.69,73.77a.86.86,0,0,0-1.6,0l-2.17,5.75a.86.86,0,0,0,.1.79.83.83,0,0,0,.7.36h1.14a6.59,6.59,0,0,1-13-1.4V72.21a1.79,1.79,0,0,0,.38-.3,56.41,56.41,0,0,0,0-71.32A1.62,1.62,0,0,0,67,0a1.58,1.58,0,0,0-1.23.59,56.38,56.38,0,0,0,0,71.32,1.4,1.4,0,0,0,.38.3v7.06a6.6,6.6,0,0,1-13,1.4h1.14a.86.86,0,0,0,.71-.36.89.89,0,0,0,.1-.79l-2.18-5.75a.85.85,0,0,0-.8-.55.87.87,0,0,0-.8.55l-2.17,5.75a.89.89,0,0,0,.1.79.84.84,0,0,0,.7.36h1.46A8.3,8.3,0,0,0,67,82.92,8.3,8.3,0,0,0,82.6,80.67h1.46a.84.84,0,0,0,.7-.36.86.86,0,0,0,.1-.79ZM71.43,11.23c.5.93,1,1.87,1.45,2.84L58.39,21.31c.42-1.45.91-2.89,1.46-4.29Zm4.45,11.09c.28,1.06.5,2.13.72,3.21L56.25,35.71c0-1.23.06-2.45.16-3.65Zm1.77,12.44c0,.5.07,1,.07,1.49,0,.7-.06,1.39-.09,2.09l-20,10c-.25-1.07-.49-2.14-.68-3.23ZM76.19,48.81c-.35,1.42-.75,2.8-1.2,4.17L61.67,59.64c-.47-1-.9-1.93-1.31-2.91Z"/></g></g></g></svg>