<svg xmlns="http://www.w3.org/2000/svg" width="613.37" height="613.37" viewBox="0 0 613.37 613.37"><defs><style>.cls-1{fill:#fff;}.cls-2,.cls-3,.cls-4{fill:none;stroke:#fff;stroke-miterlimit:10;}.cls-3{stroke-width:13px;}.cls-4{stroke-width:5px;}</style></defs><g id="レイヤー_2" data-name="レイヤー 2"><g id="レイヤー_1-2" data-name="レイヤー 1"><path class="cls-1" d="M58.78,271.55c-1.47-9.47-2.69-18.49-3.91-27.15,2.77-5.87,7.39-11.92,13.56-18,1.4,9.79,2.92,19.95,4.71,30.51A86.07,86.07,0,0,0,58.78,271.55Zm146.87,84.12C159.47,372,120.31,385.42,93.26,394.28q-2.91-6.79-5.56-13.62l3.7-1.36a524.53,524.53,0,0,1-22.71-76q-2,1.53-3.74,3c-2-9.23-3.65-18.15-5.08-26.72a97.17,97.17,0,0,1,15.75-14.76c6,33.76,15.15,71.9,28.7,109.7,25-9.21,58.24-21.38,96.08-35.2Q203,347.55,205.65,355.67ZM149.48,352l-15.5,5.8c-8.69-23.31-16.17-46.84-22.32-69.32-2,1-4,2-6,3.05,3.59,23.44,8.29,47.64,14.12,71.35l-12.88,4.64A745.4,745.4,0,0,1,81.76,258.17q-2.31,1.65-4.45,3.27c-1.75-9.24-3.29-18.18-4.68-26.83,1.65-1.46,3.38-2.93,5.21-4.4q-.89-7.1-1.64-14a206.62,206.62,0,0,1,20.48-15q.39,7.31.93,14.9,4.61-3,9.58-5.88c1.82,9.06,3.89,18.52,6.22,28.32q-7,3.85-13.36,7.68,1,10.17,2.27,20.69c7.19-4.07,15-8.23,23.42-12.43A946.1,946.1,0,0,0,149.48,352Zm21-154.59c-13.48,5.82-26.39,11.8-38.38,17.86a1.29,1.29,0,0,0,0,.19q-8.88,4.49-17,9-3.78-15.63-6.63-29.85c6.06-3.55,12.47-7.06,19.17-10.5.23,1.91.47,3.85.72,5.8,12.21-6.28,25.37-12.36,39.08-18.16C168.28,179.82,169.29,188.4,170.51,197.37Zm3.45,29c-1.74,11.5-3.31,23.33-4.69,35.32q4.83-2.06,9.79-4.13c1.3,7.58,2.7,15.28,4.18,23l-11.54,4.72c3.7,17.91,7.89,36.17,12.48,54.24l-15,5.54c-6.2-17.23-11.93-34.59-17.09-51.57q-5.9,2.52-11.52,5-2.84-10.95-5.35-21.71,5.37-2.49,11-5c.85-11.64,1.9-23.18,3.15-34.46-9.65,4.47-18.85,8.94-27.44,13.35q-2.91-11.1-5.39-21.68c16.32-8.9,35-17.82,54.87-26.4C172.16,210.28,173,218.24,174,226.4Z"/><path class="cls-1" d="M222.89,185.56c-12.64,4.68-25.14,9.55-37.27,14.56-5.45-11.4-10.4-22.06-14.82-31.9,13.41-5.57,27.31-10.84,41.36-15.74C215.31,162.52,218.91,173.62,222.89,185.56Zm19.67,55.54c-10.65,4-21.2,8-31.53,12.1-6.72-12.47-13.09-24.54-19-36,12-4.92,24.4-9.75,36.92-14.43C233.19,214.94,237.76,227.8,242.56,241.1ZM286.14,158q3.28-7.14,6.44-13.66c-8.81,2.48-17.74,5.1-26.73,7.87q-1.73,3.64-3.46,7.45c-13.16,4.21-26.4,8.7-39.51,13.44,5-13,10.16-25,15.24-35.48,28.18-8.56,56-15.4,81.84-20.69,2.26,5.34,4.59,11.49,7,18.34-1.44,3.88-2.93,8-4.47,12.3q11.73-3.16,23.06-6c10.8,25.2,22.1,58.28,32.6,94-35.28,12-73.79,25.62-111.53,39.51-15-35.29-28.9-69-40.21-97.18C246.27,170.68,266.41,164,286.14,158Zm-35,107.18c7.58,20.23,15.56,41.1,23.63,61.74q-9.75,3.54-19.4,7C244.12,314.59,233,295,222.54,276,232,272.43,241.53,268.81,251.18,265.21Zm10.1-70.91L267.36,211c8.15-2.89,16.31-5.71,24.42-8.47-2.52-5.49-5-10.86-7.42-16.07Q272.86,190.26,261.28,194.3Zm8,87.5q11.67-4.29,23.42-8.55c2.84,14.41,5.73,29,8.6,43.57l-18.57,6.74C278.18,309.65,273.67,295.64,269.26,281.8Zm11-35.34c9-3.25,18.05-6.46,27-9.61q-4.16-9.06-8.22-17.85-12.72,4.4-25.52,9Zm19.87,24.09q11.3-4.08,22.52-8.08c3.43,14.11,6.85,28.49,10.2,42.83l-19.39,7.08C309,298.41,304.57,284.37,300.14,270.55Zm31.46-99q-11.06,3.28-22.39,6.84,2.73,8,5.53,16.47,11.89-3.87,23.52-7.48C336,182,333.8,176.69,331.6,171.58Zm20.59,49.91q-3.48-9.12-7-17.9-12.35,4-25,8.22,2.93,9.08,5.9,18.5Q339.31,225.78,352.19,221.49Zm-1.07,30.9c5.19,13.36,10.33,27,15.32,40.58q-8.88,3.28-17.93,6.6C342.29,286.32,336,273,329.62,260Q340.47,256.14,351.12,252.39Zm28.82-10c5.55,12.76,11,25.78,16.23,38.83l-17.47,6.46c-6.86-12.59-13.89-25.19-21-37.58Q369,246.14,379.94,242.37Z"/><path class="cls-1" d="M457.6,186.05a610.22,610.22,0,0,1,25.8,63.89l-9.58,3.66A658.23,658.23,0,0,0,443.4,190q-13.08,3.71-27.41,8C426.83,219,437.14,241.42,446.46,264l-12,4.53c-11.29-22.13-23.59-44.29-36.26-65L393.28,205c-4.82-7.72-9.69-15.24-14.56-22.48,1.75-.52,3.49-1,5.22-1.52-14.33-21.72-28.76-40.93-42.16-55.64q10.25-2.25,20.06-4.19-5.05-5.21-10-9.52c10.61-1.85,20.81-3.49,30.6-5a118.75,118.75,0,0,1,9.07,8.95c6.37-1.12,12.56-2.17,18.61-3.17,12.63,12.87,25,31,36.32,51.86l3.67-.88c3.82,6.92,7.52,14.16,11.1,21.62Zm-50.14-51.21q-12.37,2.61-25.64,5.66c7.31,10.43,14.67,22.22,21.89,34.93q14-3.85,26.9-7.15A355.07,355.07,0,0,0,407.46,134.84Zm-.11,34.83c-6.49-9.61-13.05-18.65-19.6-26.9q9.33-2.18,18.22-4.1c5.7,8.22,11.34,17.29,16.85,27Q415.26,167.58,407.35,169.67Zm37.26,68.87c-6.33-12.94-13-25.7-19.86-38q7.41-2.23,14.47-4.32c6.21,12.25,12.16,25,17.75,38Zm20.06-82.84q-7.65,1.68-15.82,3.59c-13.37-22.83-28-42-42.89-54,8.12-1.23,16-2.42,23.66-3.66C442.53,113.52,454.35,132.7,464.67,155.7ZM525.53,233c-9.94,4-22.45,8.88-37.28,14.57C478.2,217.86,465.88,188.39,452,163c18.61-4.44,35-7.89,49.61-10.79C511.84,176.76,519.73,204.79,525.53,233ZM499,148.6c-4,.78-8.05,1.59-12.27,2.44-13.34-21.72-28.87-40.12-45.56-51.34,7.15-1.26,14.2-2.64,21.31-4.23C476.54,107.61,488.8,126.52,499,148.6Zm-18.92,32.13c6.2,15.31,11.76,31.6,16.64,48.2l15.86-5.6A448.34,448.34,0,0,0,495.13,177Q488,178.71,480.08,180.73Z"/><path class="cls-1" d="M264.87,435.61q-13.44,4-26.35,7.58c8,34.95,16.81,61,25.26,69.5q-6.46.6-12.69,1.14c-14.52-6.8-30.5-30.18-45.67-61.86-16.41,4.14-31.74,7.68-45.92,10.73,7.89,13.94,16.26,26,24.91,35.32-5.51.9-10.88,1.77-16.15,2.65C157.05,492,146.17,480.61,136,467.54q-8.91,1.77-17.23,3.33A260.44,260.44,0,0,1,100,442.76c5.16-1.13,10.58-2.35,16.3-3.69-5-8.17-9.67-16.65-14-25.3q13.8-3.87,30.63-8.95c3.61,9.4,7.41,18.55,11.38,27.33,14.28-3.7,30-8,46.82-12.94-3.93-9.89-7.75-20.21-11.42-30.8,14.21-4.63,29.32-9.67,45.05-15,2,11.6,4,22.9,6.14,33.75,8-2.51,16.14-5.12,24.42-7.82C258.47,412.07,261.68,424.26,264.87,435.61Z"/><path class="cls-1" d="M430.09,388.85c-44.7,19.3-95.69,37.39-142.74,51.56-5.55-8.75-11.26-18.06-17.05-27.79,50.84-16.27,106.33-36.4,154.34-56.58C426.67,367.29,428.49,378.26,430.09,388.85Z"/><path class="cls-1" d="M547.65,346.51c-3.66,8.17-11.64,17-23,26,1.69,18.79,2.77,36.47,3.76,53.18-3.46,2.95-7.22,5.86-11.23,8.73-3.24-14.87-6.81-30.94-11.41-48.53a453.81,453.81,0,0,1-51.25,27.68q-4.79-11.79-10.34-24.68A606.83,606.83,0,0,0,499,361.13Q495.17,348,490.53,334c-14.06,9.1-30.19,18.63-47.65,28.21-4.67-11.29-9.71-23-15.07-35,51.1-28.4,90.66-54.19,109.37-71.06,1.86,12.51,3.32,24.87,4.52,37-5.4,6.51-13.51,13.92-24,22,1.69,10.63,3.13,21.07,4.36,31.25,12-8.62,20.49-16.76,24.58-24Q547.17,334.6,547.65,346.51Z"/><circle class="cls-2" cx="306.68" cy="306.68" r="267.89"/><circle class="cls-3" cx="306.68" cy="306.68" r="297.05"/><line class="cls-4" x1="195.37" y1="0.86" x2="221.65" y2="73.05"/><line class="cls-4" x1="0.86" y1="418" x2="73.05" y2="391.72"/><line class="cls-4" x1="418" y1="612.51" x2="391.72" y2="540.32"/><line class="cls-4" x1="612.51" y1="195.37" x2="540.32" y2="221.65"/><path class="cls-1" d="M295.79,465.39l-.54,23c-.11,4.33-1.46,6.74-4.6,7.88l-1.42-1.78.13-.39c2.47-.89,3.67-2.53,3.8-6l-14.65-16.45,4.87-1.78,9.94,11.2.38-14.95Z"/><path class="cls-1" d="M315.35,458.28l6.84,18.79-4.5,1.64-1-2.75c-.92,1.91-2.66,4.59-5.54,5.63-3.31,1.21-5.84.05-7.11-3.45L299,464.24l4.49-1.64,5,13.75c.68,1.88,1.77,2.55,3.29,2s3.2-2.57,4.11-4.6l-5-13.83Z"/><path class="cls-1" d="M345.41,469.51c1.6,4.4-1.86,7.53-7.54,9.6-6.39,2.32-9.53,1.59-10.67-1.53a4.87,4.87,0,0,1,.18-3.51,3.8,3.8,0,0,1-1.84-2.22,5.94,5.94,0,0,1,.92-5.15,6.15,6.15,0,0,1-4.3-4.13c-1.59-4.36.91-7.61,5.2-9.18a8.9,8.9,0,0,1,5.93-.33l4.49-3.46.3-.11,1.19,3.27-4,1.45a7.31,7.31,0,0,1,1.86,2.9c1.58,4.32-.9,7.52-5.13,9.06a11.2,11.2,0,0,1-3.79.74,2.3,2.3,0,0,0-.36,2c.34.94,1.07,1.48,2.83.84l7.51-2.73C341.45,465.89,344.31,466.5,345.41,469.51ZM326.74,462c.77,2.11,2.12,3,4.52,2.1s2.74-2.36,2-4.46l-.69-1.88c-.76-2.1-2.1-3.15-4.44-2.3s-2.82,2.56-2.05,4.66Zm15.62,10.07c-.43-1.17-1.4-1.41-3.6-.61l-6.42,2.34a9.55,9.55,0,0,1-3.21.66,3.42,3.42,0,0,0,.13,2c.73,2,3,2.34,7.84.59S342.93,473.65,342.36,472.07Z"/><path class="cls-1" d="M356.75,443.21l-.55,23c-.1,4.34-1.45,6.74-4.6,7.89l-1.41-1.79.13-.38c2.47-.9,3.67-2.53,3.8-6L339.47,449.5l4.87-1.77,9.93,11.19.39-14.95Z"/><path class="cls-1" d="M361.16,452.24c-2.29-6.27.2-11.22,5.58-13.18s10.46.24,12.75,6.51-.21,11.23-5.58,13.18S363.44,458.52,361.16,452.24Zm14.52-2.6L374,444.87c-1.37-3.76-3.81-4.66-6.45-3.7s-3.92,3.21-2.55,7L366.7,453c1.37,3.76,3.8,4.66,6.44,3.7S377.05,453.4,375.68,449.64Z"/><path class="cls-1" d="M384.67,451.81l.26-2.13.37-.14a9.71,9.71,0,0,0,7.09.1c2.4-.87,3.28-2.34,2.68-4-1.61-4.44-11.23,1.45-13.82-5.66-1.2-3.3.88-6.53,5.28-8.13a10.38,10.38,0,0,1,6.93-.22l-.11,2.12-.37.14a8,8,0,0,0-5.69.06c-2.26.83-3.23,2.16-2.74,3.51,1.44,3.95,11.7-1.74,14.26,5.28,1.53,4.21-1.36,7.44-5.62,9A12,12,0,0,1,384.67,451.81Z"/><path class="cls-1" d="M405.24,436.84l.64,1.77c1.33,3.64,3.86,4.72,7.38,3.44a8.4,8.4,0,0,0,5-4.66l.37-.14,1.66,1.1a10.75,10.75,0,0,1-6.54,5.91c-6,2.18-11.09-.05-13.36-6.29s.24-11.23,5.59-13.18c5.17-1.88,10.12.36,12.37,6.52l.24.68Zm-1-2.78.26.71,8.93-3.25-.26-.71c-1.39-3.84-3.8-4.87-6.44-3.91S402.83,430.22,404.22,434.06Z"/><path class="cls-1" d="M437.35,419.4l5.06,13.91-4.5,1.64-5-13.76c-.67-1.84-1.74-2.56-3.26-2s-3.24,2.58-4.14,4.61l5,13.83-4.5,1.64-6.84-18.79,4.5-1.64,1,2.74c.91-1.9,2.66-4.58,5.57-5.64C433.55,414.74,436.08,415.91,437.35,419.4Z"/><path class="cls-1" d="M321.67,517.31l.25-2.13.38-.14a9.69,9.69,0,0,0,7.08.1c2.4-.87,3.28-2.34,2.68-4-1.61-4.44-11.23,1.45-13.81-5.66-1.21-3.3.87-6.53,5.27-8.13a10.38,10.38,0,0,1,6.93-.22l-.11,2.12-.37.14a8,8,0,0,0-5.68.06c-2.27.83-3.24,2.16-2.75,3.51,1.44,3.95,11.7-1.74,14.26,5.28,1.53,4.21-1.36,7.44-5.62,9A12,12,0,0,1,321.67,517.31Z"/><path class="cls-1" d="M342.23,502.34l.64,1.77c1.33,3.64,3.86,4.72,7.38,3.44a8.37,8.37,0,0,0,5-4.66l.37-.14,1.67,1.1a10.77,10.77,0,0,1-6.55,5.91c-6,2.18-11.08-.05-13.35-6.29s.23-11.23,5.58-13.18c5.17-1.88,10.13.36,12.37,6.52l.24.68Zm-1-2.78.26.71,8.93-3.25-.26-.71c-1.4-3.84-3.81-4.87-6.45-3.91S339.82,495.72,341.22,499.56Z"/><path class="cls-1" d="M373.94,486.63l4.55,12.51-4.5,1.64-.71-1.95a7.41,7.41,0,0,1-4.67,4.42c-4,1.46-7.64.06-9.17-4.15s.59-7.54,4.68-9a9.1,9.1,0,0,1,5.87-.3l-.91-2.48c-1-2.63-2.7-3.11-5-2.27a10.62,10.62,0,0,0-5.19,4.36l-.31.11-1.49-1.67a15,15,0,0,1,7.09-5.26C368.68,480.92,372.14,481.7,373.94,486.63Zm-1.47,10-1.79-4.93a6.49,6.49,0,0,0-4.49,0c-2.3.84-3.4,2.64-2.4,5.39l.34.94c.91,2.51,2.84,3.39,4.8,2.67A5.76,5.76,0,0,0,372.47,496.61Z"/><path class="cls-1" d="M389,473.71l1.29,3.53-.28.19a4.73,4.73,0,0,0-2.41.32,6.19,6.19,0,0,0-3.71,4.63l4.76,13.08-4.5,1.64-6.84-18.79,4.5-1.64L383,480c.45-2.12,2-5,4.74-6A4.1,4.1,0,0,1,389,473.71Z"/><path class="cls-1" d="M406.24,487.17a7.09,7.09,0,0,0,4.35-4.26l.37-.14,1.57,1.17a9,9,0,0,1-5.66,5.38c-5.48,2-10.58-.23-12.85-6.47s.2-11.22,5.68-13.22a8.82,8.82,0,0,1,7.8.48L407,472.4l-.37.13a6.46,6.46,0,0,0-6-.84c-2.94,1.07-4,3.64-2.72,7.24l1.61,4.44C400.81,487,403.3,488.24,406.24,487.17Z"/><path class="cls-1" d="M428.37,465.24l5.06,13.91-4.5,1.63-5-13.75c-.67-1.84-1.73-2.56-3.25-2s-3.24,2.59-4.15,4.62l5,13.83-4.5,1.64-9.58-26.31,4.5-1.64,3.74,10.26c.91-1.91,2.65-4.58,5.56-5.64C424.56,460.58,427.1,461.75,428.37,465.24Z"/></g></g></svg>