<svg xmlns="http://www.w3.org/2000/svg" width="22.58mm" height="22.58mm" viewBox="0 0 64 64"><defs><style>.cls-1{fill:none;}.cls-2{fill:#126eaa;}</style></defs><g id="レイヤー_2" data-name="レイヤー 2"><g id="レイヤー_1-2" data-name="レイヤー 1"><rect class="cls-1" width="64" height="64"/><path class="cls-2" d="M26.82,6.88a2.76,2.76,0,0,0-5.52,0v6.5h5.52Z"/><path class="cls-2" d="M41.55,6.88a2.76,2.76,0,0,0-5.52,0v6.5h5.52V6.88Z"/><path class="cls-2" d="M46.6,15.58H16.25a.52.52,0,0,0-.52.52v3.5a.52.52,0,0,0,.52.51h2.29v2.27A12.93,12.93,0,0,0,28.68,35v4.21h5.49V35A12.93,12.93,0,0,0,44.31,22.38V20.11H46.6a.51.51,0,0,0,.52-.51V16.1A.52.52,0,0,0,46.6,15.58Zm-4.76,9a14.3,14.3,0,0,1-7.57,7.57,1.29,1.29,0,0,1-.51.1,1.31,1.31,0,0,1-.51-2.52,11.73,11.73,0,0,0,6.17-6.17,1.31,1.31,0,0,1,2.42,1Z"/><path class="cls-2" d="M8.66,57.49h3.18V48.13H9.16V46.31a9.6,9.6,0,0,0,3.44-1.24h2.19V57.49h2.78v2.38H8.66Z"/><path class="cls-2" d="M19.68,52.41c0-5.12,2-7.62,5-7.62s5,2.52,5,7.62-2,7.74-5,7.74S19.68,57.51,19.68,52.41Zm7.24,0c0-4.14-1-5.34-2.22-5.34s-2.24,1.2-2.24,5.34,1,5.44,2.24,5.44S26.92,56.57,26.92,52.41Z"/><path class="cls-2" d="M31.46,52.41c0-5.12,2-7.62,5-7.62s5,2.52,5,7.62-2,7.74-5,7.74S31.46,57.51,31.46,52.41Zm7.24,0c0-4.14-1-5.34-2.22-5.34s-2.24,1.2-2.24,5.34,1,5.44,2.24,5.44S38.7,56.57,38.7,52.41Z"/><path class="cls-2" d="M42.26,45.07h3.1l2,7.2c.46,1.64.76,3.12,1.24,4.78h.1c.46-1.66.8-3.14,1.26-4.78l1.92-7.2h3L50.3,59.87H46.78Z"/></g></g></svg>