<svg xmlns="http://www.w3.org/2000/svg" width="182" height="194" viewBox="0 0 182 194"><defs><style>.cls-1{fill:#0074b6;}.cls-2{fill:#fff;}</style></defs><g id="レイヤー_2" data-name="レイヤー 2"><g id="レイヤー_1-2" data-name="レイヤー 1"><rect class="cls-1" width="182" height="194" rx="18.55"/><path class="cls-2" d="M15.67,158.63H12.94v-5.28h9.8v-1h-8v-2.29H33.87v2.29H25.76v1h10v5.28H32.91V155.4H25.76v5.41h-3V155.4H15.67ZM32.34,171c1.3,0,1.53-.39,1.71-2.6a8.14,8.14,0,0,0,2.58,1c-.37,3.12-1.2,4-4,4H27.14c-3.57,0-4.55-.76-4.55-3.49v-.07H18.27V171H15.33v-9.44h18v8.3H25.55v.07c0,1,.29,1.12,1.87,1.12ZM16.19,158.86h5.62v1.69H16.19Zm5.62-.91H16.68v-1.66h5.13Zm-3.54,5.64v1.15h4.32v-1.15Zm4.32,4.14v-1.12H18.27v1.12Zm7.67-4.14H25.55v1.15h4.71Zm0,4.14v-1.12H25.55v1.12Zm1.56-11.44V158H26.75v-1.66Zm-5.07,2.57h5.66v1.69H26.75Z"/><path class="cls-2" d="M39.49,153.56h9.88V156H39.49Zm9.15,18.85H43.23v1h-2.6v-8.87h8Zm-.13-12.82h-7.8v-2.32h7.8Zm-7.8,1.3h7.8v2.34h-7.8Zm7.82-8.58H40.86V150h7.67ZM43.23,167v3H46v-3Zm15.05-7.44V163h4.55v10.35H59.74V172.2h-5.9v1.25H50.9V163h4.24v-3.43H49.55v-2.88h5.59V153.5c-1.46.19-2.94.32-4.32.42a10,10,0,0,0-.83-2.6,56.39,56.39,0,0,0,11-1.9L63.2,152a38.81,38.81,0,0,1-4.92,1.06v3.62h5.6v2.88Zm1.46,6.22h-5.9v3.64h5.9Z"/><path class="cls-2" d="M78.77,167.44c0-.75.08-1.95.11-3.07-1.9,1-2.94,2.06-2.94,3.33,0,1.43,1.22,1.82,3.74,1.82a40,40,0,0,0,7.31-.75l-.1,3.35a70.81,70.81,0,0,1-7.29.42c-4,0-7.07-1-7.07-4.29s3.12-5.36,6.06-6.87a2,2,0,0,0-1.79-.88,6.33,6.33,0,0,0-4,1.77,33.62,33.62,0,0,0-2.4,2.83l-2.75-2A25.41,25.41,0,0,0,73.29,156H73c-1,0-2.93-.05-4.34-.18v-3a34.43,34.43,0,0,0,4.53.28H74.4a13.42,13.42,0,0,0,.52-2.94l3.38.29c-.13.62-.31,1.51-.62,2.55A58.59,58.59,0,0,0,85,152.2l0,3c-2.48.36-5.65.57-8.4.68a16,16,0,0,1-1.49,2.6A8.07,8.07,0,0,1,78,158a3.5,3.5,0,0,1,3.43,2c1.32-.63,2.42-1.07,3.48-1.54s1.9-.88,2.84-1.32l1.3,3A28.4,28.4,0,0,0,86,161.2c-1.15.44-2.6,1-4.19,1.74,0,1.43.08,3.33.11,4.5Z"/><path class="cls-2" d="M104.17,150.72c-.15.68-.33,1.48-.46,2.13s-.34,1.72-.52,2.66c.85-.06,1.63-.11,2.15-.11,2.73,0,4.66,1.22,4.66,4.92,0,3-.36,7.15-1.46,9.38-.85,1.8-2.29,2.37-4.24,2.37a14.17,14.17,0,0,1-3.06-.37l-.58-3.4a15.17,15.17,0,0,0,3.15.54,1.87,1.87,0,0,0,1.92-1.11c.73-1.43,1.07-4.5,1.07-7,0-2.05-.88-2.34-2.52-2.34-.42,0-1,0-1.77.1-1,3.9-2.86,10-5.23,13.76l-3.38-1.35c2.53-3.38,4.27-8.53,5.2-12-.91.1-1.71.21-2.21.28-.72.08-2,.26-2.86.39L93.75,156a22.61,22.61,0,0,0,2.73,0c.8,0,2-.1,3.33-.21a28.44,28.44,0,0,0,.54-5.46Zm8.9,2.42a46.29,46.29,0,0,1,4.5,9.57l-3.25,1.53c-.68-2.86-2.53-7.51-4.37-9.8Z"/><path class="cls-2" d="M126.87,151c-.21.63-.49,1.54-.6,2.08-.62,2.86-1.53,8.25-.85,11.44.33-.78.78-2,1.19-3l1.64,1a65.17,65.17,0,0,0-1.74,6.3,5.61,5.61,0,0,0-.18,1.24c0,.26,0,.71.07,1.07l-2.88.29a28.6,28.6,0,0,1-1.48-8.35,68.62,68.62,0,0,1,.85-10.27,13.57,13.57,0,0,0,.16-2.24Zm16.51,7.49c-1,.13-2.36.24-3.82.31v1.07c0,6.08-.47,9.8-5.59,13.08l-3-2.34a9.94,9.94,0,0,0,3-2.06c2-2.05,2.39-4.34,2.39-8.68V159c-1,0-1.95.06-2.89.06-1.12,0-2.7-.08-4-.13v-3.28a27.47,27.47,0,0,0,3.9.26c.94,0,1.93,0,2.92-.05,0-1.43-.08-2.76-.13-3.46a11.09,11.09,0,0,0-.29-1.77h3.77a14.55,14.55,0,0,0-.13,1.74c0,.58,0,1.9,0,3.31a34.77,34.77,0,0,0,3.87-.47Z"/><path class="cls-2" d="M164.91,153.35c-.62.39-1.22.78-1.79,1.17-1.38,1-4.08,3.25-5.7,4.55a8.48,8.48,0,0,1,2.42-.29c4.37,0,7.7,2.73,7.7,6.48,0,4.05-3.1,7.28-9.31,7.28-3.59,0-6.29-1.64-6.29-4.22,0-2.08,1.9-4,4.63-4a5.18,5.18,0,0,1,5.48,4.39,3.74,3.74,0,0,0,2.11-3.51c0-2.31-2.34-3.87-5.33-3.87-4,0-6.53,2.11-9.28,5.23l-2.34-2.42c1.82-1.48,4.91-4.11,6.44-5.36s4.11-3.35,5.39-4.47c-1.33,0-4.87.18-6.22.29a16.46,16.46,0,0,0-2.1.2l-.11-3.35a22.94,22.94,0,0,0,2.34.13c1.35,0,6.87-.13,8.32-.26a12.38,12.38,0,0,0,2-.26Zm-5.82,16.2c-.16-1.67-1.12-2.76-2.52-2.76-1,0-1.59.57-1.59,1.22,0,1,1.09,1.61,2.6,1.61A14.19,14.19,0,0,0,159.09,169.55Z"/><path class="cls-2" d="M109.84,25H66.16A7.18,7.18,0,0,0,59,32.16v85.68A7.18,7.18,0,0,0,66.16,125h43.69a7.17,7.17,0,0,0,7.15-7.15V32.16A7.18,7.18,0,0,0,109.84,25ZM88.23,117.84a2.15,2.15,0,1,1,2.15-2.15A2.14,2.14,0,0,1,88.23,117.84ZM113,109H64V37h49Z"/><path class="cls-2" d="M88.93,91.62a32.72,32.72,0,0,1-12.6-2.26A11.32,11.32,0,0,1,72.69,87a3.59,3.59,0,0,1-1.19-2.48A3,3,0,0,1,72,83a5.89,5.89,0,0,1,1.44-1.57.89.89,0,1,0-1.1-1.39,7.75,7.75,0,0,0-1.86,2,4.77,4.77,0,0,0-.71,2.45,5.34,5.34,0,0,0,1.69,3.72,16.27,16.27,0,0,0,7,3.72,37.62,37.62,0,0,0,10.49,1.4.89.89,0,0,0,0-1.77Z"/><path class="cls-2" d="M91,62.31V59.84a14.44,14.44,0,0,1-2.5.22,13.51,13.51,0,0,1-2.5-.23v2.48a12.63,12.63,0,0,0,5,0Z"/><path class="cls-2" d="M91,57.83v-2a2.52,2.52,0,0,0-5,0v2a12.62,12.62,0,0,0,5,0Z"/><path class="cls-2" d="M91,64.87a13.51,13.51,0,0,1-2.5.23,14.43,14.43,0,0,1-2.5-.23v1.7c0,6.61-7.92,6.61-7.92,18,0,0,3.34,2.21,10.42,2.21s10.42-2.21,10.42-2.21c0-11.38-7.92-11.38-7.92-18v-1.7Z"/></g></g></svg>