<svg xmlns="http://www.w3.org/2000/svg" width="22.58mm" height="22.58mm" viewBox="0 0 64 64"><defs><style>.cls-1{fill:none;}.cls-2{fill:#126eaa;}</style></defs><g id="レイヤー_2" data-name="レイヤー 2"><g id="レイヤー_1-2" data-name="レイヤー 1"><rect class="cls-1" width="64" height="64"/><path class="cls-2" d="M27.28,7a2.76,2.76,0,0,0-5.52,0v6.5h5.52Z"/><path class="cls-2" d="M42,7a2.76,2.76,0,1,0-5.52,0v6.5H42V7Z"/><path class="cls-2" d="M47.06,15.72H16.71a.52.52,0,0,0-.52.52v3.5a.52.52,0,0,0,.52.51H19v2.27A12.93,12.93,0,0,0,29.14,35.11v4.21h5.49V35.11A12.93,12.93,0,0,0,44.77,22.52V20.25h2.29a.51.51,0,0,0,.52-.51v-3.5A.52.52,0,0,0,47.06,15.72Zm-4.76,9a14.3,14.3,0,0,1-7.57,7.57,1.29,1.29,0,0,1-.51.1,1.31,1.31,0,0,1-.51-2.52,11.73,11.73,0,0,0,6.17-6.17,1.31,1.31,0,1,1,2.42,1Z"/><path class="cls-2" d="M14.23,58.31c4-3.6,6.4-6.38,6.4-8.66a2.12,2.12,0,0,0-2.22-2.4,3.83,3.83,0,0,0-2.72,1.52l-1.6-1.6a6,6,0,0,1,4.7-2.24,4.34,4.34,0,0,1,4.66,4.56c0,2.68-2.22,5.56-4.92,8.2.74-.08,1.72-.16,2.4-.16h3.23V60H14.23Z"/><path class="cls-2" d="M36.37,56.17H34.61V60H31.87V56.17h-6.3v-2l5.52-9h3.52v8.72h1.76Zm-4.5-2.24v-3c0-.86.08-2.2.12-3.06h-.08c-.36.78-.76,1.6-1.18,2.4l-2.3,3.68Z"/><path class="cls-2" d="M36.83,45.21h3.1l2,7.2c.46,1.64.76,3.12,1.24,4.78h.1c.46-1.66.8-3.14,1.26-4.78l1.92-7.2h3L44.87,60H41.35Z"/></g></g></svg>