<svg xmlns="http://www.w3.org/2000/svg" width="22.58mm" height="22.58mm" viewBox="0 0 64 64"><defs><style>.cls-1{fill:none;}.cls-2{fill:#126eaa;}</style></defs><g id="レイヤー_2" data-name="レイヤー 2"><g id="レイヤー_1-2" data-name="レイヤー 1"><rect class="cls-1" width="64" height="64"/><path class="cls-2" d="M28.37,43.89c-14.75-6.7-27.93.45-27.93.45,8-1.56,12.36-2.66,27.48,2.91,17,6.25,28.38-4.7,28.38-4.7S43.12,50.6,28.37,43.89Z"/><path class="cls-2" d="M25,16.93A2.09,2.09,0,1,0,27.1,19,2.09,2.09,0,0,0,25,16.93Z"/><path class="cls-2" d="M15.93,19A2.09,2.09,0,1,0,18,21.1,2.09,2.09,0,0,0,15.93,19Z"/><path class="cls-2" d="M62.94,21.21a.87.87,0,0,0-.78-.55c-1.93-.11-3.87-.16-5.81-.16-1.67,0-3.33,0-5,.1L35.87,11.7l-.37-.11c-1.33-.11-2.65-.15-3.95-.15a62.69,62.69,0,0,0-18.3,2.91l-2.77-3.2a.89.89,0,0,0-1-.26L7,11.79a.89.89,0,0,0-.58,1l.7,3.78c-2.48,1-3.95,1.82-4,1.83a.88.88,0,0,0-.42,1.06L5.84,29c-1.65.52-2.56.84-2.57.85A.89.89,0,0,0,2.72,31l2.57,7.94a.9.9,0,0,0,1.08.59,33.78,33.78,0,0,1,8.76-1.17A30.85,30.85,0,0,1,28,41.13a30.29,30.29,0,0,0,12.65,2.74,32.94,32.94,0,0,0,6.81-.72.88.88,0,0,0,.62-.47,86.83,86.83,0,0,1,9.16-13.92c1.54-2,2.93-3.62,3.93-4.78.5-.58.9-1,1.18-1.35s.42-.48.42-.48A.88.88,0,0,0,62.94,21.21ZM7.55,28.49,4.63,19.63c2.75-1.35,13.91-6.42,26.92-6.41,1.19,0,2.4,0,3.62.14l12.92,7.43A188.79,188.79,0,0,0,7.55,28.49Z"/><path class="cls-2" d="M32.17,18a2.09,2.09,0,1,0,2.09-2.08A2.09,2.09,0,0,0,32.17,18Z"/></g></g></svg>