<svg xmlns="http://www.w3.org/2000/svg" width="22.58mm" height="22.58mm" viewBox="0 0 64 64"><defs><style>.cls-1{fill:none;}.cls-2{fill:#126eaa;}</style></defs><g id="レイヤー_2" data-name="レイヤー 2"><g id="レイヤー_1-2" data-name="レイヤー 1"><rect class="cls-1" width="64" height="64"/><path class="cls-2" d="M57.94,24,44.79,21.1c-2.57-3.94-16.49-6.88-18.27-7.24l-.13,0c-.33-.61-.69-1.24-1.09-1.89-1.2-1.93-2.73-4-4.55-6.4A1.47,1.47,0,0,0,19.63,5L18.54,7.19,17,6s-.38-.15-.4-.14a17.88,17.88,0,0,0-3.13,6.42c-3.86,0-7.17.5-7.57,2.47a2.11,2.11,0,0,0,.25,1.4c0,.17,0,.35-.06.55C6,17.75,5.8,20,5.7,22.9l0,.16c0,1.22-.09,2.52-.1,3.89v.11c0,1.1,0,2.24,0,3.4,0,2.39.18,4.78.4,7.11l.15,1.35v0l0,.13c.22,1.89.51,3.65.85,5.24a34.77,34.77,0,0,0,1.82,6.25A17.61,17.61,0,0,0,12.13,56a9.69,9.69,0,0,0,5.22,3,8.6,8.6,0,0,0,1.83.17h.2a3.78,3.78,0,0,0,.49,0A12,12,0,0,0,26,56.72a25.07,25.07,0,0,0,4.56-4.47c.26-.31.52-.64.76-1a47.08,47.08,0,0,0,3.06-4.49c1.1-1.8,2.19-3.8,3.35-6.11l.73-1.51c.76-1.64,1.52-3.36,2.24-5.11s1.35-3.35,2-5c.26-.72.51-1.4.71-2s.33-1,.47-1.39L57,28.5Zm-37-13.83a1.28,1.28,0,0,1,1.38,1.19,1.29,1.29,0,1,1-2.58.17A1.29,1.29,0,0,1,20.94,10.14ZM7.4,18.49,9,20.83,7.18,22C7.25,20.6,7.32,19.41,7.4,18.49Zm27.43,8.27,2.85,4.31-4.31,2.86-2.86-4.31Zm0-1.71.83.06-.55.37ZM16.09,42.66l1.26,1.89L13,47.41,10.17,43.1l4.32-2.86.89,1.34c-.28.49-.58,1-.93,1.56C14.62,42.89,15.26,42.76,16.09,42.66Zm1-.11a14.85,14.85,0,0,0,3.61-.64,3.29,3.29,0,0,1,.9-.21L18.12,44Zm.73,2.77,2.86,4.31L16.4,52.49l-2.86-4.31Zm.77-.51L23,41.94l2.86,4.32-4.32,2.86Zm8.88-7-1.11.73a11.34,11.34,0,0,0-3.24-1.85c.41-.91.88-2,1.36-3.09l.14-.1ZM25.43,33l4.31-2.86,2.86,4.31L28.28,37.3ZM24,41.92c1.42.32,3,.85,4.78,1.25a5.62,5.62,0,0,0-1.71-4l.92-.61,2.86,4.31-4.31,2.86Zm4.76-3.85,4.32-2.86L36,39.52l-4.32,2.86ZM30,28.85,28.76,27l.73-1.62-2-.33-.33-.5.53-.36c1.66.28,3.78.58,6,.79l.69,1Zm-1.73-.93,1,1.44-4.08,2.7c.44-1.07.88-2.18,1.3-3.28Zm-3-3.29-.92-.18c-1.46-.29-3.39-.72-5.45-1.26l-.24-.37.66-.44c2.53.67,4.59,1.1,5.2,1.22l1,.2.31.47ZM19.13,37.17l.22.32a5.86,5.86,0,0,0-2.77,2.18c-.23.32-.45.67-.67,1l-.65-1ZM14.75,39l-2.87-4.32,4.26-2.82a29.91,29.91,0,0,0,2.46,4.59Zm.94-8-4.32,2.87L8.52,29.56l4.32-2.86Zm-2.08-4.81.53-.35c.16.65.35,1.31.55,2Zm3.57-3.48a52.22,52.22,0,0,1-5.89-2,19.62,19.62,0,0,0,.76,3.14l-1.82-2.75L11.92,20c1.56.63,3.25,1.2,4.89,1.69l.6.89ZM9.72,20.32,8.3,18.18a19.6,19.6,0,0,0,2.6,1.37ZM7,27.16v-.1c0-1.4,0-2.71.07-3.8l0-.11L9.46,21.6l2.87,4.33L8,28.79,7,27.33Zm0,1.86.19.28-.18.12C7.05,29.29,7.05,29.16,7.05,29Zm0,1.5.68-.45,2.85,4.31L7.39,36.51C7.22,34.54,7.11,32.53,7.07,30.52ZM7.63,39h0l-.15-1.47,3.63-2.41L14,39.47,9.66,42.33l-2-3C7.66,39.23,7.64,39.14,7.63,39ZM8,41.45l.92,1.39-.59.4C8.18,42.66,8.07,42.07,8,41.45Zm.52,2.77.91-.61,2.86,4.31L10,49.44A34.72,34.72,0,0,1,8.49,44.22Zm1.83,6.09,2.45-1.62L15.63,53,13,54.76A16.28,16.28,0,0,1,10.32,50.31Zm7.32,7.32a7.94,7.94,0,0,1-4-2.19l2.51-1.67,2.65,4A6.75,6.75,0,0,1,17.64,57.63Zm2.13-.05-2.86-4.32,4.32-2.86,2.86,4.31Zm2.12-.3,2.71-1.8.2.3A12.23,12.23,0,0,1,21.89,57.28Zm3.65-2.05L25.37,55l2-1.3A18,18,0,0,1,25.54,55.23Zm-.68-1L22,49.89,26.32,47l2.85,4.31Zm5.31-3.79-.28.36-2.81-4.25,4.31-2.86,1.66,2.51A46.24,46.24,0,0,1,30.17,50.41Zm3.41-5.12-1.42-2.14,4.05-2.68C35.31,42.25,34.45,43.84,33.58,45.29Zm3.57-6.75-.14.29-.27.18L33.88,34.7l4.31-2.86,1.15,1.73C38.63,35.28,37.9,37,37.15,38.54Zm2.6-6L39,31.33l1.69-1.12C40.35,31,40.06,31.75,39.75,32.51Zm1.55-4c0,.07,0,.13-.07.2l-2.78,1.84L35.6,26.25l1.62-1.07A26.76,26.76,0,0,0,41,25l1,1.52C41.8,27.16,41.56,27.82,41.3,28.52Zm1.08-3.07L42,24.87l.61-.14ZM25,21.34c-10.1-2.05-16-4.91-16.77-6.11.54-.36,2.17-.63,4.72-.63a14.85,14.85,0,0,0-.21,2.27,68.76,68.76,0,0,0,12.43,3.62c1.93.39,3.7.69,5.33.91a12.12,12.12,0,0,0-2.59-4.06c-.09-.29-.21-.59-.32-.89,9.15,2,14.48,4.65,15.23,5.79C41.63,23,35.11,23.39,25,21.34Z"/></g></g></svg>