<svg xmlns="http://www.w3.org/2000/svg" width="29.3" height="38.44" viewBox="0 0 29.3 38.44"><defs><style>.cls-1{fill:#0074b6;}</style></defs><g id="レイヤー_2" data-name="レイヤー 2"><g id="レイヤー_1-2" data-name="レイヤー 1"><path class="cls-1" d="M18.53,36.73A31.77,31.77,0,0,1,6.37,34.56a11.25,11.25,0,0,1-3.51-2.25,3.47,3.47,0,0,1-1.15-2.39,2.85,2.85,0,0,1,.44-1.49,5.83,5.83,0,0,1,1.39-1.52.85.85,0,0,0,.14-1.2.86.86,0,0,0-1.2-.14,7.59,7.59,0,0,0-1.8,2A4.65,4.65,0,0,0,0,29.92,5.16,5.16,0,0,0,1.63,33.5a15.68,15.68,0,0,0,6.78,3.6,36.58,36.58,0,0,0,10.12,1.34.86.86,0,0,0,0-1.71Z"/><path class="cls-1" d="M21.39,8.49V6a14.53,14.53,0,0,1-2.5.22A13.51,13.51,0,0,1,16.39,6V8.49a11.77,11.77,0,0,0,2.5.25A12.61,12.61,0,0,0,21.39,8.49Z"/><path class="cls-1" d="M21.39,4.2v-2A2.37,2.37,0,0,0,18.89,0a2.37,2.37,0,0,0-2.5,2.2v2a11.79,11.79,0,0,0,2.5.24A11.92,11.92,0,0,0,21.39,4.2Z"/><path class="cls-1" d="M21.39,10.54a13.59,13.59,0,0,1-2.5.23,14.43,14.43,0,0,1-2.5-.23v1.7c0,6.61-7.92,6.61-7.92,18,0,0,3.33,2.2,10.42,2.2s10.41-2.2,10.41-2.2c0-11.38-7.91-11.38-7.91-18v-1.7Z"/></g></g></svg>