<svg xmlns="http://www.w3.org/2000/svg" width="22.58mm" height="22.58mm" viewBox="0 0 64 64"><defs><style>.cls-1{fill:none;}.cls-2{fill:#126eaa;}</style></defs><g id="レイヤー_2" data-name="レイヤー 2"><g id="レイヤー_1-2" data-name="レイヤー 1"><rect class="cls-1" width="64" height="64"/><path class="cls-2" d="M46.46,13.5a9.17,9.17,0,0,0-2-.21,47.47,47.47,0,0,0-7,.76c-3.48-2.8-5.46-3.64-9.47-3.64a15.59,15.59,0,0,0-11.3,5.29H7.83l3.82,8.39A33.39,33.39,0,0,0,9.54,35.9c0,7.48,2.35,11.61,6.07,13.84l-.91,4.12H41.44l-.92-4.12c3.32-2,5.53-5.48,6-11.48a13.67,13.67,0,0,0,7.64-9.8C55.68,21.48,52.23,14.77,46.46,13.5ZM33.38,39.63V37.52l3.56,3.56V43.2Zm0-3.68V33.84l3.56,3.56v2.11Zm0-3.69V30.15l3.56,3.56v2.11Zm1.78-7.12a1.78,1.78,0,0,1,1.78,1.78v5.22l-3.56-3.56V26.92A1.78,1.78,0,0,1,35.16,25.14Zm0,21.1a1.78,1.78,0,0,1-1.78-1.78V41.21l3.53,3.53A1.78,1.78,0,0,1,35.16,46.24Zm15.71-18.5a10.92,10.92,0,0,1-4.31,6.69A30.38,30.38,0,0,0,41,17.7a6.57,6.57,0,0,1,3.48-1.07,5.71,5.71,0,0,1,1.23.13C49.71,17.64,52,22.56,50.87,27.74Z"/></g></g></svg>