<svg xmlns="http://www.w3.org/2000/svg" width="22.58mm" height="22.58mm" viewBox="0 0 64 64"><defs><style>.cls-1{fill:none;}.cls-2{fill:#126eaa;}</style></defs><g id="レイヤー_2" data-name="レイヤー 2"><g id="レイヤー_1-2" data-name="レイヤー 1"><rect class="cls-1" width="64" height="64"/><path class="cls-2" d="M32.54,14.91a5.09,5.09,0,1,0-5.09-5.09A5.09,5.09,0,0,0,32.54,14.91Z"/><path class="cls-2" d="M40.19,45.77H16v5c0,1.87,1.67,4,1.67,4.76v4H31.25V58.12s2.16-1.94,4.16-3.77a42.43,42.43,0,0,0,5.49-6C41.8,47.05,41.16,45.77,40.19,45.77Z"/><path class="cls-2" d="M16,20.7a1.58,1.58,0,0,0-3.15,0V43.1a1.57,1.57,0,0,0,1.58,1.57H16Z"/><path class="cls-2" d="M50.38,54.94,48.87,42.1c-.16-1.67-.79-4.65-4.35-5.24s-11.19-2-11.19-2l1.84-7.19,7.51,7.71a2.14,2.14,0,0,0,2.71.4,1.73,1.73,0,0,0,.48-2.51S36.23,19.75,34.55,17.47s-7.73-3.25-8.61,1.09c0,0-3.14,13.17-3.76,16.16-.77,3.73-.13,8.62,6.3,8.62H42.21L45.63,56a2.43,2.43,0,0,0,4.75-1Z"/></g></g></svg>