<svg xmlns="http://www.w3.org/2000/svg" width="22.58mm" height="22.58mm" viewBox="0 0 64 64"><defs><style>.cls-1{fill:none;}.cls-2{fill:#126eaa;}</style></defs><g id="レイヤー_2" data-name="レイヤー 2"><g id="レイヤー_1-2" data-name="レイヤー 1"><rect class="cls-1" width="64" height="64"/><path class="cls-2" d="M26.82,7A2.76,2.76,0,0,0,21.3,7v6.5h5.52Z"/><path class="cls-2" d="M41.55,7A2.76,2.76,0,0,0,36,7v6.5h5.52V7Z"/><path class="cls-2" d="M46.6,15.72H16.25a.52.52,0,0,0-.52.52v3.5a.52.52,0,0,0,.52.51h2.29v2.27A12.93,12.93,0,0,0,28.68,35.11v4.21h5.49V35.11A12.93,12.93,0,0,0,44.31,22.52V20.25H46.6a.51.51,0,0,0,.52-.51v-3.5A.52.52,0,0,0,46.6,15.72Zm-4.76,9a14.3,14.3,0,0,1-7.57,7.57,1.29,1.29,0,0,1-.51.1,1.31,1.31,0,0,1-.51-2.52,11.73,11.73,0,0,0,6.17-6.17,1.31,1.31,0,0,1,2.42,1Z"/><path class="cls-2" d="M14.55,57.63h3.18V48.27H15.05V46.45a9.6,9.6,0,0,0,3.44-1.24h2.18V57.63h2.79V60H14.55Z"/><path class="cls-2" d="M25.55,58.31c4-3.6,6.4-6.38,6.4-8.66a2.12,2.12,0,0,0-2.22-2.4A3.83,3.83,0,0,0,27,48.77l-1.6-1.6a6,6,0,0,1,4.7-2.24,4.34,4.34,0,0,1,4.66,4.56c0,2.68-2.22,5.56-4.92,8.2.74-.08,1.72-.16,2.4-.16h3.22V60H25.55Z"/><path class="cls-2" d="M36.37,45.21h3.1l2,7.2c.46,1.64.76,3.12,1.24,4.78h.1c.46-1.66.8-3.14,1.26-4.78L46,45.21h3L44.41,60H40.89Z"/></g></g></svg>