<svg xmlns="http://www.w3.org/2000/svg" width="22.58mm" height="22.58mm" viewBox="0 0 64 64"><defs><style>.cls-1{fill:none;}.cls-2{fill:#126eaa;}</style></defs><g id="レイヤー_2" data-name="レイヤー 2"><g id="レイヤー_1-2" data-name="レイヤー 1"><rect class="cls-1" width="64" height="64"/><path class="cls-2" d="M14.78,25.19v3.4l5.53-5.54h-3.4A2.13,2.13,0,0,0,14.78,25.19Z"/><rect class="cls-2" x="10.37" y="49.74" width="5.31" height="2.24"/><rect class="cls-2" x="47.82" y="49.74" width="5.31" height="2.24"/><path class="cls-2" d="M55.74,12.29h-48a3.33,3.33,0,0,0-3.32,3.33V45.3a3.32,3.32,0,0,0,3.32,3.32h48a3.33,3.33,0,0,0,3.33-3.32V15.62A3.33,3.33,0,0,0,55.74,12.29ZM41.55,39.36a2.14,2.14,0,0,1-2.14,2.14H13.14A2.14,2.14,0,0,1,11,39.36V21.42a2.14,2.14,0,0,1,2.14-2.14H39.41a2.14,2.14,0,0,1,2.14,2.14Zm5.87,1.91A1.59,1.59,0,1,1,49,39.68,1.59,1.59,0,0,1,47.42,41.27Zm0-6.29A1.59,1.59,0,1,1,49,33.39,1.59,1.59,0,0,1,47.42,35Zm6.37,6.29a1.59,1.59,0,1,1,1.59-1.59A1.59,1.59,0,0,1,53.79,41.27Zm0-6.29a1.59,1.59,0,1,1,1.59-1.59A1.59,1.59,0,0,1,53.79,35Zm1.59-10.39h-9.5v-5h9.5Z"/></g></g></svg>