<svg xmlns="http://www.w3.org/2000/svg" width="18" height="31" viewBox="0 0 18 31"><defs><style>.cls-1{fill:#0074b6;}</style></defs><g id="レイヤー_2" data-name="レイヤー 2"><g id="レイヤー_1-2" data-name="レイヤー 1"><path class="cls-1" d="M15.81,0H2.19A2.2,2.2,0,0,0,0,2.19V28.81A2.2,2.2,0,0,0,2.19,31H15.81A2.2,2.2,0,0,0,18,28.81V2.19A2.2,2.2,0,0,0,15.81,0ZM9.27,29.06a.66.66,0,1,1,.65-.66A.66.66,0,0,1,9.27,29.06ZM17,26H2V4H17Z"/><path class="cls-1" d="M9.21,20.61a10,10,0,0,1-3.85-.69,3.61,3.61,0,0,1-1.12-.71,1.09,1.09,0,0,1-.36-.76A.85.85,0,0,1,4,18a1.62,1.62,0,0,1,.44-.48.27.27,0,0,0,0-.39.28.28,0,0,0-.38,0,2.4,2.4,0,0,0-.57.63,1.43,1.43,0,0,0-.22.75,1.65,1.65,0,0,0,.52,1.14A5.07,5.07,0,0,0,6,20.73a11.67,11.67,0,0,0,3.21.42.27.27,0,1,0,0-.54Z"/><path class="cls-1" d="M10,11.66v-.81a3.77,3.77,0,0,1-.79.08c-.28,0-.55,0-1.21-.08v.81c.66.05.93.08,1.21.08A3.77,3.77,0,0,0,10,11.66Z"/><path class="cls-1" d="M10,10.3V9.65a.73.73,0,0,0-.79-.71A1.87,1.87,0,0,0,8,9.65v.65c.66.06.93.08,1.21.08A3.2,3.2,0,0,0,10,10.3Z"/><path class="cls-1" d="M10,12.21a3.81,3.81,0,0,1-.79.07c-.28,0-.55,0-1.21-.07v.55c.4,2.16-2.18,2.16-2.18,5.86a6.54,6.54,0,0,0,3.39.72,6.56,6.56,0,0,0,3.4-.72c0-3.7-2.58-3.7-2.61-5.86v-.55Z"/></g></g></svg>