<svg xmlns="http://www.w3.org/2000/svg" width="182" height="194" viewBox="0 0 182 194"><defs><style>.cls-1{fill:#0074b6;}.cls-2{fill:#fff;}</style></defs><g id="レイヤー_2" data-name="レイヤー 2"><g id="レイヤー_1-2" data-name="レイヤー 1"><rect class="cls-1" width="182" height="194" rx="18.55"/><path class="cls-2" d="M16,158.8H13.25v-5.28h9.81v-1H15v-2.29H34.18v2.29H26.07v1h10v5.28H33.22v-3.23H26.07V161h-3v-5.41H16Zm16.67,12.37c1.3,0,1.53-.39,1.72-2.6a7.55,7.55,0,0,0,2.57,1c-.36,3.12-1.2,4-4,4H27.45c-3.56,0-4.55-.75-4.55-3.48V170H18.58v1.14H15.65v-9.44h18V170H25.86v.08c0,1,.29,1.11,1.88,1.11ZM16.5,159h5.62v1.69H16.5Zm5.62-.91H17v-1.66h5.12Zm-3.54,5.64v1.15H22.9v-1.15Zm4.32,4.14v-1.12H18.58v1.12Zm7.67-4.14H25.86v1.15h4.71Zm0,4.14v-1.12H25.86v1.12Zm1.56-11.44v1.66H27.06v-1.66ZM27.06,159h5.67v1.69H27.06Z"/><path class="cls-2" d="M39.8,153.73h9.88v2.44H39.8ZM49,172.58H43.54v1h-2.6v-8.86h8Zm-.13-12.82H41v-2.31h7.8Zm-7.8,1.3h7.8v2.34H41Zm7.83-8.58H41.18v-2.34h7.67Zm-5.31,14.69v3h2.79v-3Zm15.06-7.44v3.44h4.55v10.34h-3.1v-1.14h-5.9v1.25H51.21V163.17h4.24v-3.44H49.86v-2.88h5.59v-3.17c-1.45.18-2.94.31-4.31.41a10.4,10.4,0,0,0-.84-2.6,56.64,56.64,0,0,0,11-1.9l2.18,2.58a38.64,38.64,0,0,1-4.91,1.06v3.62h5.59v2.88ZM60.05,166h-5.9v3.64h5.9Z"/><path class="cls-2" d="M79.09,167.61c0-.75.07-2,.1-3.07-1.9,1-2.94,2.06-2.94,3.33,0,1.43,1.22,1.82,3.75,1.82a39.16,39.16,0,0,0,7.3-.75l-.1,3.35a70.6,70.6,0,0,1-7.28.42c-4,0-7.07-1-7.07-4.29s3.12-5.36,6.05-6.87a2,2,0,0,0-1.79-.88,6.35,6.35,0,0,0-4,1.77,31.88,31.88,0,0,0-2.39,2.83l-2.76-2.05a25.16,25.16,0,0,0,5.67-7.07h-.31c-1,0-2.94-.06-4.34-.19v-3a32.66,32.66,0,0,0,4.52.28h1.25a14.79,14.79,0,0,0,.52-2.93l3.38.28c-.13.62-.31,1.51-.63,2.55a60.58,60.58,0,0,0,7.28-.75l0,3a83.79,83.79,0,0,1-8.4.68,16.74,16.74,0,0,1-1.48,2.6,8,8,0,0,1,2.91-.52,3.5,3.5,0,0,1,3.43,2c1.33-.62,2.42-1.07,3.49-1.53s1.89-.89,2.83-1.33l1.3,3a29.17,29.17,0,0,0-3.07,1.09c-1.14.44-2.6,1-4.18,1.74,0,1.43.07,3.33.1,4.5Z"/><path class="cls-2" d="M104.49,150.89c-.16.68-.34,1.49-.47,2.14s-.34,1.71-.52,2.65c.86-.05,1.64-.11,2.16-.11,2.73,0,4.65,1.23,4.65,4.92,0,3-.36,7.15-1.45,9.38-.86,1.8-2.29,2.37-4.24,2.37a14.93,14.93,0,0,1-3.07-.36l-.57-3.41a14.63,14.63,0,0,0,3.14.55,1.88,1.88,0,0,0,1.93-1.12c.73-1.43,1.06-4.5,1.06-7.05,0-2-.88-2.34-2.52-2.34-.41,0-1,.05-1.77.11-1,3.9-2.86,9.95-5.22,13.75L94.22,171c2.52-3.38,4.26-8.53,5.2-12-.91.1-1.72.21-2.21.29-.73.07-2.06.26-2.86.39l-.29-3.49a22.61,22.61,0,0,0,2.73,0c.81,0,2-.1,3.33-.21a29.25,29.25,0,0,0,.55-5.46Zm8.89,2.42a46.53,46.53,0,0,1,4.5,9.57l-3.25,1.53c-.68-2.86-2.52-7.51-4.37-9.8Z"/><path class="cls-2" d="M127.19,151.2a18.83,18.83,0,0,0-.6,2.09c-.63,2.86-1.54,8.24-.86,11.44.34-.78.78-2,1.2-3l1.63,1a64.3,64.3,0,0,0-1.74,6.29,6.26,6.26,0,0,0-.18,1.25c0,.26,0,.7.08,1.06l-2.89.29a28.94,28.94,0,0,1-1.48-8.35,67,67,0,0,1,.86-10.27,13.4,13.4,0,0,0,.15-2.23Zm16.51,7.49c-1,.13-2.37.24-3.83.32v1.06c0,6.09-.46,9.8-5.59,13.08l-3-2.34a10.09,10.09,0,0,0,3-2.05c2-2.06,2.39-4.35,2.39-8.69v-.93c-1,0-1.95.05-2.88.05-1.12,0-2.71-.08-4-.13v-3.28a27.27,27.27,0,0,0,3.9.26c.93,0,1.92,0,2.91,0,0-1.43-.08-2.76-.13-3.46a11.28,11.28,0,0,0-.29-1.77H140a14.72,14.72,0,0,0-.13,1.75c0,.57,0,1.89,0,3.3a34.48,34.48,0,0,0,3.87-.47Z"/><path class="cls-2" d="M165.22,153.52c-.62.39-1.22.78-1.79,1.17-1.38,1-4.08,3.25-5.69,4.55a8.73,8.73,0,0,1,2.41-.29c4.37,0,7.7,2.73,7.7,6.48,0,4-3.09,7.28-9.31,7.28-3.59,0-6.29-1.64-6.29-4.21,0-2.08,1.9-4,4.63-4a5.18,5.18,0,0,1,5.48,4.4,3.75,3.75,0,0,0,2.11-3.51c0-2.32-2.34-3.88-5.33-3.88-3.95,0-6.53,2.11-9.28,5.23l-2.34-2.42c1.82-1.48,4.91-4.11,6.45-5.36s4.1-3.35,5.38-4.47c-1.33,0-4.86.18-6.22.29a14.92,14.92,0,0,0-2.1.21l-.11-3.36a23.1,23.1,0,0,0,2.34.13c1.36,0,6.87-.13,8.32-.26a12.38,12.38,0,0,0,2-.26Zm-5.82,16.2c-.16-1.67-1.12-2.76-2.52-2.76-1,0-1.59.57-1.59,1.22,0,1,1.09,1.62,2.6,1.62A14.06,14.06,0,0,0,159.4,169.72Z"/><path class="cls-2" d="M110.42,25H66.67a7.18,7.18,0,0,0-7.16,7.16v85.46a7.18,7.18,0,0,0,7.16,7.16h43.75a7.18,7.18,0,0,0,7.15-7.16V32.13A7.18,7.18,0,0,0,110.42,25ZM88.54,118a2.15,2.15,0,1,1,2.15-2.15A2.14,2.14,0,0,1,88.54,118Zm24.56-8.77H64v-72H113.1Z"/><path class="cls-2" d="M89.24,91.79a32.63,32.63,0,0,1-12.59-2.26A11.38,11.38,0,0,1,73,87.2a3.58,3.58,0,0,1-1.18-2.47,3,3,0,0,1,.45-1.55,6,6,0,0,1,1.45-1.57.89.89,0,0,0-1.1-1.39,7.8,7.8,0,0,0-1.87,2A4.78,4.78,0,0,0,70,84.73a5.38,5.38,0,0,0,1.69,3.71,16.4,16.4,0,0,0,7,3.73,38,38,0,0,0,10.49,1.39.89.89,0,1,0,0-1.77Z"/><path class="cls-2" d="M91.9,62.56V59.92a14.86,14.86,0,0,1-5.32,0v2.64a13.74,13.74,0,0,0,5.32,0Z"/><path class="cls-2" d="M91.9,58.13V56a2.68,2.68,0,0,0-5.32,0v2.12a13.74,13.74,0,0,0,5.32,0Z"/><path class="cls-2" d="M91.9,64.35a14.38,14.38,0,0,1-2.66.24,15.3,15.3,0,0,1-2.66-.24v1.81c0,7-8.41,7-8.41,19.13,0,0,3.54,2.34,11.07,2.34s11.08-2.34,11.08-2.34c0-12.11-8.42-12.11-8.42-19.13V64.35Z"/></g></g></svg>