<svg xmlns="http://www.w3.org/2000/svg" width="55.77" height="34.17" viewBox="0 0 55.77 34.17"><defs><style>.cls-1{fill:#0074b6;}</style></defs><g id="レイヤー_2" data-name="レイヤー 2"><g id="レイヤー_1-2" data-name="レイヤー 1"><path class="cls-1" d="M30.87,29.46a29.84,29.84,0,0,1,24.9.4c-7.17-1.4-11-2.38-24.5,2.59A24.9,24.9,0,0,1,6,28.27S17.73,35.44,30.87,29.46Z"/><path class="cls-1" d="M33.86,5.43A1.86,1.86,0,1,1,32,7.28,1.85,1.85,0,0,1,33.86,5.43Z"/><path class="cls-1" d="M42,7.28A1.86,1.86,0,1,1,40.1,9.14,1.86,1.86,0,0,1,42,7.28Z"/><path class="cls-1" d="M.21,10.08l.38.42c.25.28.61.69,1,1.21.89,1,2.13,2.51,3.5,4.26a76.86,76.86,0,0,1,8.16,12.4.8.8,0,0,0,.55.43,29.78,29.78,0,0,0,6.08.64A27.1,27.1,0,0,0,31.2,27a27.59,27.59,0,0,1,11.48-2.48,30.06,30.06,0,0,1,7.8,1,.79.79,0,0,0,1-.52L53.74,18a.79.79,0,0,0-.49-1s-.83-.29-2.29-.76l2.8-8.52a.8.8,0,0,0-.38-.95S52.06,6,49.84,5.11l.62-3.37A.78.78,0,0,0,50,.84L47.69.05a.79.79,0,0,0-.87.23L44.35,3.13A56,56,0,0,0,28,.53c-1.16,0-2.33,0-3.52.14l-.33.1L10.39,8.7c-1.48-.06-3-.09-4.46-.09-1.73,0-3.46,0-5.18.14a.79.79,0,0,0-.54,1.33ZM13.3,8.87,24.81,2.25C25.9,2.17,27,2.12,28,2.12A57.82,57.82,0,0,1,52,7.84l-2.6,7.89A168.73,168.73,0,0,0,13.3,8.87Z"/><path class="cls-1" d="M27.49,6.36A1.86,1.86,0,1,1,25.63,4.5,1.86,1.86,0,0,1,27.49,6.36Z"/></g></g></svg>