<svg xmlns="http://www.w3.org/2000/svg" width="22.71" height="30.75" viewBox="0 0 22.71 30.75"><defs><style>.cls-1{fill:#0074b6;}</style></defs><g id="レイヤー_2" data-name="レイヤー 2"><g id="レイヤー_1-2" data-name="レイヤー 1"><path class="cls-1" d="M14.82,29.39A25.11,25.11,0,0,1,5.1,27.64a8.74,8.74,0,0,1-2.82-1.8,2.74,2.74,0,0,1-.91-1.91,2.32,2.32,0,0,1,.35-1.19,4.58,4.58,0,0,1,1.12-1.21.69.69,0,0,0,.11-1,.68.68,0,0,0-1-.11A5.77,5.77,0,0,0,.55,22,3.67,3.67,0,0,0,0,23.93,4.14,4.14,0,0,0,1.31,26.8a12.57,12.57,0,0,0,5.41,2.88,29.32,29.32,0,0,0,8.1,1.07.68.68,0,1,0,0-1.36Z"/><path class="cls-1" d="M16.37,6.8v-2a10.78,10.78,0,0,1-2,.18,11.9,11.9,0,0,1-2-.18v2a10,10,0,0,0,2,.19A9.84,9.84,0,0,0,16.37,6.8Z"/><path class="cls-1" d="M16.37,3.36V1.76a1.89,1.89,0,0,0-2-1.76,1.9,1.9,0,0,0-2,1.76v1.6a10,10,0,0,0,2,.2A10.59,10.59,0,0,0,16.37,3.36Z"/><path class="cls-1" d="M16.37,8.43a11.7,11.7,0,0,1-2,.19,11.9,11.9,0,0,1-2-.19V9.79c0,5.29-6.33,5.29-6.33,14.4,0,0,2.67,1.76,8.33,1.76s8.34-1.76,8.34-1.76c0-9.11-6.34-9.11-6.34-14.4V8.43Z"/></g></g></svg>