<svg xmlns="http://www.w3.org/2000/svg" width="750" height="8" viewBox="0 0 750 8"><defs><style>.cls-1{fill:none;stroke:#03b3d9;stroke-miterlimit:10;stroke-width:2px;}</style></defs><g id="レイヤー_2" data-name="レイヤー 2"><g id="レイヤー_1-2" data-name="レイヤー 1"><path class="cls-1" d="M0,1C12.09,1,12.09,7,24.19,7S36.28,1,48.38,1,60.47,7,72.57,7,84.66,1,96.76,1,108.85,7,121,7,133,1,145.14,1s12.1,6,24.19,6,12.1-6,24.19-6,12.1,6,24.19,6,12.1-6,24.2-6S254,7,266.1,7s12.09-6,24.19-6,12.1,6,24.19,6,12.1-6,24.19-6,12.1,6,24.2,6S375,1,387.06,1s12.1,6,24.2,6,12.09-6,24.19-6,12.1,6,24.19,6,12.1-6,24.2-6S495.94,7,508,7s12.1-6,24.2-6,12.09,6,24.19,6,12.1-6,24.19-6,12.1,6,24.2,6S616.91,1,629,1s12.1,6,24.2,6,12.1-6,24.2-6,12.1,6,24.2,6,12.1-6,24.2-6S737.9,7,750,7"/></g></g></svg>